<svg width="190" height="99" viewBox="0 0 190 99" fill="none" xmlns="http://www.w3.org/2000/svg">
<mask id="mask0_4_723" style="mask-type:luminance" maskUnits="userSpaceOnUse" x="0" y="0" width="190" height="99">
<path d="M190 0.446289H0.142822V98.7923H190V0.446289Z" fill="white"/>
</mask>
<g mask="url(#mask0_4_723)">
<path d="M38.5206 84.0008C38.5206 77.6558 42.1032 74.2251 46.8933 74.2251C51.3246 74.2251 53.4339 76.6553 54.2864 80.1107L51.2202 80.9783C50.4987 78.4741 49.3938 77.1907 46.8668 77.1907C43.6449 77.1907 41.7672 79.674 41.7672 83.9743C41.7672 88.4796 43.698 90.9591 46.9199 90.9591C49.3938 90.9591 50.7835 89.7307 51.505 86.8886L54.5693 87.5815C53.6409 91.3445 51.2942 93.8772 46.8914 93.8772C41.9988 93.8791 38.5206 90.5281 38.5206 84.0008Z" fill="#4B4848"/>
</g>
<mask id="mask1_4_723" style="mask-type:luminance" maskUnits="userSpaceOnUse" x="0" y="0" width="190" height="99">
<path d="M190 0.446289H0.142822V98.7923H190V0.446289Z" fill="white"/>
</mask>
<g mask="url(#mask1_4_723)">
<path d="M66.4751 86.7375C66.4751 84.2067 65.3948 82.3632 62.9969 82.3632C60.7072 82.3632 59.5225 83.9998 59.5225 86.7375C59.5225 89.3214 60.5781 91.165 62.9969 91.165C65.2904 91.165 66.4751 89.5265 66.4751 86.7375ZM56.3253 86.7375C56.3253 81.7215 59.6516 79.6748 62.9969 79.6748C66.3213 79.6748 69.6723 81.7234 69.6723 86.7375C69.6723 91.7061 66.3232 93.8021 62.9969 93.8021C59.6744 93.8021 56.3253 91.7042 56.3253 86.7375Z" fill="#4B4848"/>
</g>
<mask id="mask2_4_723" style="mask-type:luminance" maskUnits="userSpaceOnUse" x="0" y="0" width="190" height="99">
<path d="M190 0.446289H0.142822V98.7923H190V0.446289Z" fill="white"/>
</mask>
<g mask="url(#mask2_4_723)">
<path d="M71.9012 93.5211V79.933H75.0681V81.7993C76.1275 80.6469 77.671 79.6748 79.7594 79.6748C82.051 79.6748 82.9509 80.5709 83.4939 81.9018C84.5761 80.7247 86.2013 79.6748 88.284 79.6748C91.0654 79.6748 92.2786 81.3399 92.2786 83.7719V93.523H89.108V84.5636C89.108 83.0543 88.6713 82.3651 87.1772 82.3651C85.8861 82.3651 84.859 83.0808 83.6743 84.1308V93.523H80.5056V84.5636C80.5056 83.0543 80.067 82.3651 78.5747 82.3651C77.3103 82.3651 76.2566 83.0808 75.0681 84.1308V93.523H71.9012" fill="#4B4848"/>
</g>
<mask id="mask3_4_723" style="mask-type:luminance" maskUnits="userSpaceOnUse" x="0" y="0" width="190" height="99">
<path d="M190 0.446289H0.142822V98.7923H190V0.446289Z" fill="white"/>
</mask>
<g mask="url(#mask3_4_723)">
<path d="M104.963 86.7394C104.963 83.8744 103.725 82.3651 101.69 82.3651C100.376 82.3651 99.1135 83.1834 98.3673 84.0757V89.5284C99.2179 90.6277 100.454 91.2181 101.585 91.2181C103.983 91.2181 104.963 89.76 104.963 86.7394ZM95.1986 98.6415V79.933H98.3673V81.7234C99.271 80.6469 100.685 79.6748 102.721 79.6748C105.838 79.6748 108.13 82.0063 108.13 86.7147C108.13 91.4251 105.783 93.728 102.282 93.728C100.816 93.728 99.3717 93.1376 98.3673 92.0136V98.6415H95.1986Z" fill="#4B4848"/>
</g>
<mask id="mask4_4_723" style="mask-type:luminance" maskUnits="userSpaceOnUse" x="0" y="0" width="190" height="99">
<path d="M190 0.446289H0.142822V98.7923H190V0.446289Z" fill="white"/>
</mask>
<g mask="url(#mask4_4_723)">
<path d="M118.445 89.7319V86.736C114.657 87.2486 112.648 88.1713 112.648 89.656C112.648 90.7306 113.395 91.2906 114.555 91.2906C116.176 91.2906 117.442 90.6793 118.445 89.7319ZM109.533 90.2445C109.533 87.3017 112.056 85.3291 118.445 84.6115V84.2052C118.445 82.8458 117.725 82.2591 116.203 82.2591C114.298 82.2591 112.751 83.1818 111.593 84.0989L110.047 82.1281C111.515 80.7972 113.808 79.6714 116.641 79.6714C120.3 79.6714 121.564 81.4143 121.564 84.5849V90.1914C121.564 91.8298 121.667 92.8285 121.949 93.5177H118.756C118.576 92.9557 118.445 92.5456 118.445 91.7786C117.055 93.1873 115.43 93.7227 113.396 93.7227C111.183 93.7246 109.533 92.4962 109.533 90.2445Z" fill="#4B4848"/>
</g>
<mask id="mask5_4_723" style="mask-type:luminance" maskUnits="userSpaceOnUse" x="0" y="0" width="190" height="99">
<path d="M190 0.446289H0.142822V98.7923H190V0.446289Z" fill="white"/>
</mask>
<g mask="url(#mask5_4_723)">
<path d="M124.42 93.5211V79.933H127.59V82.105C128.621 80.9279 130.218 79.6748 132.485 79.6748C134.981 79.6748 136.529 80.9544 136.529 83.6428V93.523H133.362V84.5408C133.362 83.0562 132.743 82.2891 131.3 82.2891C129.908 82.2891 128.748 82.9783 127.59 84.0567V93.5249H124.42" fill="#4B4848"/>
</g>
<mask id="mask6_4_723" style="mask-type:luminance" maskUnits="userSpaceOnUse" x="0" y="0" width="190" height="99">
<path d="M190 0.446289H0.142822V98.7923H190V0.446289Z" fill="white"/>
</mask>
<g mask="url(#mask6_4_723)">
<path d="M137.296 98.381L138.015 95.8483C138.403 95.949 139.227 96.1312 140.333 96.1312C141.469 96.1312 142.059 95.6927 142.5 94.5934L142.883 93.5966L137.628 79.9326H140.924L144.455 89.8337H144.505L148.009 79.9326H151.151L145.329 95.0054C144.429 97.3843 143.244 98.793 140.538 98.793C138.917 98.793 137.964 98.5614 137.296 98.381Z" fill="#4B4848"/>
</g>
<mask id="mask7_4_723" style="mask-type:luminance" maskUnits="userSpaceOnUse" x="0" y="0" width="190" height="99">
<path d="M190 0.446289H0.142822V98.7923H190V0.446289Z" fill="white"/>
</mask>
<g mask="url(#mask7_4_723)">
<path d="M79.169 19.3859V3.41706H73.2968V0.445801H88.2613V3.41706H82.3871V19.3859H79.169Z" fill="#4B4848"/>
</g>
<mask id="mask8_4_723" style="mask-type:luminance" maskUnits="userSpaceOnUse" x="0" y="0" width="190" height="99">
<path d="M190 0.446289H0.142822V98.7923H190V0.446289Z" fill="white"/>
</mask>
<g mask="url(#mask8_4_723)">
<path d="M90.1655 19.3859V0.445801H93.3608V7.63759C94.2342 6.71868 95.884 5.54157 98.3598 5.54157C100.754 5.54157 102.301 6.95031 102.301 9.63489V19.3878H99.1059V10.4266C99.1059 8.92102 98.4623 8.22804 97.0706 8.22804C95.6809 8.22804 94.5208 8.94381 93.3627 9.99372V19.3859H90.1655Z" fill="#4B4848"/>
</g>
<mask id="mask9_4_723" style="mask-type:luminance" maskUnits="userSpaceOnUse" x="0" y="0" width="190" height="99">
<path d="M190 0.446289H0.142822V98.7923H190V0.446289Z" fill="white"/>
</mask>
<g mask="url(#mask9_4_723)">
<path d="M114.065 11.2748C113.883 9.19962 112.854 8.10035 110.947 8.10035C109.402 8.10035 107.986 8.96989 107.676 11.2748H114.065ZM104.454 12.6057C104.454 7.43395 108.137 5.54297 110.972 5.54297C114.038 5.54297 116.973 7.358 116.973 12.8866V13.6309H107.623C107.752 16.0857 109.271 17.1622 111.283 17.1622C113.06 17.1622 114.091 16.5737 115.12 15.575L116.797 17.2135C115.379 18.7779 113.499 19.674 111.05 19.674C107.623 19.6702 104.454 17.597 104.454 12.6057Z" fill="#4B4848"/>
</g>
<mask id="mask10_4_723" style="mask-type:luminance" maskUnits="userSpaceOnUse" x="0" y="0" width="190" height="99">
<path d="M190 0.446289H0.142822V98.7923H190V0.446289Z" fill="white"/>
</mask>
<g mask="url(#mask10_4_723)">
<path d="M178.24 66.5994C178.24 66.5994 177.902 67.5828 177.655 68.3556C177.228 69.6884 176.287 73.2785 176.07 74.393C175.742 76.0486 174.81 80.3868 174.762 80.4779C174.696 80.6032 174.654 80.6431 174.496 80.7437C174.113 80.9678 173.957 80.8937 173.492 80.6469C172.888 80.3317 172.357 80.009 171.903 79.4147C170.992 78.2395 171.21 76.0277 171.388 74.731C172.013 70.1915 172.645 68.1961 174.384 63.6775C174.413 63.5996 174.413 63.5825 174.377 63.5142C173.836 62.3675 173.543 60.9834 173.543 59.8632C173.547 56.3224 175.596 52.8176 177.893 50.004C178.066 49.7894 179.193 48.4471 179.706 48.4737C180.219 48.4984 180.302 49.0927 180.226 49.5901C179.968 51.2247 178.81 52.8917 178.018 54.272C177.128 55.8136 176.934 56.4477 176.499 57.8622C176.429 58.0824 176.254 59.1152 176.262 59.2481C176.279 59.6278 176.363 60.1063 176.363 60.1063C176.363 60.1063 177.811 58.0919 178.768 56.8483C179.29 56.1648 179.666 55.713 180.101 55.2269C180.541 54.7333 182.241 52.979 182.728 52.5158C183.756 51.5418 184.211 51.1355 185.322 50.564C186.203 50.1122 186.993 49.9983 187.853 50.5621C189.214 51.4507 189.808 53.3303 189.96 54.8529C190.139 56.6736 189.765 58.7222 188.956 60.2809C187.997 62.1415 186.687 63.4819 184.908 64.6533C183.087 65.8513 180.951 66.6677 178.857 66.6184C178.569 66.6146 178.24 66.5994 178.24 66.5994ZM186.708 53.6075C185.641 54.4941 184.264 56.3034 183.608 57.2432C182.728 58.4887 181.903 59.9145 181.113 61.0176C180.942 61.2663 180.433 62.1548 180.45 62.1833C180.486 62.2459 180.999 62.227 181.527 62.1377C182.649 61.9498 184.177 61.1676 184.992 60.5202C186.235 59.531 187.099 58.1716 187.509 56.5806C187.689 55.8573 187.782 54.3422 187.266 53.6682C187.164 53.541 186.905 53.4404 186.708 53.6075ZM160.559 65.0274C160.432 64.9305 160.229 64.7236 160.079 64.5565C160.056 64.5337 159.634 63.9072 159.551 63.7135C159.477 63.5465 159.422 63.4269 159.368 63.2883C158.985 62.3048 158.994 61.3365 159.207 60.2809C159.405 59.2956 159.591 59.2519 160.099 57.9001C160.132 57.8261 160.147 57.7615 160.158 57.6799C160.179 57.4938 159.877 56.2484 159.86 55.8478C159.839 55.2364 160.316 54.8036 161.117 54.7181C161.191 54.7124 161.244 54.7124 161.297 54.6972C161.616 54.6194 161.821 54.0137 161.994 53.5258C162.237 52.8423 162.617 51.7981 162.617 51.7981C162.617 51.7981 161.607 51.5665 161.066 51.3633C160.462 51.1374 160.004 50.845 159.731 50.2944C159.403 49.6508 159.619 49.292 160.297 49.0832C160.546 49.0034 162.507 48.6294 163.128 48.5421C163.9 48.4301 164.627 48.3332 165.364 48.2421C166.004 48.1643 168.939 47.8263 169.873 47.851C171.297 47.8928 172.222 48.4737 173.053 49.6717C173.501 50.3115 173.807 51.0691 173.131 51.4811C172.095 52.1076 168.732 52.155 168.117 52.1607C167.135 52.1702 165.78 52.155 165.78 52.155L165.096 54.4276C165.096 54.4276 167.504 54.403 168.858 54.3973C169.186 54.3973 169.514 54.4143 169.699 54.4542C170.39 54.6061 170.629 55.1339 170.655 55.8952C170.693 56.7838 170.524 57.1939 169.811 57.3135C169.442 57.3723 165.305 57.397 164.745 57.4616C164.396 57.4995 164.026 57.5546 164.026 57.5546C164.026 57.5546 163.728 58.3292 163.467 59.1114C163.205 59.9278 162.981 60.7575 162.981 60.7575C162.981 60.7575 163.192 60.767 163.365 60.767C163.655 60.7689 163.952 60.7271 164.183 60.6872C165.446 60.4575 167.322 60.1822 168.859 59.9411C169.687 59.8101 170.103 59.7512 170.54 60.2961C170.916 60.7784 171.111 61.1828 171.138 61.7656C171.16 62.3143 170.741 62.6769 170.226 63.068C168.599 64.304 165.818 65.6444 163.747 65.8722C162.79 65.9785 162.556 65.8741 161.717 65.6558C161.558 65.614 160.977 65.3463 160.982 65.3178C160.978 65.3178 160.665 65.1109 160.559 65.0274ZM144.419 65.3027C143.248 64.8755 142.984 62.9978 142.929 62.0466C142.743 58.9538 143.567 54.6498 144.611 51.7507C144.909 50.9248 145.34 49.5768 146.268 49.6527C146.908 49.7097 147.364 50.1995 147.723 50.7026C148.64 51.988 149.847 53.7309 150.646 54.944C151.541 56.3034 152.399 57.6723 153.244 58.9121C153.346 59.062 153.445 59.2082 153.559 59.3013C153.713 59.4247 153.849 59.4304 153.912 59.3165C153.94 59.2728 153.885 57.7103 153.846 57.397C153.779 56.8977 153.751 56.4952 153.694 56.0642C153.538 54.813 153.137 53.055 152.822 51.8646C152.475 50.5337 152.053 49.1458 151.736 47.8586C151.636 47.4409 151.541 47.0175 151.544 46.6188C151.548 46.0435 151.92 45.7246 152.524 45.9391C153.715 46.3568 155.292 48.9237 155.754 49.816C155.909 50.1179 156.53 51.6481 156.669 52.0791C157.162 53.5505 157.462 54.944 157.599 56.5483C157.73 58.1071 157.62 60.3759 156.957 61.9118C156.714 62.4776 156.215 63.237 155.799 63.6205C155.148 64.2205 153.847 64.6894 152.953 64.1825C151.974 63.63 150.364 60.8619 150.09 60.3873C149.156 58.7678 147.55 55.5991 147.299 55.244C147.244 55.1662 147.174 55.0902 147.049 55.0523C146.954 55.0238 146.916 55.2193 146.893 55.3465C146.733 56.2693 146.623 60.5847 146.621 60.7043C146.595 61.4296 146.559 63.2123 146.348 64.0895C146.209 64.6628 146.071 65.1318 145.541 65.3729C145.163 65.5419 144.877 65.4716 144.419 65.3027ZM135.374 54.5283C135.456 54.5359 135.475 54.5397 135.549 54.551C136.872 54.7295 138.171 54.9668 139.162 55.4073C140.083 55.8136 140.624 56.3224 141.117 57.2356C141.867 58.6178 141.917 60.5524 141.239 62.0181C140.732 63.1079 139.621 64.023 138.608 64.5072C137.552 65.0141 136.517 65.2552 135.327 65.39C133.25 65.6159 131 65.1906 129.128 64.2907C128.021 63.7534 126.667 62.8288 125.984 61.6365C125.483 60.7613 125.498 59.624 126.109 58.7943C127.081 57.4729 129.164 57.1806 130.736 57.2356C131.934 57.2793 134.085 57.6495 135.224 58.0482C135.541 58.1621 136.701 58.6121 136.905 58.8152C137.047 58.9614 137.142 59.1665 137.077 59.362C136.815 60.1518 134.888 60.5676 134.332 60.6493C132.838 60.8752 132.065 60.3151 130.37 59.6506C129.948 59.4873 129.388 59.307 128.957 59.2671C128.188 59.195 127.26 59.4057 127.114 60.243C127.038 60.6739 127.547 61.0764 127.934 61.2435C128.843 61.6346 129.584 61.7732 130.48 61.7884C133.123 61.8283 136.094 61.3973 138.258 59.8746C138.556 59.6658 138.845 59.3563 138.851 58.969C138.851 58.9197 138.78 58.502 138.644 58.4583C138.623 58.4488 138.602 58.4602 138.587 58.4564C138.537 58.4412 138.454 58.3064 138.384 58.2172C138.228 58.0292 137.601 57.7596 137.478 57.7084C136.02 57.1046 133.328 56.8103 131.94 56.6983C130.485 56.5749 128.196 56.3832 127.645 56.3034C127.079 56.2237 126.464 56.1117 125.973 55.8933C125.483 55.6731 125.001 55.1776 124.856 54.6327C124.604 53.6454 124.928 52.4341 125.479 51.6443C126.926 49.5787 130.309 48.7965 132.84 48.4851C135.289 48.1813 139.247 48.1851 141.651 49.4553C142.023 49.6508 142.215 49.8369 142.133 50.2318C141.978 50.9722 141.414 51.4488 140.738 51.6595C140.028 51.8854 138.553 51.9709 137.907 52.0108C135.008 52.1721 131.503 52.0886 128.743 52.8366C128.526 52.8993 128.152 52.9942 128.029 53.1309C127.596 53.5961 128.832 53.729 129.098 53.7859C129.175 53.8011 129.193 53.8049 129.272 53.8125L135.374 54.5283ZM116.747 53.7195C116.842 54.5776 116.618 56.2028 116.582 56.4173C116.512 56.911 116.136 58.0482 116.075 58.1887C115.772 58.8779 115.475 59.4494 115.158 60.0132C114.617 60.9815 113.33 62.5174 112.563 63.1744C109.723 65.6159 105.322 67.0057 101.546 67.4632C98.9863 67.7708 96.0416 67.7233 93.3266 67.2259C92.3944 67.055 91.0047 66.7399 91.0047 66.7399C91.0047 66.7399 91.0085 67.2924 90.9629 67.6816C90.942 67.8562 90.8072 68.3233 90.7313 68.4752C90.532 68.8796 90.2092 69.0884 89.7402 69.1776C89.1707 69.2859 88.5688 69.3181 88.0429 69.0979C87.181 68.7353 86.8696 67.9322 86.7215 67.0114C86.6 66.269 86.4709 64.9818 86.4709 64.9818C86.4709 64.9818 85.8273 64.6799 85.2881 64.4122C83.6363 63.6015 82.0643 62.6238 80.6917 61.6137C80.3119 61.3346 78.6773 59.9734 78.3146 59.6335C77.3027 58.6842 76.3933 57.733 75.7003 56.5142C75.1611 55.563 75.0073 54.7162 75.4155 53.71C75.9813 52.305 78.009 51.2456 79.3968 50.6419C80.4183 50.1957 83.5832 49.1667 84.9008 48.9787C85.5216 48.8914 86.4861 48.7205 86.5449 48.6807C86.5696 48.6636 86.5867 48.6484 86.6038 48.6275C86.6342 48.5838 86.6854 47.1922 86.674 46.6834C86.6627 46.1821 87.0481 42.8976 87.1696 42.2027C87.236 41.8249 87.5227 40.3782 87.8151 39.9985C88.005 39.7422 88.3429 39.7593 88.6201 39.932C90.1294 40.8623 90.587 44.0975 90.699 45.7436C90.7674 46.746 90.7996 48.2535 90.7996 48.2535C90.7996 48.2535 92.5311 48.2041 93.5981 48.2307C94.6329 48.2554 95.772 48.4187 96.8485 48.5895C98.225 48.806 100.906 49.3869 102.444 50.1634C103.71 50.7995 104.895 51.876 105.278 53.0132C105.635 54.0555 105.582 54.7751 105.039 55.7168C104.429 56.78 103.273 57.5679 102.102 57.6343C101.753 57.6571 100.441 57.4824 100.036 57.173C99.8767 57.0477 99.8843 56.8236 100 56.6736C100.044 56.6186 100.655 56.2996 101.018 56.1079C101.198 56.0091 101.35 55.9047 101.491 55.7775C101.792 55.5117 102.062 55.2231 102.032 54.8852C101.99 54.4447 101.521 54.1713 101.073 53.9967C98.973 53.1689 94.7829 52.4797 92.7533 52.3601C91.9597 52.3145 90.8338 52.2747 90.8338 52.2747L91.0711 63.3889C91.0711 63.3889 92.0033 63.5674 92.7381 63.6851C93.1615 63.7477 94.948 63.9072 95.4208 63.9186C99.0356 64.0135 103.07 63.6927 106.389 62.1339C107.845 61.4524 109.182 60.6075 110.192 59.4607C111.526 57.9381 112.225 55.863 112.039 53.6929C111.836 51.3178 110.156 48.506 108.815 46.7935C105.271 42.2635 99.197 38.5423 93.8544 36.3589C88.3979 34.1319 83.006 32.8466 77.2154 32.632C75.7231 32.5789 72.467 32.6548 70.8248 33.1067C70.5875 33.1712 70.352 33.251 70.1337 33.2984C69.9609 33.3402 69.6913 33.4541 69.6154 33.513C69.5755 33.549 69.5319 33.5927 69.5319 33.5927C69.5319 33.5927 69.6344 33.6478 69.7312 33.6914C69.9059 33.7674 70.6406 33.8111 71.0203 33.8794C71.3583 33.944 71.7152 34.1224 71.8519 34.3711C71.9848 34.6047 72.0038 34.7888 71.8424 34.9844C71.4684 35.4381 70.0653 35.3584 69.4483 35.2635C68.8066 35.159 68.0073 34.9673 67.8592 34.411C67.6902 33.756 67.9997 33.1162 68.3395 32.5219C69.0192 31.3353 69.9894 30.7183 71.4152 30.3329C73.4372 29.7804 75.9908 29.3931 77.9007 29.3209C82.2238 29.1614 86.3152 29.9095 90.5016 31.1739C92.8976 31.8916 96.0397 33.101 98.3351 34.2003C99.9811 34.9882 102.58 36.4425 104.04 37.3918C104.5 37.6936 107.194 39.6587 107.611 40.0042C108.485 40.7124 109.628 41.7319 110.452 42.5464C112.05 44.1203 114.04 46.5334 115.008 48.4471C115.238 48.9085 115.42 49.3603 115.718 49.8901C115.821 50.0704 116.265 51.1621 116.337 51.4773C116.409 51.7886 116.516 52.2462 116.531 52.2633C116.561 52.4227 116.763 53.3568 116.747 53.7195ZM86.4709 52.4474C86.4709 52.4474 84.8191 52.5632 83.6838 52.6885C82.2371 52.8423 79.5183 53.3094 77.952 53.8676C77.4793 54.0308 76.5243 54.4295 76.4408 54.908C76.3572 55.4092 76.6648 55.7965 77.0122 56.2009C77.2116 56.4344 78.345 57.5166 78.6621 57.7805C79.993 58.8836 82.6927 60.5885 84.6843 61.4163C85.364 61.6973 86.4956 62.0998 86.4956 62.0998C86.4956 62.0998 86.412 58.9026 86.4272 55.7547C86.4329 54.0897 86.4709 52.4474 86.4709 52.4474ZM120.846 48.5212C120.913 48.5326 121.015 48.563 121.103 48.5933C121.864 48.8819 122.177 49.5844 122.365 50.3514C122.8 52.1399 122.988 56.0908 123.058 57.6419C123.111 58.8 123.14 59.9468 123.189 61.0935C123.231 62.0656 123.309 63.3585 123.106 64.2717C123.032 64.6002 122.811 64.9761 122.494 65.1735C122.132 65.4033 121.308 65.4204 120.856 65.3273C119.74 65.0976 119.377 64.3856 119.219 63.2883C118.842 60.672 119.022 55.5364 119.246 53.3701C119.318 52.6582 119.591 50.3647 119.967 49.4059C120.097 49.0813 120.37 48.4282 120.846 48.5212ZM16.0605 60.5391C16.0605 60.5391 16.2446 60.8581 16.3889 61.0973C17.192 62.4263 18.4755 63.1876 20.0247 63.2655C21.6119 63.3452 23.6491 62.432 24.8129 61.627C28.1354 59.3316 29.884 55.1928 30.8352 51.2266C31.9572 46.577 32.0085 41.6711 30.67 37.1715C29.8935 34.5591 28.3822 31.2897 26.5121 29.3342C25.9539 28.7533 25.0996 27.9635 24.8566 27.6388C24.6041 27.3046 24.5414 27.0237 24.9287 26.7996C25.3369 26.5661 26.2292 27.0502 26.6754 27.3179C28.8606 28.6374 30.2884 29.9513 31.5832 31.8384C31.9098 32.315 33.2217 34.4585 33.4609 34.9065C34.9285 37.6595 35.6822 40.0592 36.0847 43.097C36.5935 46.9644 36.2689 51.3576 34.919 55.2345C34.3304 56.9356 33.421 58.688 32.4755 60.1632C32.2515 60.5107 30.8712 62.3523 30.7023 62.5326C30.2276 63.0301 29.0562 64.0382 28.5094 64.4768C25.7698 66.6601 22.8118 68.0917 19.5633 67.6968C17.7768 67.4784 16.3111 66.8899 14.8815 65.7355C14.3328 65.2875 13.4063 64.3553 13.0361 63.6908C12.7949 63.2655 12.495 62.7472 12.457 62.7415C12.4152 62.732 12.2557 62.8383 12.083 62.9598C11.9311 63.0642 11.2894 63.3604 10.9476 63.4857C8.71871 64.3116 6.22778 64.116 4.18112 62.7965C2.69644 61.8416 1.43958 60.0284 0.8852 58.3824C0.066916 55.9427 0.000465974 53.4157 0.334615 50.8203C0.904186 46.4157 2.50088 42.2445 4.87979 38.5499C6.38156 36.2222 8.3276 33.9231 10.6515 32.2751C10.9116 32.0871 12.3298 31.2689 12.6203 31.136C13.1443 30.891 13.8411 30.6651 14.2454 31.0923C14.4562 31.3144 14.4486 31.4948 14.2929 31.7872C14.0461 32.2409 13.4158 32.8561 13.0664 33.2244C12.7646 33.549 11.052 35.6337 10.6989 36.1216C10.3116 36.6418 8.57062 39.2353 8.34089 39.6321C6.14424 43.4121 4.39946 49.3983 4.56843 54.0422C4.6045 55.001 4.74689 56.3832 4.96333 57.285C5.25761 58.4982 5.98476 60.1423 7.07644 60.9094C8.22508 61.72 9.29018 61.6726 10.6666 61.1296C11.0312 60.9834 11.5514 60.7499 11.5514 60.7499C11.5514 60.7499 11.1508 59.7284 10.8888 58.9614C10.1673 56.8312 9.87873 53.4309 10.1426 51.0918C10.361 49.1743 10.7919 47.7048 11.6653 46.1821C12.3602 44.9614 13.2962 43.7653 14.4657 42.7742C15.5934 41.8192 17.3952 40.9858 18.9786 40.944C20.2962 40.9136 21.6594 41.4832 22.3523 42.6717C23.5541 44.7411 23.6301 48.0067 23.2921 50.1577C22.7833 53.4119 21.0879 56.4667 18.6406 58.538C17.7616 59.2823 16.0605 60.5391 16.0605 60.5391ZM19.3545 46.3625C19.3545 46.3625 19.3165 45.3942 19.2349 44.855C19.1665 44.3975 19.0754 44.0557 18.8571 43.7064C18.6179 43.3229 18.4337 43.0837 18.0559 43.0248C17.5907 42.9584 17.3344 43.2716 17.0458 43.7235C16.6604 44.3386 16.2769 45.4778 16.0491 46.1992C15.7206 47.2226 15.582 47.8529 15.4074 49.0167C15.1169 50.9286 14.8245 54.1789 15.1359 56.3908C15.1928 56.7724 15.2897 57.3286 15.2897 57.3286C15.2897 57.3286 15.7548 56.8103 16.0928 56.4496C16.237 56.292 16.9262 55.2706 16.987 55.1624C17.1066 54.9573 17.4237 54.4162 17.4692 54.3061C17.5376 54.1884 18.0331 53.129 18.1204 52.8822C18.2875 52.4076 18.5286 51.6766 18.7166 51.0937C19.1533 49.7515 19.0754 49.2559 19.3583 47.7656C19.3906 47.5947 19.4191 46.3606 19.3868 46.3606C19.3697 46.3568 19.3545 46.3625 19.3545 46.3625ZM36.5802 56.2294C36.5802 56.2294 36.9941 55.3048 37.3169 54.6042C37.6548 53.8695 39.3673 50.4539 40.0717 49.4876C40.8539 48.4092 42.3481 46.372 42.3614 46.3093C42.3937 46.0853 42.443 45.6866 42.6519 45.3677C42.8151 45.1132 43.2176 45.0069 43.6106 44.9822C44.0454 44.9576 44.4954 45.2765 44.6909 45.6316C45.0669 46.3074 45.7086 48.2288 45.8491 48.6883C46.599 51.2475 47.4078 56.0262 47.6736 58.4811C47.7419 59.1247 47.9584 62.4833 47.9755 63.2389C47.9907 63.7705 47.9755 64.6495 47.6698 65.0843C47.5559 65.2495 47.3394 65.3881 47.1287 65.3843C46.8458 65.3748 46.2743 64.9799 46.0256 64.7483C45.3346 64.099 44.8732 63.4402 44.7251 62.6333C44.5979 61.9308 44.4194 59.9183 44.4194 59.9183L41.4026 60.0379L39.7224 60.0664C39.7224 60.0664 39.5629 60.4556 39.4338 60.7803C39.1528 61.4751 38.9003 62.17 38.7921 62.5611C38.5718 63.3452 38.1485 64.9021 38.0478 65.1451C37.8352 65.6558 37.6491 65.952 37.1498 66.0184C36.5973 66.0906 36.2176 66.1304 35.817 65.914C35.0633 65.5039 34.7215 64.6363 34.5924 63.742C34.3684 62.2175 34.9892 60.9891 35.6272 59.1817C35.8949 58.4222 35.5265 58.1678 34.8905 57.1806C34.8089 57.0534 34.7234 56.9205 34.7082 56.8179C34.6855 56.7173 34.7842 56.4534 34.9228 56.3433C34.9665 56.3072 34.9778 56.3034 35.0576 56.2996L36.5802 56.2294ZM41.2109 56.0832C41.2109 56.0832 41.4748 56.087 41.7444 56.0832C42.6082 56.0718 44.0549 55.9142 44.0549 55.9142C44.0549 55.9142 43.8935 54.6479 43.7625 53.841C43.6733 53.3018 43.6031 52.9676 43.4853 52.5405C43.4322 52.3506 43.2993 51.8095 43.1607 51.5969C43.136 51.5532 43.0999 51.5095 43.0999 51.5095C43.0999 51.5095 42.4013 52.8499 42.0102 53.7821C41.6988 54.5226 41.5431 55.0751 41.3267 55.5231C41.2754 55.6275 41.2166 55.7718 41.2109 55.8952C41.2033 55.9826 41.2109 56.0832 41.2109 56.0832ZM58.3208 57.6609C58.3588 57.6628 58.4157 57.6818 58.467 57.7027C59.084 57.9704 59.084 59.0639 58.934 59.5785C58.5334 60.9321 57.2424 62.3276 56.2115 63.0244C55.5963 63.4326 54.3376 64.0135 53.4358 64.1844C52.027 64.454 50.7778 64.0838 50.024 62.9503C49.3424 61.9251 49.0406 60.6568 48.9874 59.4645C48.8317 56.0433 49.9177 51.0444 51.2562 48.187C51.4366 47.8035 52.3194 46.0189 53.1415 45.7303C53.9598 45.4436 54.3186 46.3948 54.4002 47.1067C54.5047 48.0219 54.2104 49.2369 53.9769 50.2185C53.5668 51.9367 52.9763 54.6232 52.8358 55.3921C52.6877 56.2066 52.346 57.9495 52.4694 58.8399C52.532 59.3127 52.6232 59.5481 52.9839 59.5196C53.1491 59.5044 55.4615 58.4488 56.7241 57.9799C57.1968 57.8052 57.7854 57.6172 58.3208 57.6609ZM71.007 47.3061C71.5329 47.9611 71.7703 48.7281 71.8291 49.5711C71.888 50.4217 71.6146 51.238 71.138 51.8854C70.3198 52.9885 68.9566 53.5391 67.5877 53.6416C67.3997 53.653 66.2834 53.6872 65.9967 53.598C65.9454 53.579 65.9132 53.56 65.8828 53.5676C65.8505 53.5714 65.6626 54.3365 65.6284 54.6042C65.5069 55.544 65.3569 56.2085 65.2487 56.947C65.1575 57.5337 65.093 58.164 65.0398 58.7906C64.7304 62.4434 64.8386 64.247 65.1423 67.8221C65.1632 68.0404 65.1746 68.2891 65.1423 68.4391C65.0607 68.8682 64.7987 69.1681 64.3753 69.2764C63.1071 69.6067 61.8939 68.3612 61.2731 67.3626C59.8207 65.0312 60.2953 60.2657 60.713 57.9115C60.8839 56.9375 61.33 54.7732 61.6395 53.9948C61.8047 53.5752 62.0667 52.7512 62.0477 52.7113C62.0306 52.6753 61.3661 52.4227 60.7567 52.1911C60.5269 52.1076 59.7599 51.7127 59.4314 51.5095C58.7556 51.088 58.2923 50.7444 57.8253 50.2204C57.6829 50.0571 57.2101 49.3585 57.1399 49.2028C56.7621 48.3484 56.7393 47.6042 57.0753 46.6967C57.1608 46.4631 57.6316 45.4835 57.9449 45.5138C58.3967 45.5537 58.2961 46.2961 58.4157 46.6796C58.4537 46.8125 58.5809 47.0327 58.6815 47.1523C59.3061 47.8833 61.4022 48.694 62.2603 48.9484C62.3837 48.9863 63.726 49.3926 63.9235 49.3034C63.9747 49.2787 64.231 48.8269 64.3943 48.5554C64.4817 48.4016 64.5804 48.2877 64.6886 48.1718C65.505 47.2985 66.7106 46.4726 67.9124 46.2277C68.4402 46.1214 69.4768 46.2106 70.0008 46.5068C70.1223 46.5732 70.5134 46.727 71.007 47.3061ZM67.0561 49.6262C67.9598 49.5711 68.518 49.5274 69.2243 49.2237C69.6135 49.0585 70.0653 48.6826 69.8432 48.2307C69.7084 47.9554 69.2319 47.8586 68.9528 47.8795C68.0073 47.9421 67.3276 48.6332 67.003 49.5559C66.9897 49.592 66.9935 49.6262 67.0561 49.6262ZM118.904 45.1892C118.758 45.3411 118.604 45.7151 118.443 45.9866C118.357 46.1309 118.198 46.315 118.094 46.3891C117.723 46.6587 117.412 46.672 117.051 46.3587C116.552 45.922 116.263 45.2386 116.242 44.576C116.231 44.2855 116.278 43.9684 116.227 43.7216C116.134 43.3115 115.72 42.89 115.498 42.4951C115.236 42.0281 115.024 41.2212 114.999 40.701C114.906 39.0739 115.772 37.5778 116.892 36.395C118.019 35.2008 119.497 34.206 121.103 33.532C122.62 32.894 124.845 32.4612 126.514 33.0364C127.055 33.2225 127.812 33.6801 128.192 34.1585C128.272 34.2591 128.338 34.3711 128.422 34.4224C128.494 34.468 128.688 34.4869 128.843 34.5154C129.377 34.6066 130.142 35.0072 130.455 35.273C131.08 35.8121 131.427 36.3286 131.587 37.0747C131.906 38.5765 131.036 40.2263 130.043 41.2288C128.342 42.9584 126.664 44.1716 124.49 45.0183C123.537 45.3885 122.05 45.7341 120.966 45.6373C120.63 45.6088 120.283 45.5233 119.956 45.4987C119.791 45.4835 119.178 45.3316 119.115 45.2822C119.03 45.2234 118.927 45.1683 118.904 45.1892ZM122.527 42.5464C123.949 42.4514 125.282 42.0414 126.519 41.3617C127.736 40.6858 129.523 39.3682 129.341 37.817C129.282 37.3177 128.953 36.938 128.536 36.7595C127.991 36.5241 127.71 36.5659 127.015 36.769C126.514 36.9171 126.288 37.0044 125.813 37.2759C124.416 38.0809 122.439 39.8048 121.367 41.1794C121.118 41.5022 120.867 41.8648 120.672 42.1116C120.545 42.2635 120.452 42.4059 120.461 42.4439C120.505 42.6014 121.97 42.5862 122.527 42.5464ZM117.524 41.2155C117.524 41.2155 117.995 40.513 118.39 39.9795C119.111 39.0093 120.414 37.6614 121.393 36.8279C121.695 36.5735 122.048 36.283 122.048 36.283C122.048 36.283 121.494 36.3399 121.182 36.4045C120.438 36.5488 119.347 37.2702 118.8 37.7354C117.9 38.4986 116.911 39.7441 117.357 40.8472C117.423 41.0066 117.524 41.2155 117.524 41.2155Z" fill="#4B4848"/>
</g>
</svg>
