<svg width="148" height="116" viewBox="0 0 148 116" fill="none" xmlns="http://www.w3.org/2000/svg">
<mask id="mask0_8087_3566" style="mask-type:luminance" maskUnits="userSpaceOnUse" x="0" y="0" width="148" height="116">
<path d="M147.849 0.00012207H0V115.94H147.849V0.00012207Z" fill="white"/>
</mask>
<g mask="url(#mask0_8087_3566)">
<path d="M99.6832 3.81482C99.9989 3.80716 100.313 3.7995 100.629 3.79184C102.018 3.74209 103.419 3.78803 104.795 3.61579C106.352 3.42251 107.96 3.62345 109.47 3.04934C109.634 3.03212 109.799 3.01681 109.965 2.99959C110.057 3.00725 110.147 3.01298 110.239 3.02064C110.486 2.99002 110.763 3.09144 110.964 2.85989C112.074 2.80822 113.161 2.67427 114.066 1.93367C115.268 1.37297 116.464 0.804607 117.672 0.25921C117.903 0.153959 118.123 -0.150316 118.426 0.0908075C118.724 0.330016 118.674 0.636204 118.535 0.942391C118.32 1.36723 118.248 1.83225 118.213 2.29536C118.007 5.00895 117.691 7.70531 116.912 10.3251C116.998 10.8878 116.468 11.2877 116.518 11.8408C116.485 11.8905 116.478 11.9441 116.493 12.0015L116.485 12.0092C115.909 12.9793 115.557 14.0434 115.184 15.0997C114.024 17.4267 112.662 19.6217 111.008 21.635C110.7 21.7957 110.486 22.0311 110.415 22.3832C110.296 22.3946 110.235 22.4578 110.235 22.5783L110.231 22.5841C109.56 22.6664 109.361 23.2807 109.039 23.7132C108.549 24.3715 107.594 24.5495 107.328 25.4163H107.33C107.043 25.422 106.924 25.6365 106.804 25.8469C104.911 27.4142 102.908 28.8131 100.678 29.8694C99.8631 30.367 98.6766 30.1048 98.1197 31.1267C97.691 31.1076 97.3312 31.2703 97.0175 31.5515C96.7992 31.5515 96.5811 31.5382 96.3668 31.5612C96.1869 31.5803 95.963 31.6033 95.9573 31.8501C95.9535 32.0299 96.1257 32.1065 96.273 32.1601C97.4729 32.5964 98.6766 33.029 99.8784 33.4614C102.688 34.8048 105.327 36.4104 107.686 38.4561C107.763 38.5116 107.841 38.5652 107.918 38.6207C107.933 38.7394 108.002 38.7967 108.121 38.7948L108.126 38.7987C108.138 39.2503 108.44 39.3843 108.821 39.4321L108.834 39.4454C108.834 39.5623 108.894 39.6196 109.01 39.6196L109.028 39.6349C109.089 39.6923 109.15 39.7498 109.211 39.8072L109.223 39.8167C109.284 39.876 109.343 39.9373 109.405 39.9966L109.416 40.0081C109.477 40.0675 109.537 40.1286 109.598 40.188L109.607 40.1975C109.667 40.2588 109.728 40.3181 109.787 40.3794L109.797 40.3889C109.854 40.4501 109.914 40.5114 109.971 40.5727L109.984 40.586C110.042 40.6453 110.101 40.7047 110.159 40.764L110.168 40.7755C110.222 41.1525 110.358 41.4529 110.806 41.4663L110.811 41.474C110.863 41.5543 110.914 41.6347 110.966 41.717C111.018 41.7801 111.069 41.8452 111.121 41.9083C111.161 42.1284 111.297 42.251 111.51 42.2949C111.588 42.406 111.669 42.5169 111.747 42.6279C111.718 42.76 111.779 42.8346 111.902 42.8671C111.961 42.9284 112.019 42.9896 112.078 43.0509C112.116 43.2652 112.245 43.3953 112.455 43.445C114.633 46.3366 116.353 49.4885 117.773 52.8106C117.821 52.9215 117.825 53.0517 117.85 53.1722C117.829 53.2928 117.878 53.3655 117.995 53.398C118.032 53.442 118.045 53.4899 118.039 53.5474C118.03 54.307 118.623 54.0909 119.004 54.0946C121.514 54.1157 124.027 54.1635 126.536 54.0909C130.478 53.976 134.339 54.2343 137.949 56.0331C138.929 56.4829 139.778 57.1259 140.601 57.8091C141.005 58.1765 141.319 58.6683 141.926 58.7486L141.933 58.7564C141.994 58.8157 142.056 58.875 142.117 58.9343L142.127 58.9439C142.188 59.0032 142.249 59.0625 142.313 59.1238L142.32 59.1314C142.381 59.1927 142.442 59.2538 142.503 59.3151L142.511 59.3228C142.572 59.384 142.632 59.4453 142.693 59.5065L142.7 59.5161C142.761 59.5773 142.821 59.6386 142.883 59.6997L142.889 59.7055C142.911 59.9945 143.026 60.2049 143.35 60.2299C143.401 60.2854 143.451 60.3408 143.503 60.3964C143.533 60.7274 143.723 60.9322 144.023 61.049C145.514 63.1865 146.691 65.4637 147.321 68.0166C147.837 70.1083 147.955 72.1865 147.735 74.3412C147.481 76.8367 146.706 79.1312 145.585 81.3281C145.15 82.1816 144.554 82.9509 144.029 83.7585C143.964 83.8178 143.899 83.8791 143.835 83.9384C143.782 84.0053 143.728 84.0723 143.673 84.1393C143.367 84.2024 143.267 84.4168 143.263 84.7L143.256 84.7115C143.143 84.721 143.083 84.7804 143.082 84.8971L143.073 84.9066C142.265 85.5516 141.421 86.1582 140.788 86.9964L140.775 87.0117C140.618 87.004 140.462 86.9945 140.407 87.1935C139.696 87.7006 138.988 88.2058 138.278 88.713C137.393 88.9694 136.508 89.2297 135.804 89.8727C134.799 90.1425 133.796 90.4124 132.792 90.6802C131.808 90.4525 130.832 90.7434 129.85 90.7357C125.296 90.7013 120.741 90.7166 116.185 90.7281C115.678 90.7281 115.069 90.5692 114.799 91.2486C114.795 91.526 114.862 91.75 114.69 92.0772C113.125 95.0243 111.091 97.6345 109.005 100.212C108.712 100.296 108.513 100.471 108.444 100.779L108.438 100.79C108.385 100.859 108.329 100.928 108.276 100.995C108.214 101.062 108.153 101.127 108.09 101.192C107.969 101.202 107.91 101.27 107.906 101.389C107.788 101.401 107.724 101.464 107.719 101.584C107.657 101.649 107.594 101.715 107.533 101.78C107.15 101.78 106.959 101.969 106.961 102.352C106.842 102.361 106.779 102.424 106.769 102.543C106.651 102.553 106.588 102.616 106.578 102.734C106.46 102.744 106.396 102.807 106.387 102.926C106.322 102.987 106.255 103.05 106.19 103.111C106.113 103.167 106.037 103.222 105.962 103.28C103.528 105.647 100.805 107.645 97.8958 109.375C95.9152 110.552 93.8637 111.595 91.6611 112.366C90.5148 112.768 89.4431 113.443 88.2318 113.706C86.7468 114.025 85.3516 114.706 83.8092 114.791C82.7643 114.963 81.7176 115.129 80.6727 115.307C80.3359 115.365 79.9666 115.365 79.7656 115.722C79.5858 115.719 79.4059 115.715 79.2241 115.711C78.6576 115.409 78.1238 115.436 77.6319 115.874C77.5343 115.876 77.4349 115.878 77.3353 115.879C77.2434 115.778 77.1555 115.793 77.0694 115.887C75.0523 115.883 73.0373 115.881 71.0202 115.878C70.7714 115.654 70.4595 115.594 70.1456 115.564C68.144 115.368 66.1327 115.231 64.1979 114.605C64.1214 114.58 63.9951 114.704 63.8917 114.76C62.6249 114.442 61.3581 114.125 60.0912 113.807C59.1841 113.095 58.1202 112.806 57.0026 112.664C53.2249 111.07 49.6215 109.164 46.3529 106.671C45.2086 105.798 44.135 104.832 43.027 103.909C43.0404 103.779 42.9792 103.705 42.8509 103.684L42.6558 103.496C42.6443 103.377 42.5772 103.316 42.4586 103.312C42.3917 103.251 42.3266 103.192 42.2595 103.131L42.2577 103.129C42.1926 103.067 42.1295 103.008 42.0644 102.947L42.0587 102.941C41.9956 102.88 41.9323 102.819 41.8712 102.759L41.8654 102.754C41.8023 102.692 41.741 102.633 41.6779 102.572L41.6702 102.564C41.6071 102.501 41.542 102.436 41.4789 102.373C41.3545 102.248 41.2301 102.124 41.1057 101.998C41.0425 101.933 40.9775 101.869 40.9143 101.804L40.9066 101.797C40.8473 101.734 40.7861 101.669 40.7268 101.605L40.7229 101.602C40.6617 101.538 40.6004 101.475 40.5392 101.41L40.5354 101.406C40.476 101.339 40.4167 101.27 40.3593 101.204C40.2962 101.138 40.2349 101.073 40.1718 101.008C40.1661 100.89 40.1029 100.825 39.9843 100.815C39.923 100.748 39.8617 100.683 39.8024 100.616C39.7871 100.488 39.7182 100.425 39.5863 100.438C37.9213 98.5263 36.354 96.5399 35.0049 94.3909C34.3293 93.3134 33.7169 92.1978 33.074 91.0993C32.9056 90.4965 32.4041 90.7319 32.0444 90.7299C26.6479 90.7031 21.2532 90.6975 15.8567 90.686C13.6904 90.5118 11.6715 89.8994 9.78651 88.7934C8.58089 88.0872 7.31978 87.4786 6.29405 86.5045C6.29405 86.3649 6.21942 86.2998 6.08737 86.2864C5.61469 85.8176 5.14011 85.3487 4.66743 84.8798C4.63872 84.7 4.54496 84.5871 4.3555 84.5736C3.38718 83.4293 2.46479 82.2907 2.03231 80.7789C1.79501 79.9522 1.09844 79.2632 0.776932 78.4213C0.711867 76.919 0.256414 75.4838 0.0286865 74.0102C0.0286865 72.9367 0.0286865 71.863 0.0286865 70.7895C0.204745 69.9475 0.380802 69.1074 0.55686 68.2653C0.279378 67.7218 0.621925 67.2607 0.755882 66.7708C1.21899 65.6972 1.68019 64.6255 2.14329 63.552L2.16243 63.5329C2.27534 63.5022 2.32509 63.4333 2.29639 63.3166C3.06759 62.3426 3.52688 61.1599 4.36698 60.2317C4.49519 60.2317 4.55835 60.1628 4.57748 60.0424C4.64255 59.9715 4.70761 59.8987 4.7746 59.828C5.14776 59.4548 5.52093 59.0836 5.8941 58.7104C6.29405 58.6129 6.55048 58.3488 6.72845 57.9928C9.1282 56.0256 11.8705 54.8257 14.9266 54.3224C16.293 54.4449 17.6249 54.0602 18.997 54.0869C22.587 54.1558 26.179 54.1157 29.769 54.1004C30.1345 54.1004 30.6341 54.3052 30.7891 53.7042C32.4042 49.3621 34.7178 45.4314 37.707 41.893C38.1338 41.6768 38.459 41.3648 38.6294 40.9075L38.6313 40.9056C38.7557 40.8864 38.8188 40.8138 38.8265 40.6894C39.0332 40.4673 39.2398 40.2473 39.4484 40.0253C39.7642 39.9411 39.9633 39.7421 40.0455 39.4244C40.1661 39.3039 40.2885 39.1852 40.411 39.0646C40.4798 38.9958 40.5507 38.9287 40.6195 38.8599C40.7804 38.7164 40.9411 38.5729 41.0999 38.4293C41.5132 38.3432 41.7257 38.0294 41.9305 37.706C44.0144 35.8937 46.2821 34.3666 48.7297 33.0806C50.4846 32.1583 52.3619 31.5688 54.1818 30.8244C55.242 30.7536 56.2562 30.5028 57.2169 30.0436C57.7814 29.9651 58.346 29.8867 58.9105 29.8083C61.7312 29.5059 64.5501 29.5001 67.3708 29.8083C67.9986 29.8847 68.6262 29.9595 69.2539 30.0359C70.2299 30.6044 71.3915 30.5622 72.4114 30.9967C72.6621 31.1038 72.9549 31.01 72.8821 30.6292C72.4898 28.5796 72.7329 26.5129 72.6851 24.4537C73.1788 20.3968 74.7882 16.8641 77.6472 13.9209C77.808 13.8635 77.8558 13.7276 77.8826 13.5784C78.8624 13.1134 79.3963 12.1622 80.1809 11.4829C82.0678 9.67831 84.3872 8.53393 86.6262 7.26707C86.8692 7.1293 87.1276 7.00874 87.4242 7.05658C88.9015 6.49395 90.3808 5.93133 91.8581 5.3668C93.1977 5.07975 94.4703 4.50948 95.8519 4.39274C95.919 4.39274 95.986 4.39657 96.0529 4.39657C96.1103 4.39657 96.1639 4.38891 96.2175 4.36978C97.3887 4.29897 98.5676 4.26452 99.6794 3.81672L99.6832 3.81482ZM44.9407 101.228C44.9655 101.345 45.0325 101.404 45.155 101.393C46.0085 102.168 46.8849 102.916 47.8169 103.601C49.7764 105.044 51.7208 106.506 53.9407 107.542C53.9637 107.917 54.2315 107.924 54.509 107.919H54.5129C54.5875 108.074 54.7042 108.146 54.8764 108.119L54.8917 108.125C54.9779 108.273 55.1118 108.317 55.2745 108.299H55.2783C55.3529 108.466 55.4812 108.525 55.6533 108.495H55.6591C55.862 108.749 56.1051 108.908 56.4476 108.843C56.6256 108.967 56.7901 109.159 56.9872 109.203C58.5315 109.551 59.9304 110.305 61.4423 110.743C62.2862 111.304 63.2833 111.413 64.2304 111.618C65.769 111.949 67.2847 112.425 68.875 112.473C68.9362 112.477 68.9955 112.471 69.0548 112.454C69.3592 112.534 69.6614 112.678 69.9658 112.682C72.155 112.712 74.3442 112.714 76.5354 112.72C76.7517 112.72 76.987 112.735 77.1382 112.519C77.6357 112.506 78.1314 112.492 78.629 112.479C79.6069 112.395 80.6498 112.641 81.5071 111.928C82.2956 111.928 83.0495 111.727 83.8017 111.518C84.9843 111.537 86.1134 111.375 87.0702 110.596C87.4605 110.496 87.8643 110.429 88.2394 110.29C90.9912 109.266 93.6686 108.089 96.1946 106.569C98.9196 104.931 101.474 103.077 103.754 100.853C103.964 100.874 104.125 100.819 104.167 100.582C104.632 100.111 105.097 99.64 105.564 99.1693C105.725 99.1482 105.818 99.0679 105.811 98.8956C107.633 96.7867 109.387 94.6224 110.834 92.236C111.697 90.8122 112.683 89.444 113.138 87.804C113.523 87.5973 113.94 87.6375 114.351 87.6375C119.293 87.6375 124.235 87.6279 129.177 87.6413C131.72 87.6489 134.114 87.1572 136.416 86.0033C138.747 84.8359 140.598 83.1308 142.029 81.0525C143.25 79.2785 143.998 77.2156 144.418 75.0704C144.632 74.8484 144.624 74.5938 144.53 74.3259C144.65 73.0419 144.655 71.7559 144.524 70.4718C144.637 70.2652 144.62 70.0757 144.446 69.9093C143.806 66.79 142.59 63.8945 140.316 61.6632C137.309 58.7123 133.592 57.1987 129.335 57.1757C125.288 57.1546 121.239 57.1757 117.189 57.1661C116.715 57.1661 116.24 57.0933 115.766 57.0532C114.878 53.8535 113.437 50.9007 111.736 48.0685C110.689 46.3251 109.286 44.8439 108.052 43.2364C107.625 42.4576 107.062 41.8261 106.201 41.516C101.691 37.3863 96.4242 34.9063 90.331 34.2192C88.848 33.913 87.3668 33.9437 85.8836 34.2231C85.3134 34.2289 84.7642 34.5522 84.2551 34.5579C82.242 34.579 80.3704 35.176 78.4816 35.733C77.718 35.9588 77.0234 36.0104 76.2235 35.6487C75.6609 35.3923 75.0924 35 74.4208 34.9867C73.4716 34.2327 72.3827 33.8977 71.181 33.8958C69.6519 33.2969 68.0061 33.2356 66.4254 32.8739C66.1805 32.6405 65.9164 32.5351 65.6045 32.7572L64.7031 32.6788C63.6602 32.4377 62.6154 32.4395 61.5724 32.6788C61.272 32.7055 60.9734 32.7342 60.673 32.761C60.363 32.5448 60.0969 32.6347 59.8501 32.8758C59.0578 33.0826 58.2101 32.9734 57.437 33.2969C56.2065 33.4614 54.976 33.626 53.9484 34.4221C50.0062 35.6239 46.6668 37.8514 43.5743 40.5037C43.515 40.565 43.4556 40.6262 43.3983 40.6894L43.381 40.7027C43.2643 40.6989 43.2068 40.7564 43.205 40.8731L43.184 40.8922C43.0729 40.8864 43.0117 40.9362 43.0098 41.0511L42.9792 41.0797C42.8681 41.074 42.8145 41.1257 42.8165 41.2366L42.7802 41.2672C42.6711 41.2596 42.6175 41.3113 42.6213 41.4204L42.583 41.4587C42.474 41.451 42.4222 41.5027 42.43 41.6117L42.3917 41.65C42.2825 41.6424 42.2328 41.694 42.2385 41.8012L42.1984 41.8414C42.0893 41.8337 42.0395 41.8855 42.0472 41.9944L42.0089 42.0327C41.8998 42.027 41.8501 42.0768 41.8577 42.1859L41.8194 42.2242C41.7104 42.2184 41.6587 42.2701 41.6664 42.3792L41.6301 42.4155C41.519 42.4097 41.4674 42.4614 41.475 42.5724L41.4406 42.6088C41.3277 42.6088 41.2798 42.6681 41.2874 42.7772L41.2626 42.802C41.1477 42.802 41.0942 42.8614 41.0981 42.9762L41.0808 42.9973C40.966 43.0011 40.9104 43.0604 40.9104 43.1753L40.8951 43.1906C40.834 43.2499 40.7727 43.3092 40.7096 43.3685C38.8648 45.4505 37.2936 47.7183 35.9502 50.162C34.7829 52.2862 33.8606 54.5022 33.074 56.7852C33.053 56.8044 33.0185 56.8217 33.0165 56.8407C33.0127 56.8886 33.0262 56.9384 33.0319 56.9881C33.0165 57.036 33.0127 57.0858 33.0204 57.1354C28.3032 57.1469 23.5879 57.189 18.8707 57.1622C14.6166 57.1374 10.9443 58.5707 7.76949 61.3609C7.60875 61.3034 7.55708 61.357 7.61257 61.5177C7.2662 61.9005 6.91982 62.2813 6.57154 62.664C6.5103 62.6928 6.44906 62.7214 6.38781 62.7502C5.80223 63.6707 5.14011 64.5529 4.6483 65.5212C3.19964 68.3629 2.94321 71.4096 3.25896 74.5346C3.13458 74.6111 3.16711 74.6724 3.28001 74.7222C3.58046 77.1257 4.44927 79.3092 5.8252 81.2956L5.94958 81.5462C6.37825 82.0055 6.80882 82.4649 7.23749 82.9241C7.26811 83.3604 7.49775 83.5997 7.9379 83.6303C9.35018 84.9736 10.9117 86.0855 12.7852 86.7036C12.9345 86.8433 13.0952 86.9409 13.3096 86.8663C13.5162 86.9236 13.721 86.983 13.9277 87.0405C14.0961 87.2586 14.3066 87.3466 14.5745 87.2471C14.8501 87.3006 15.1257 87.3542 15.4013 87.4078C15.5065 87.5475 15.6309 87.5762 15.7801 87.4786C16.7905 87.6566 17.8105 87.6375 18.8305 87.6413C24.2156 87.6566 29.5987 87.6681 34.9839 87.6814C35.269 87.9417 35.4278 88.2767 35.5732 88.6287C36.3005 90.3856 37.3224 92.0121 38.3481 93.5737C39.4944 95.3152 40.7612 97.0355 42.2768 98.5206C42.2653 98.6392 42.3208 98.7099 42.4337 98.7387L42.4433 98.7502L42.6213 98.9339L42.6328 98.9454C42.6901 99.0066 42.7476 99.0679 42.805 99.1272L42.8222 99.1444C42.8796 99.2038 42.937 99.2611 42.9945 99.3205L43.0117 99.3396C43.0117 99.4525 43.0691 99.5099 43.182 99.5137L43.1973 99.529C43.293 100.065 43.6068 100.382 44.1446 100.476L44.1599 100.492C44.1637 100.603 44.2212 100.66 44.3321 100.662L44.3512 100.681C44.3551 100.794 44.4163 100.85 44.5273 100.851L44.5446 100.869C44.5502 100.982 44.6095 101.041 44.7225 101.043L44.7379 101.056C44.801 101.114 44.8621 101.171 44.9254 101.228L44.9349 101.238L44.9407 101.228ZM78.6251 17.7674L78.6308 17.7597C78.5103 17.7731 78.4395 17.8305 78.4471 17.9607C78.3074 18.0009 78.2768 18.1042 78.2903 18.2305L78.2653 18.2764C78.1256 18.3415 78.0625 18.4525 78.0701 18.6036L78.0587 18.6286C77.8137 18.7357 77.676 18.906 77.718 19.1893L77.697 19.2447C77.5075 19.3233 77.4176 19.484 77.3277 19.6581C76.2388 21.7765 75.657 24.0404 75.5805 26.4019C75.502 28.8457 75.7298 31.2645 76.9047 33.4882C77.4769 34.4125 77.8329 33.3945 78.2941 33.3312C78.5467 33.3255 78.7763 33.2873 79.0213 33.1782C80.7685 32.4089 82.5347 31.7124 84.4158 31.3086C86.8692 30.7822 89.3724 30.5086 91.7931 29.8236C92.0687 29.745 92.3633 29.7623 92.5203 29.4656L92.5624 29.4599C95.3181 29.0179 97.8671 28.0246 100.232 26.5531C101.329 25.8068 102.55 25.2345 103.493 24.2681C104.697 24.0021 105.413 23.1314 106.075 22.1937C106.234 22.0445 106.394 21.8933 106.553 21.744C106.762 21.6981 106.911 21.589 106.955 21.3671C107.028 21.2828 107.101 21.1986 107.175 21.1145C108.088 20.4216 108.989 19.7213 109.253 18.5099C110.314 17.2354 111.169 15.8269 111.952 14.3707C112.815 13.3525 113.268 12.1546 113.502 10.8571C113.531 10.8303 113.542 10.7978 113.536 10.7576C114.128 9.72041 114.419 8.60091 114.472 7.41252C114.503 7.38573 114.514 7.35128 114.505 7.31301C115.025 6.81354 114.748 6.11888 114.918 5.52947C115.031 5.13716 114.589 5.08931 114.334 5.18883C113.552 5.49502 112.662 5.42422 111.927 5.88541C111.123 5.85287 110.428 6.40976 109.613 6.30642C109.391 6.29685 109.169 6.26814 108.949 6.28153C105.952 6.46716 102.954 6.64513 99.9588 6.85946C99.5397 6.89008 99.1339 7.09293 98.7206 7.21732C98.5924 7.23455 98.4642 7.24985 98.336 7.26707C97.3753 7.12164 96.3974 7.30152 95.5324 7.579C94.8818 7.78951 94.0226 7.43357 93.5517 8.19138L93.5575 8.18755C92.3633 8.20669 91.2898 8.6985 90.2163 9.1176C89.445 9.41805 88.5533 9.552 88.0021 10.2926C87.6978 10.4265 87.3936 10.5605 87.0893 10.6945C86.917 10.6772 86.7468 10.6677 86.6682 10.8724C85.6636 11.1824 84.6915 11.5518 84.016 12.4245C83.8724 12.6062 83.7308 12.788 83.5872 12.9698C82.3127 13.0253 81.7118 13.9534 81.109 14.8797C80.8526 15.1342 80.5981 15.3906 80.3417 15.6452C79.5303 16.0375 78.9811 16.646 78.7763 17.5396L78.784 17.532C78.6615 17.5607 78.6136 17.643 78.6251 17.7636V17.7674Z" fill="#4B4848"/>
<path d="M137.954 56.0348C134.345 54.2359 130.484 53.9775 126.541 54.0924C124.032 54.165 121.519 54.1172 119.009 54.0962C118.628 54.0924 118.035 54.3087 118.044 53.5489C118.459 53.8723 118.951 53.7957 119.422 53.7957C122.826 53.8015 126.23 53.79 129.636 53.8015C132.245 53.8092 134.741 54.3775 137.127 55.432C137.441 55.5717 137.782 55.6922 137.956 56.0348H137.954Z" fill="#4B4848"/>
<path d="M114.804 91.2455C115.074 90.5661 115.681 90.7269 116.19 90.725C120.744 90.7116 125.301 90.6982 129.855 90.7326C130.84 90.7403 131.813 90.4494 132.797 90.6772C131.679 90.9949 130.528 90.9719 129.386 90.9796C125.117 91.0025 120.848 90.9891 116.58 90.9872C115.976 90.9872 115.373 90.991 114.806 91.2455H114.804Z" fill="#4B4848"/>
<path d="M15.866 90.6839C21.2626 90.6954 26.6572 90.7012 32.0538 90.728C32.4136 90.728 32.9168 90.4945 33.0833 91.0973C32.6852 90.9327 32.2662 90.9921 31.8548 90.9882C26.8199 90.9385 21.7849 91.0897 16.752 90.9022C16.4497 90.8907 16.1033 90.9882 15.8641 90.6839H15.866Z" fill="#4B4848"/>
<path d="M30.7899 53.6991C30.6349 54.3001 30.1355 54.0934 29.77 54.0953C26.18 54.1106 22.588 54.1507 18.9979 54.0819C17.6259 54.0551 16.2939 54.4398 14.9275 54.3172C15.8595 53.8025 16.8891 53.8082 17.9033 53.8044C21.788 53.7891 25.6728 53.8005 29.5575 53.7929C29.969 53.7929 30.3785 53.7316 30.7899 53.6991Z" fill="#4B4848"/>
<path d="M67.3773 29.8039C64.5566 29.4959 61.7377 29.5016 58.917 29.8039C59.0204 29.6049 59.2212 29.5838 59.4049 29.561C62.0746 29.2222 64.7421 29.0213 67.3773 29.8039Z" fill="#4B4848"/>
<path d="M116.916 10.3261C117.697 7.70634 118.013 5.00997 118.218 2.29638C118.252 1.83327 118.325 1.36825 118.539 0.94342C118.83 2.26386 118.375 3.54028 118.281 4.83583C118.166 6.42034 117.822 7.98382 117.37 9.51476C117.282 9.81138 117.223 10.1424 116.916 10.3261Z" fill="#4B4848"/>
<path d="M72.6886 24.4493C72.7364 26.5084 72.4933 28.5752 72.8856 30.6248C72.9584 31.0056 72.6656 31.0993 72.4149 30.9921C71.3948 30.5577 70.2332 30.598 69.2573 30.0315C70.0764 29.9358 70.8208 30.265 71.5748 30.4831C72.3193 30.6974 72.6541 30.619 72.5451 29.7348C72.3517 28.1504 72.2695 26.5582 72.5086 24.9679C72.5374 24.7823 72.5086 24.5794 72.6886 24.4493Z" fill="#4B4848"/>
<path d="M109.473 3.05109C107.963 3.6252 106.356 3.42234 104.798 3.61754C103.424 3.78785 102.023 3.74384 100.632 3.79359C101.493 3.42425 102.425 3.49315 103.322 3.41469C105.368 3.23481 107.422 3.16591 109.473 3.05109Z" fill="#4B4848"/>
<path d="M63.896 114.762C63.9994 114.707 64.1238 114.582 64.2022 114.607C66.1369 115.233 68.1462 115.371 70.1499 115.566C70.4637 115.596 70.7756 115.656 71.0244 115.88C68.5902 115.88 66.2268 115.432 63.896 114.762Z" fill="#4B4848"/>
<path d="M107.331 25.4202C107.597 24.5532 108.55 24.3752 109.042 23.717C109.365 23.2826 109.562 22.6683 110.234 22.588C109.494 23.7648 108.558 24.7408 107.331 25.4221V25.4202Z" fill="#4B4848"/>
<path d="M99.8799 33.4622C98.678 33.0297 97.4763 32.5972 96.2745 32.1609C96.129 32.1073 95.9548 32.0308 95.9587 31.8508C95.9645 31.6021 96.1883 31.5811 96.3683 31.5619C96.5826 31.539 96.8027 31.5543 97.0189 31.5523C96.638 31.7934 96.4639 31.9849 97.0668 32.1895C98.0427 32.5207 99.0741 32.7445 99.8779 33.464L99.8799 33.4622Z" fill="#4B4848"/>
<path d="M91.868 5.36697C90.3907 5.92958 88.9114 6.49221 87.4341 7.05674C88.3181 6.14009 89.5736 6.02719 90.672 5.5813C91.0336 5.43585 91.4317 5.21196 91.868 5.36697Z" fill="#4B4848"/>
<path d="M79.7697 115.719C79.9705 115.361 80.3398 115.359 80.6767 115.304C81.7215 115.128 82.7683 114.959 83.8131 114.787C82.5521 115.476 81.1436 115.516 79.7697 115.719Z" fill="#4B4848"/>
<path d="M0.0297539 74.0098C0.257481 75.4834 0.712934 76.9206 0.777999 78.4209C0.270877 76.9932 -0.111858 75.5465 0.0297539 74.0098Z" fill="#4B4848"/>
<path d="M80.1852 11.4805C79.4006 12.158 78.8668 13.1109 77.887 13.576C78.4477 12.6517 79.0772 11.8039 80.1852 11.4805Z" fill="#4B4848"/>
<path d="M2.14242 63.5489C1.67931 64.6224 1.21812 65.6941 0.755005 66.7676C0.921495 65.5659 1.36164 64.4847 2.14242 63.5489Z" fill="#4B4848"/>
<path d="M140.798 86.994C141.431 86.1559 142.275 85.5473 143.083 84.9044C142.547 85.8479 141.736 86.4908 140.798 86.994Z" fill="#4B4848"/>
<path d="M114.065 1.93561C113.159 2.6762 112.073 2.81016 110.963 2.86183C111.948 2.39106 113.043 2.28198 114.065 1.93561Z" fill="#4B4848"/>
<path d="M57.2214 30.0391C56.2608 30.4985 55.2466 30.7511 54.1864 30.8199C55.1508 30.3778 56.1441 30.0411 57.2214 30.0391Z" fill="#4B4848"/>
<path d="M57.0056 112.666C58.1232 112.808 59.1872 113.097 60.0942 113.809C59.036 113.504 57.9911 113.166 57.0056 112.666Z" fill="#4B4848"/>
<path d="M98.1281 31.1265C98.6829 30.1026 99.8713 30.3649 100.687 29.8692C99.9766 30.5772 99.0121 30.7725 98.1281 31.1265Z" fill="#4B4848"/>
<path d="M115.187 15.0987C115.56 14.0424 115.912 12.9784 116.488 12.0081C116.27 13.1295 115.929 14.1974 115.187 15.0987Z" fill="#4B4848"/>
<path d="M99.6881 3.81448C98.5763 4.26228 97.3994 4.29673 96.2263 4.36753C96.6702 4.00393 97.2156 4.02115 97.7419 3.97523C98.3906 3.91781 99.0394 3.86806 99.6881 3.81256V3.81448Z" fill="#4B4848"/>
<path d="M135.81 89.8687C136.514 89.2258 137.399 88.9654 138.284 88.709C137.569 89.3272 136.684 89.5873 135.81 89.8687Z" fill="#4B4848"/>
<path d="M0.560782 68.2637C0.384726 69.1057 0.208667 69.9458 0.0326091 70.7879C0.0498325 69.9133 -0.223822 68.9775 0.560782 68.2637Z" fill="#4B4848"/>
<path d="M77.6384 115.873C78.1302 115.435 78.6622 115.408 79.2305 115.711C78.733 116.097 78.1762 115.885 77.6384 115.873Z" fill="#4B4848"/>
<path d="M141.932 58.7502C141.325 58.6698 141.011 58.178 140.607 57.8106C141.187 57.9273 141.645 58.2202 141.932 58.7502Z" fill="#4B4848"/>
<path d="M38.633 40.9024C38.4626 41.3598 38.1374 41.6717 37.7106 41.888C37.8599 41.4114 38.2005 41.1129 38.633 40.9024Z" fill="#4B4848"/>
<path d="M41.9337 37.7032C41.729 38.0266 41.5147 38.3404 41.1033 38.4265C41.2391 38.0247 41.551 37.8237 41.9337 37.7032Z" fill="#4B4848"/>
<path d="M6.73085 57.9903C6.55288 58.3463 6.29645 58.6104 5.89648 58.7079C6.04002 58.3137 6.34812 58.107 6.73085 57.9903Z" fill="#4B4848"/>
<path d="M110.418 22.3831C110.489 22.0329 110.703 21.7975 111.011 21.6348C110.862 21.9218 110.806 22.2835 110.418 22.3831Z" fill="#4B4848"/>
<path d="M108.828 39.4285C108.448 39.3806 108.145 39.2486 108.134 38.795C108.478 38.8831 108.7 39.1031 108.828 39.4285Z" fill="#4B4848"/>
<path d="M110.807 41.4663C110.359 41.4529 110.223 41.1525 110.169 40.7755C110.495 40.9018 110.715 41.1257 110.807 41.4663Z" fill="#4B4848"/>
<path d="M108.449 100.776C108.518 100.469 108.717 100.293 109.01 100.209C108.878 100.452 108.692 100.642 108.449 100.776Z" fill="#4B4848"/>
<path d="M106.968 102.352C106.968 101.969 107.157 101.778 107.54 101.779C107.467 102.088 107.278 102.279 106.968 102.352Z" fill="#4B4848"/>
<path d="M40.047 39.4238C39.9647 39.7396 39.7657 39.9404 39.45 40.0247C39.5265 39.7032 39.7255 39.5022 40.047 39.4238Z" fill="#4B4848"/>
<path d="M144.034 61.0452C143.733 60.9284 143.543 60.7237 143.513 60.3926C143.84 60.4883 143.932 60.7696 144.034 61.0452Z" fill="#4B4848"/>
<path d="M143.362 60.2295C143.039 60.2046 142.924 59.996 142.901 59.7051C143.159 59.7875 143.322 59.9539 143.362 60.2295Z" fill="#4B4848"/>
<path d="M106.805 25.8466C106.926 25.6362 107.045 25.4237 107.332 25.4161C107.198 25.6112 107.062 25.8007 106.805 25.8466Z" fill="#4B4848"/>
<path d="M143.274 84.6995C143.278 84.4163 143.377 84.202 143.684 84.1387C143.712 84.4469 143.521 84.5943 143.274 84.6995Z" fill="#4B4848"/>
<path d="M112.458 43.4472C112.247 43.3974 112.119 43.2673 112.081 43.053C112.274 43.12 112.377 43.273 112.458 43.4472Z" fill="#4B4848"/>
<path d="M111.514 42.2948C111.301 42.2489 111.165 42.1264 111.125 41.9083C111.32 41.9714 111.447 42.1035 111.514 42.2948Z" fill="#4B4848"/>
<path d="M140.416 87.1889C140.471 86.9918 140.629 86.9995 140.786 87.0071C140.664 87.0684 140.541 87.1277 140.416 87.1889Z" fill="#4B4848"/>
<path d="M4.35779 84.5723C4.54915 84.5858 4.64293 84.6967 4.66972 84.8785C4.48792 84.8575 4.4018 84.737 4.35779 84.5723Z" fill="#4B4848"/>
<path d="M77.8834 13.5762C77.8566 13.7256 77.8088 13.8614 77.6481 13.9189C77.6672 13.7639 77.6385 13.5762 77.8834 13.5762Z" fill="#4B4848"/>
<path d="M107.916 38.6193C107.84 38.5639 107.761 38.5104 107.685 38.4548C107.817 38.43 107.891 38.4893 107.916 38.6193Z" fill="#4B4848"/>
<path d="M77.0746 115.887C77.1607 115.793 77.2488 115.776 77.3406 115.879C77.2526 115.881 77.1646 115.885 77.0746 115.887Z" fill="#4B4848"/>
<path d="M109.596 40.1839C109.535 40.1246 109.476 40.0633 109.414 40.004C109.474 40.0633 109.535 40.1246 109.596 40.1839Z" fill="#4B4848"/>
<path d="M109.017 39.6175C108.9 39.6175 108.841 39.5601 108.841 39.4434C108.956 39.4434 109.015 39.5027 109.017 39.6175Z" fill="#4B4848"/>
<path d="M40.6238 38.8576C40.555 38.9266 40.4842 38.9935 40.4153 39.0624C40.4306 38.938 40.4994 38.8711 40.6238 38.8576Z" fill="#4B4848"/>
<path d="M108.126 38.7952C108.008 38.7952 107.939 38.7397 107.924 38.621C107.99 38.6784 108.059 38.7377 108.126 38.7952Z" fill="#4B4848"/>
<path d="M38.8328 40.6856C38.8252 40.81 38.7601 40.8827 38.6377 40.9019C38.6433 40.7755 38.7141 40.7086 38.8328 40.6856Z" fill="#4B4848"/>
<path d="M110.236 22.5799C110.236 22.4594 110.299 22.3962 110.416 22.3848C110.412 22.5035 110.353 22.5666 110.236 22.5799Z" fill="#4B4848"/>
<path d="M110.974 41.7177C110.923 41.6374 110.871 41.557 110.819 41.4747C110.946 41.5072 111.003 41.5856 110.974 41.7177Z" fill="#4B4848"/>
<path d="M143.848 83.9395C143.912 83.8801 143.977 83.819 144.041 83.7596C143.975 83.819 143.91 83.8801 143.848 83.9395Z" fill="#4B4848"/>
<path d="M143.092 84.8947C143.092 84.7799 143.152 84.7187 143.267 84.709C143.267 84.8259 143.209 84.887 143.092 84.8947Z" fill="#4B4848"/>
<path d="M6.08765 86.285C6.21968 86.2985 6.29432 86.3654 6.29432 86.5033C6.22542 86.4305 6.15653 86.3578 6.08765 86.285Z" fill="#4B4848"/>
<path d="M111.909 42.8702C111.785 42.8377 111.723 42.763 111.754 42.6309C111.806 42.7113 111.857 42.7917 111.909 42.8702Z" fill="#4B4848"/>
<path d="M39.5933 100.437C39.7253 100.424 39.7942 100.487 39.8095 100.615L39.5933 100.437Z" fill="#4B4848"/>
<path d="M118.003 53.3997C117.888 53.3672 117.837 53.2944 117.858 53.1739C117.905 53.2485 117.955 53.3231 118.003 53.3997Z" fill="#4B4848"/>
<path d="M39.8036 100.615C39.8648 100.682 39.926 100.747 39.9854 100.814C39.8647 100.803 39.8054 100.736 39.8036 100.615Z" fill="#4B4848"/>
<path d="M39.9946 100.816C40.1133 100.828 40.1764 100.891 40.1822 101.01C40.119 100.945 40.0579 100.88 39.9946 100.816Z" fill="#4B4848"/>
<path d="M108.287 100.992C108.34 100.923 108.396 100.854 108.449 100.787C108.461 100.908 108.402 100.973 108.287 100.992Z" fill="#4B4848"/>
<path d="M40.1763 101.01C40.2394 101.075 40.3006 101.14 40.3638 101.205C40.2451 101.194 40.182 101.13 40.1763 101.01Z" fill="#4B4848"/>
<path d="M108.096 101.187C108.157 101.122 108.218 101.057 108.281 100.992C108.277 101.113 108.218 101.18 108.096 101.187Z" fill="#4B4848"/>
<path d="M40.3674 101.203C40.4268 101.27 40.4861 101.339 40.5435 101.406C40.4841 101.339 40.4248 101.27 40.3674 101.203Z" fill="#4B4848"/>
<path d="M107.914 101.387C107.92 101.268 107.977 101.201 108.098 101.19C108.094 101.308 108.033 101.375 107.914 101.387Z" fill="#4B4848"/>
<path d="M40.549 101.41C40.6102 101.473 40.6715 101.536 40.7327 101.602C40.6715 101.538 40.6102 101.475 40.549 101.41Z" fill="#4B4848"/>
<path d="M107.723 101.58C107.729 101.459 107.792 101.396 107.91 101.385C107.905 101.505 107.842 101.568 107.723 101.58Z" fill="#4B4848"/>
<path d="M40.7306 101.604C40.7899 101.667 40.8511 101.732 40.9104 101.795C40.7937 101.784 40.7344 101.718 40.7306 101.604Z" fill="#4B4848"/>
<path d="M107.541 101.777C107.603 101.712 107.666 101.647 107.727 101.582C107.723 101.703 107.662 101.768 107.541 101.777Z" fill="#4B4848"/>
<path d="M40.9216 101.805C40.9849 101.87 41.05 101.933 41.1131 101.998C40.9963 101.987 40.9313 101.923 40.9216 101.805Z" fill="#4B4848"/>
<path d="M41.4856 102.373C41.5487 102.436 41.6138 102.501 41.6769 102.564C41.5583 102.555 41.4951 102.49 41.4856 102.373Z" fill="#4B4848"/>
<path d="M106.777 102.543C106.786 102.426 106.85 102.361 106.968 102.354C106.961 102.474 106.897 102.537 106.777 102.543Z" fill="#4B4848"/>
<path d="M41.6862 102.57C41.7494 102.632 41.8106 102.691 41.8738 102.752C41.757 102.746 41.6958 102.687 41.6862 102.57Z" fill="#4B4848"/>
<path d="M106.586 102.734C106.595 102.616 106.658 102.553 106.777 102.545C106.769 102.666 106.706 102.729 106.586 102.734Z" fill="#4B4848"/>
<path d="M41.8773 102.758C41.9404 102.819 42.0017 102.88 42.0648 102.94C42.0017 102.878 41.9385 102.817 41.8773 102.758Z" fill="#4B4848"/>
<path d="M106.395 102.924C106.404 102.805 106.467 102.742 106.586 102.734C106.578 102.853 106.513 102.916 106.395 102.924Z" fill="#4B4848"/>
<path d="M106.194 103.11L106.391 102.926C106.381 103.046 106.314 103.108 106.194 103.11Z" fill="#4B4848"/>
<path d="M42.2692 103.131C42.3362 103.192 42.4012 103.252 42.4682 103.313C42.3495 103.311 42.2845 103.248 42.2692 103.131Z" fill="#4B4848"/>
<path d="M105.964 103.278C106.041 103.222 106.118 103.167 106.192 103.11C106.167 103.234 106.093 103.293 105.964 103.278Z" fill="#4B4848"/>
<path d="M42.47 103.313C42.5886 103.318 42.6536 103.378 42.667 103.496C42.5503 103.49 42.4833 103.431 42.47 103.313Z" fill="#4B4848"/>
<path d="M42.661 103.496L42.8562 103.684C42.7356 103.678 42.6706 103.615 42.661 103.496Z" fill="#4B4848"/>
<path d="M42.8617 103.686C42.9899 103.707 43.0492 103.781 43.0377 103.911C42.9784 103.837 42.921 103.76 42.8617 103.686Z" fill="#4B4848"/>
<path d="M142.322 59.1233C142.261 59.064 142.2 59.0046 142.136 58.9434C142.198 59.0027 142.259 59.062 142.322 59.1233Z" fill="#4B4848"/>
<path d="M4.77474 59.8226C4.70967 59.8934 4.64461 59.9662 4.57764 60.0369C4.6427 59.9662 4.70777 59.8934 4.77474 59.8226Z" fill="#4B4848"/>
<path d="M116.494 12.0007C116.479 11.9432 116.486 11.8897 116.519 11.8399C116.534 11.8839 116.551 11.9279 116.561 11.9739C116.561 11.9777 116.519 11.9911 116.494 12.0007Z" fill="#4B4848"/>
<path d="M4.57794 60.0372C4.55881 60.1577 4.49565 60.2267 4.36743 60.2267C4.43825 60.1634 4.50714 60.1003 4.57794 60.0372Z" fill="#4B4848"/>
<path d="M110.242 3.02069C110.152 3.01303 110.06 3.00729 109.969 2.99964C110.072 2.84462 110.16 2.89247 110.242 3.02069Z" fill="#4B4848"/>
<path d="M2.30327 63.3126C2.33197 63.4293 2.28222 63.4981 2.16931 63.5288C2.21332 63.456 2.25926 63.3834 2.30327 63.3126Z" fill="#4B4848"/>
<path d="M113.138 87.8034C112.799 87.5546 112.405 87.6215 112.03 87.6215C86.6676 87.6197 61.3058 87.6197 35.9439 87.6215C35.6262 87.6215 35.3085 87.658 34.9908 87.6771C29.6058 87.6636 24.2227 87.6522 18.8375 87.6368C17.8176 87.635 16.7976 87.6541 15.789 87.4761C15.6896 87.3173 15.5594 87.3058 15.4082 87.4054C15.1326 87.3517 14.8572 87.2981 14.5834 87.2465C14.3998 87.08 14.1969 86.9651 13.9347 87.0379C13.7281 86.9805 13.5233 86.9212 13.3186 86.8637C13.1827 86.6877 13.0295 86.5575 12.7923 86.701C10.9188 86.0849 9.35914 84.9711 7.94685 83.6297C7.79758 83.312 7.55071 83.0862 7.24453 82.9215C6.81587 82.4623 6.38529 82.003 5.95663 81.5456C5.9949 81.4232 6.00256 81.314 5.83033 81.293C4.45248 79.3067 3.58559 77.1232 3.28514 74.7196C3.30236 74.7004 3.33681 74.6736 3.33298 74.6603C3.31767 74.6143 3.28706 74.5722 3.2641 74.5301C2.94834 71.4051 3.20477 68.3586 4.65342 65.5167C5.14715 64.5484 5.80927 63.6663 6.39295 62.7458C6.47715 62.7668 6.56326 62.7841 6.57857 62.6577C6.92494 62.2749 7.27132 61.8941 7.6177 61.5133C7.66937 61.4617 7.72295 61.408 7.77652 61.3564C10.9513 58.5663 14.6236 57.133 18.8778 57.1578C23.593 57.1866 28.3103 57.1444 33.0274 57.131C33.504 57.1483 33.9824 57.1789 34.4589 57.1789C61.0914 57.1808 87.724 57.1808 114.357 57.1789C114.829 57.1789 115.315 57.263 115.771 57.0487C116.245 57.089 116.72 57.1616 117.195 57.1616C121.242 57.1712 125.291 57.1501 129.341 57.1712C133.597 57.1942 137.316 58.7079 140.321 61.6588C142.595 63.8901 143.812 66.7855 144.451 69.9029C144.342 70.1095 144.346 70.301 144.532 70.4674C144.66 71.7515 144.658 73.0375 144.538 74.3196C144.336 74.5416 144.336 74.798 144.424 75.0659C144.005 77.2111 143.257 79.276 142.036 81.0481C140.605 83.1283 138.754 84.8314 136.423 85.9988C134.122 87.1508 131.726 87.6426 129.183 87.6368C124.243 87.6235 119.3 87.633 114.359 87.633C113.945 87.633 113.528 87.5929 113.145 87.7995L113.138 87.8034ZM73.8499 60.4454C73.8499 60.4454 73.8499 60.4283 73.8499 60.4187C55.4557 60.4187 37.0595 60.4186 18.6653 60.4168C17.2933 60.4168 15.8847 60.4819 14.6236 60.9143C9.79354 62.5696 6.74123 66.5425 6.33553 71.3114C6.10398 74.0307 6.70296 76.5644 8.17074 78.8933C10.4442 82.5024 13.7472 84.3454 17.9535 84.3932C24.7431 84.4697 31.5348 84.3951 38.3245 84.397C63.0836 84.4028 87.8427 84.4123 112.6 84.4181C118.148 84.4181 123.693 84.4047 129.241 84.4258C130.682 84.4315 132.074 84.2764 133.441 83.7922C138.717 81.9264 141.045 77.6188 141.399 73.0508C141.561 70.9497 141.087 68.9729 140.124 67.019C139.175 65.0938 137.843 63.6356 136.173 62.4166C134.079 60.8875 131.652 60.4341 129.131 60.4264C123.52 60.4111 117.908 60.4436 112.298 60.4454C99.4816 60.4494 86.6658 60.4454 73.8499 60.4454Z" fill="#4B4848"/>
<path d="M61.4399 110.746C63.6961 111.204 65.9141 111.856 68.2066 112.143C68.4401 112.172 68.6525 112.361 68.8745 112.476C67.2823 112.43 65.7667 111.954 64.2281 111.621C63.2808 111.416 62.2839 111.307 61.4399 110.746Z" fill="#4B4848"/>
<path d="M69.0565 112.457C69.2555 112.225 69.5254 112.292 69.7647 112.319C72.2179 112.589 74.677 112.629 77.1399 112.522C76.9887 112.738 76.7534 112.725 76.5371 112.723C74.3478 112.717 72.1567 112.715 69.9675 112.685C69.6633 112.681 69.3589 112.535 69.0565 112.457Z" fill="#4B4848"/>
<path d="M57.4456 33.2932C56.3319 33.8234 55.1052 33.9956 53.957 34.4185C54.9847 33.6224 56.2152 33.4579 57.4456 33.2932Z" fill="#4B4848"/>
<path d="M74.4275 34.9837C73.3481 34.62 72.267 34.2564 71.1876 33.8929C72.3895 33.8929 73.4783 34.2296 74.4275 34.9837Z" fill="#4B4848"/>
<path d="M83.8025 111.518C84.8914 111.21 85.9822 110.904 87.071 110.596C86.1142 111.375 84.9833 111.537 83.8025 111.518Z" fill="#4B4848"/>
<path d="M108.054 43.2341C107.266 42.8457 106.755 42.1586 106.203 41.5137C107.065 41.8238 107.627 42.4572 108.054 43.2341Z" fill="#4B4848"/>
<path d="M90.3314 34.2179C88.8502 34.2886 87.3671 34.3041 85.886 34.2217C87.3671 33.9423 88.8502 33.9118 90.3314 34.2179Z" fill="#4B4848"/>
<path d="M78.6324 112.479C79.5758 112.206 80.5404 112.049 81.5105 111.928C80.6533 112.642 79.6103 112.397 78.6324 112.479Z" fill="#4B4848"/>
<path d="M64.7139 32.6768C63.671 32.7763 62.6262 32.7744 61.5833 32.6768C62.6262 32.4395 63.671 32.4376 64.7139 32.6768Z" fill="#4B4848"/>
<path d="M7.2439 82.918C7.55008 83.0827 7.79503 83.3085 7.94622 83.6262C7.50416 83.5936 7.27451 83.3544 7.2439 82.918Z" fill="#4B4848"/>
<path d="M43.2057 99.5234C43.6152 99.7454 43.9291 100.063 44.153 100.471C43.6152 100.377 43.3013 100.059 43.2057 99.5234Z" fill="#4B4848"/>
<path d="M144.419 75.0706C144.331 74.8027 144.331 74.5463 144.533 74.3243C144.626 74.5941 144.634 74.8505 144.419 75.0706Z" fill="#4B4848"/>
<path d="M13.9336 87.036C14.1959 86.9633 14.3987 87.0781 14.5824 87.2445C14.3106 87.3422 14.1001 87.2542 13.9336 87.036Z" fill="#4B4848"/>
<path d="M12.7965 86.7022C13.0337 86.5586 13.1869 86.6887 13.3228 86.8647C13.1065 86.9395 12.9457 86.8419 12.7965 86.7022Z" fill="#4B4848"/>
<path d="M144.525 70.4689C144.342 70.3024 144.336 70.111 144.445 69.9044C144.621 70.0728 144.637 70.2622 144.525 70.4689Z" fill="#4B4848"/>
<path d="M66.4352 32.8699C66.1425 32.9694 65.8649 32.9617 65.6161 32.7532C65.9262 32.5311 66.1903 32.6365 66.4352 32.8699Z" fill="#4B4848"/>
<path d="M60.6764 32.7548C60.4276 32.9711 60.1464 32.9634 59.8535 32.8697C60.0984 32.6304 60.3664 32.5386 60.6764 32.7548Z" fill="#4B4848"/>
<path d="M15.4149 87.4058C15.5661 87.3063 15.6943 87.3177 15.7957 87.4766C15.6445 87.5742 15.5201 87.5455 15.4149 87.4058Z" fill="#4B4848"/>
<path d="M55.6581 108.498C55.993 108.448 56.2724 108.529 56.4466 108.844C56.104 108.908 55.8609 108.749 55.6581 108.498Z" fill="#4B4848"/>
<path d="M5.82959 81.2911C6.00181 81.3121 5.99225 81.4212 5.95589 81.5437C5.91379 81.4576 5.87168 81.3752 5.82959 81.2911Z" fill="#4B4848"/>
<path d="M3.26195 74.5294C3.28683 74.5734 3.31554 74.6136 3.33084 74.6595C3.33467 74.673 3.30023 74.6998 3.283 74.7188C3.1701 74.6672 3.13757 74.6079 3.26195 74.5294Z" fill="#4B4848"/>
<path d="M7.77705 61.3564C7.72346 61.4099 7.67179 61.4617 7.61821 61.5133C7.56463 61.3526 7.61438 61.299 7.77705 61.3564Z" fill="#4B4848"/>
<path d="M53.938 107.543C54.1273 107.669 54.3168 107.794 54.5063 107.92C54.2289 107.928 53.9609 107.92 53.938 107.543Z" fill="#4B4848"/>
<path d="M6.57905 62.6585C6.56375 62.7847 6.47763 62.7675 6.39343 62.7465C6.45658 62.7159 6.51781 62.6871 6.57905 62.6585Z" fill="#4B4848"/>
<path d="M103.757 100.853C103.818 100.644 103.904 100.476 104.17 100.581C104.128 100.818 103.967 100.874 103.757 100.853Z" fill="#4B4848"/>
<path d="M105.563 99.1682C105.479 98.9271 105.691 98.952 105.81 98.8946C105.818 99.0668 105.724 99.1491 105.563 99.1682Z" fill="#4B4848"/>
<path d="M54.5112 107.924C54.6777 107.909 54.8041 107.966 54.8748 108.123C54.7027 108.15 54.584 108.077 54.5112 107.924Z" fill="#4B4848"/>
<path d="M54.8936 108.126C55.06 108.099 55.1997 108.13 55.2763 108.3C55.1136 108.319 54.9816 108.273 54.8936 108.126Z" fill="#4B4848"/>
<path d="M55.2759 108.302C55.4386 108.292 55.5687 108.348 55.6509 108.493C55.4769 108.524 55.3505 108.465 55.2759 108.302Z" fill="#4B4848"/>
<path d="M43.5825 40.4981C43.5825 40.6168 43.5232 40.676 43.4065 40.6837C43.4658 40.6224 43.5252 40.5612 43.5825 40.4981Z" fill="#4B4848"/>
<path d="M43.3915 40.6993C43.3322 40.7568 43.2728 40.8122 43.2153 40.8697C43.2173 40.7549 43.2766 40.6975 43.3915 40.6993Z" fill="#4B4848"/>
<path d="M43.1887 40.8892C43.1811 40.9982 43.1236 41.0517 43.0146 41.048C43.0165 40.9331 43.0778 40.8834 43.1887 40.8892Z" fill="#4B4848"/>
<path d="M42.9861 41.075C42.9861 41.1859 42.9345 41.2377 42.8235 41.2319C42.8216 41.121 42.8752 41.0674 42.9861 41.075Z" fill="#4B4848"/>
<path d="M42.7914 41.2645C42.7378 41.3162 42.6861 41.3659 42.6325 41.4176C42.6287 41.3085 42.6803 41.2569 42.7914 41.2645Z" fill="#4B4848"/>
<path d="M42.5946 41.4556C42.543 41.5072 42.4932 41.557 42.4416 41.6086C42.4359 41.4995 42.4856 41.4498 42.5946 41.4556Z" fill="#4B4848"/>
<path d="M42.3944 41.6473C42.3428 41.697 42.293 41.7487 42.2414 41.7985C42.2336 41.6894 42.2854 41.6396 42.3944 41.6473Z" fill="#4B4848"/>
<path d="M42.2012 41.8364C42.205 41.9417 42.1554 41.9915 42.05 41.9896C42.0425 41.8805 42.0941 41.8308 42.2012 41.8364Z" fill="#4B4848"/>
<path d="M42.0102 42.0279C42.014 42.1331 41.9642 42.1848 41.859 42.1809C41.8513 42.0719 41.9031 42.0221 42.0102 42.0279Z" fill="#4B4848"/>
<path d="M41.821 42.2192C41.8248 42.3246 41.7732 42.3762 41.6678 42.3742C41.6603 42.2652 41.7119 42.2135 41.821 42.2192Z" fill="#4B4848"/>
<path d="M41.6318 42.4126C41.6356 42.5198 41.584 42.5715 41.4768 42.5695C41.4691 42.4586 41.5209 42.4069 41.6318 42.4126Z" fill="#4B4848"/>
<path d="M41.4483 42.6055C41.4541 42.7145 41.4043 42.7701 41.2952 42.7738C41.2876 42.6649 41.3374 42.6055 41.4483 42.6055Z" fill="#4B4848"/>
<path d="M42.2898 98.5157C42.3415 98.5883 42.3951 98.6611 42.4467 98.7338C42.3338 98.7052 42.2784 98.6343 42.2898 98.5157Z" fill="#4B4848"/>
<path d="M42.6418 98.9376C42.6992 98.9988 42.7567 99.0601 42.8141 99.1195C42.7567 99.0582 42.6992 98.9969 42.6418 98.9376Z" fill="#4B4848"/>
<path d="M41.2682 42.7989C41.2128 42.8563 41.1592 42.9156 41.1037 42.9731C41.0979 42.8582 41.1535 42.8008 41.2682 42.7989Z" fill="#4B4848"/>
<path d="M42.833 99.1387C42.9459 99.1426 43.0034 99.2 43.0052 99.3149C42.9479 99.2556 42.8905 99.1981 42.833 99.1387Z" fill="#4B4848"/>
<path d="M43.0146 99.3323C43.072 99.3896 43.1276 99.449 43.1849 99.5065C43.072 99.5026 43.0146 99.4452 43.0146 99.3323Z" fill="#4B4848"/>
<path d="M41.0825 42.9962C41.0843 43.1129 41.027 43.1702 40.9121 43.1741C40.9121 43.0593 40.9676 42.9999 41.0825 42.9962Z" fill="#4B4848"/>
<path d="M44.171 100.486C44.2284 100.544 44.2859 100.599 44.3433 100.656C44.2322 100.656 44.1748 100.597 44.171 100.486Z" fill="#4B4848"/>
<path d="M44.3621 100.672C44.4214 100.729 44.4789 100.787 44.5382 100.842C44.4271 100.84 44.366 100.783 44.3621 100.672Z" fill="#4B4848"/>
<path d="M44.5532 100.861C44.6126 100.919 44.6719 100.976 44.7312 101.036C44.6163 101.036 44.559 100.976 44.5532 100.861Z" fill="#4B4848"/>
<path d="M44.9451 101.229C45.0159 101.284 45.0886 101.338 45.1594 101.393C45.0369 101.407 44.9699 101.345 44.9451 101.229Z" fill="#4B4848"/>
<path d="M33.0859 56.7811C33.0724 56.85 33.0572 56.917 33.0438 56.9859C33.0381 56.9361 33.0246 56.8863 33.0285 56.8385C33.0285 56.8194 33.0668 56.8002 33.0859 56.783V56.7811Z" fill="#4B4848"/>
<path d="M51.6873 75.5542C51.873 75.736 52.0586 75.9178 52.2443 76.0995C52.4931 76.5932 53.0096 76.7387 53.4326 76.6986C54.4909 76.5971 54.6919 77.1081 54.5713 77.9864C54.5407 78.2046 54.554 78.4323 54.5713 78.6543C54.6115 79.2341 54.3244 79.4351 53.7732 79.4504C52.1486 79.4963 50.8148 78.8706 49.6933 77.7415C49.4713 77.5175 49.3144 77.2305 48.9776 77.152C48.7231 76.6009 48.4054 76.0765 48.1088 75.5542C47.6878 74.8135 46.9452 75.1829 46.3118 75.3437C46.0094 75.5886 46.1301 75.9311 46.1243 76.2335C46.109 77.219 46.1186 78.2065 46.1166 79.192C45.1004 79.1863 44.0825 79.1805 43.0663 79.1748L43.0701 79.1883C43.0701 74.7256 43.0681 70.2629 43.0663 65.802L43.0624 65.8117C46.0554 65.9514 49.0771 65.4423 52.0452 66.1848H52.0433C52.1447 66.468 52.4012 66.4834 52.6403 66.5331L52.6461 66.5388C53.0747 66.9676 53.5015 67.3962 53.9301 67.8248L53.9379 67.8478C53.9206 68.0373 53.9454 68.2056 54.1541 68.2842C54.401 69.4916 54.8086 70.6992 54.1637 71.9124C54.1464 71.9468 54.2574 72.0484 54.3091 72.1191C54.2555 72.2454 54.2 72.3717 54.1445 72.498C53.8996 72.7411 53.6737 72.9975 53.5896 73.3477L53.5761 73.3649C53.1418 73.6251 52.782 73.9638 52.5084 74.3906L52.4873 74.3944C52.2921 74.3716 52.1409 74.4309 52.0586 74.6202L52.0528 74.6242C51.7716 74.626 51.4367 74.5724 51.3295 74.9111C51.2396 75.1982 51.3103 75.4814 51.6835 75.5542H51.6873ZM50.7019 71.9144C50.8243 71.9087 50.8874 71.8454 50.8894 71.723C51.5151 70.7584 51.4597 69.7385 50.74 69.0152L50.7458 69.0228C50.7324 68.8946 50.6636 68.8314 50.5334 68.8314L50.541 68.8372C50.0875 68.307 49.4732 68.2516 48.8341 68.242C46.1128 68.1999 46.1071 68.1961 46.1166 70.8771C46.1223 72.7391 45.8947 72.5879 47.7854 72.5496C48.6695 72.5325 49.6397 72.8712 50.4167 72.1248L50.4435 72.1134C50.5832 72.1191 50.6711 72.0579 50.6979 71.9162L50.7019 71.9144Z" fill="#4B4848"/>
<path d="M22.7522 71.0837C22.7637 70.9995 22.7772 70.9154 22.7886 70.8311C22.9398 69.2677 22.959 67.706 22.779 66.1426C22.7829 66.0604 22.7867 65.9781 22.7925 65.8958C23.7359 65.6834 24.6927 65.8479 25.64 65.7943C26.1031 65.7676 26.237 65.9914 26.2351 66.424C26.2255 70.4598 26.2275 74.4939 26.2351 78.5298C26.2351 78.9546 26.1184 79.1939 25.6457 79.1709C24.6966 79.125 23.7416 79.2647 22.7943 79.0829C22.7905 77.4755 22.7848 75.866 22.781 74.2585C22.8308 73.7686 22.4766 73.7706 22.1571 73.7648C21.4873 73.7533 20.8175 73.7361 20.1496 73.7648C19.2331 73.805 18.0772 73.3763 17.4629 73.9484C16.7931 74.5723 17.2428 75.7627 17.2275 76.7004C17.1873 79.2149 17.2141 79.1881 14.7359 79.1881C14.0106 79.1881 13.8211 78.9604 13.8288 78.2561C13.8632 74.9436 13.8441 71.6292 13.8441 68.3146C13.8441 65.6088 13.8441 65.6221 16.5692 65.7829C17.0668 65.8116 17.2313 65.9704 17.2218 66.4622C17.1968 67.7368 17.2026 69.0113 17.2218 70.2858C17.2256 70.5805 17.0801 70.9325 17.4188 71.1603L17.4113 71.1565C19.0531 71.499 20.7142 71.2273 22.3657 71.3C22.5284 71.3077 22.6719 71.2444 22.7504 71.0837H22.7522Z" fill="#4B4848"/>
<path d="M98.7047 67.5589C98.676 67.9416 99.1851 68.0795 99.1258 68.4775C99.2961 69.9031 99.3879 71.325 98.921 72.7182C98.4444 73.5927 97.811 74.2951 96.8294 74.6146C96.2916 74.8309 95.8686 75.074 96.6036 75.5867C96.7318 75.7131 96.86 75.8413 96.9882 75.9677C97.3078 76.5322 97.8972 76.7426 98.4349 76.7005C99.4626 76.6201 99.6215 77.1139 99.5123 77.9406C99.4836 78.1607 99.4893 78.3884 99.5123 78.6084C99.5735 79.238 99.2693 79.418 98.6722 79.4581C97.3997 79.5424 96.349 78.9549 95.262 78.4534L95.2582 78.4516C95.2084 78.2832 95.0975 78.199 94.9215 78.197L94.9348 78.2104C94.9233 78.0861 94.8564 78.0191 94.732 78.0114L94.7396 78.0191C94.7167 77.8909 94.6497 77.822 94.5119 77.8506L94.5215 77.8526C94.4544 77.7875 94.3895 77.7224 94.3224 77.6573C93.9264 77.0392 93.4172 76.4862 93.1723 75.7743C93.092 74.6299 92.225 75.3266 91.7333 75.1887C91.2587 75.0567 90.9543 75.3151 90.9582 75.8548C90.964 76.7063 90.9315 77.5597 90.9658 78.4114C90.9888 78.9989 90.742 79.1902 90.185 79.1787C89.5248 79.1654 88.8627 79.2113 88.2025 79.2323L88.1566 79.217C88.1451 74.9897 88.1432 70.7625 88.1126 66.5351C88.1088 65.9151 88.3824 65.7964 88.9202 65.7984C91.1132 65.8079 93.3063 65.7888 95.4993 65.7811C95.616 65.7946 95.7329 65.8079 95.8496 65.8194C96.4332 66.0586 97.0169 66.2998 97.5987 66.5389L97.6025 66.5409C97.6905 66.7973 97.8991 66.9007 98.1383 66.9676L98.1345 66.9638C98.2073 67.2737 98.4101 67.4614 98.7047 67.5608V67.5589ZM95.6448 71.9011C96.0831 71.7154 96.1002 71.3576 96.0313 70.9633C96.0581 70.2247 96.2686 69.4344 95.4763 68.9177C95.5031 68.7627 95.4438 68.6766 95.2831 68.6669H95.287C94.4431 68.0585 93.4708 68.2574 92.5389 68.246C90.962 68.225 90.962 68.2402 90.962 69.796C90.962 71.6523 91.9036 72.5753 93.7867 72.5651C94.487 72.5613 95.1932 72.5803 95.6505 71.8991L95.6467 71.903L95.6448 71.9011Z" fill="#4B4848"/>
<path d="M35.5781 79.5684C34.8949 79.5684 34.2118 79.5647 33.5267 79.5627C32.4933 79.0747 31.4618 78.5868 30.4284 78.0969C29.6591 77.4826 29.2535 76.6309 28.8975 75.7469C28.886 73.6878 28.8745 71.6287 28.8612 69.5714C28.8765 69.4662 28.8898 69.3609 28.9051 69.2557C29.1233 69.1543 29.2057 68.9667 29.2803 68.7467C29.7204 67.4645 30.6122 66.5862 31.7891 65.9526C32.1105 65.7786 32.5622 65.8608 32.7651 65.4589L32.7479 65.4647C34.0204 65.4609 35.293 65.4571 36.5656 65.4532L36.6365 65.4704C36.824 65.7403 37.0727 65.8397 37.3943 65.7575L37.4707 65.7766C37.5779 65.9393 37.7157 66.0484 37.9243 66.0312L37.9683 66.0503C38.1406 66.3068 38.3491 66.5114 38.6821 66.5306L38.6859 66.5344C38.7299 66.7029 38.8428 66.7852 39.0132 66.7966L38.9998 66.7832C39.0093 66.9057 39.0706 66.9765 39.1969 66.988L39.1873 66.9745C39.2008 67.1162 39.2772 67.2043 39.4151 67.2368L39.4189 67.2521C39.4093 67.5315 39.5375 67.7133 39.8016 67.8013L39.8131 67.8242C39.8036 67.9563 39.8361 68.0653 39.9739 68.1151L39.9643 68.1036C40.4523 69.6116 40.7049 71.154 40.6188 72.7385C40.5652 73.7414 40.4618 74.7422 40.3795 75.7431L40.3815 75.7354C39.9854 76.0473 39.9413 76.5257 39.8054 76.9601L39.7978 76.9831C39.5854 77.0692 39.5969 77.2587 39.5892 77.4385C39.2811 77.8883 38.9329 78.2997 38.4831 78.6154C38.24 78.5906 37.9913 78.5408 37.8439 78.8164L37.7826 78.8412C37.0574 79.1111 36.2384 79.092 35.5781 79.5609V79.5684ZM32.7249 75.9344C32.7344 76.055 32.7976 76.12 32.9201 76.1277L32.9162 76.1239C33.8731 77.096 35.4959 77.1113 36.3952 76.1545C36.9158 75.699 37.1875 75.1077 37.331 74.4456C37.4211 74.3633 37.5856 74.2848 37.5913 74.1987C37.6679 72.8744 37.8516 71.5406 37.4804 70.2373C37.3387 69.7418 37.2871 69.1543 36.7206 68.8806L36.7149 68.8749C36.7072 68.762 36.6536 68.6949 36.5349 68.6873H36.5331C35.4442 67.5487 33.6684 67.6252 32.7171 68.8481C32.2617 68.9418 32.1641 69.3743 32.0609 69.694C31.5613 71.2517 31.5881 72.8496 31.8847 74.4418C31.9748 74.9259 32.0417 75.4483 32.5393 75.7392H32.5373C32.5373 75.8598 32.6024 75.9249 32.7249 75.9344Z" fill="#4B4848"/>
<path d="M103.634 78.2426L103.613 78.2293C103.557 78.0416 103.441 77.9173 103.247 77.8676L103.226 77.8484C103.027 77.4485 102.807 77.0657 102.367 76.88C102.3 76.6945 102.233 76.5089 102.164 76.3252C102.181 76.3079 102.216 76.2792 102.212 76.2734C102.195 76.239 102.166 76.2083 102.141 76.1758L102.128 76.1605C101.575 73.3857 101.82 70.5765 101.781 67.7786C101.755 65.7598 101.776 65.7981 103.806 65.7826C104.568 65.7769 104.696 66.066 104.684 66.7357C104.648 68.9019 104.669 71.0682 104.673 73.2345C104.673 73.7416 104.633 74.2641 105.027 74.6755C105.021 75.485 105.668 75.8601 106.145 76.3462C106.994 77.1671 108.246 77.1633 109.088 76.3347C109.721 75.8754 110.278 75.3683 110.232 74.4879C110.757 74.3234 110.603 73.8756 110.605 73.5235C110.621 71.5811 110.613 69.6407 110.613 67.6983C110.613 65.7904 110.613 65.8286 112.515 65.7826C113.328 65.7616 113.625 65.9511 113.593 66.8295C113.485 69.7383 113.751 72.6586 113.294 75.5558C113.219 76.2696 112.802 76.8379 112.485 77.4485C112.184 77.5307 112.006 77.7336 111.916 78.0245L111.92 78.0206C110.255 79.1879 108.397 79.6664 106.378 79.5707C106.101 79.3219 105.76 79.387 105.435 79.3736C105.09 78.7823 104.478 78.6311 103.892 78.4339C103.858 78.3 103.766 78.2446 103.634 78.2406V78.2426Z" fill="#4B4848"/>
<path d="M85.9082 66.0017C85.8336 66.7614 86.0958 67.5441 85.7493 68.2828C83.6597 68.2656 81.57 68.2465 79.4821 68.233C79.2946 68.233 79.0956 68.2388 79.0114 68.4646L79.0094 68.4684C78.7281 69.4291 78.709 70.3897 79.019 71.3485C79.1204 71.6184 79.3615 71.5896 79.572 71.5877C80.8542 71.5781 82.1383 71.559 83.4204 71.5438L83.4148 71.5398C83.4223 71.9532 83.3918 72.3723 83.4434 72.78C83.5372 73.5071 83.2425 73.7271 82.5344 73.6851C81.6139 73.6297 80.6878 73.7023 79.7673 73.6622C79.0553 73.6315 78.8009 73.9224 78.8219 74.6151C78.8545 75.7595 78.7798 76.9097 78.8468 78.0501C78.8984 78.896 78.686 79.2768 77.7637 79.1889C77.0422 79.1199 76.3054 79.2099 75.5744 79.2271L75.5361 79.2137C75.5227 74.9481 75.5169 70.6806 75.4883 66.415C75.4844 65.7797 75.8691 65.7931 76.3073 65.7931C79.2372 65.7969 82.167 65.7951 85.0969 65.7931C85.3858 65.7931 85.6709 65.7951 85.9063 66.0017H85.9082Z" fill="#4B4848"/>
<path d="M56.0499 65.9484L56.0729 65.8623C59.5099 65.845 62.9449 65.8335 66.3819 65.8068C66.8469 65.803 66.956 66.002 66.9828 66.4344C67.0995 68.3424 67.1129 68.3424 65.1686 68.3405C64.7552 68.3405 64.3399 68.3309 63.9285 68.3443C63.6855 68.352 63.3946 68.3022 63.3315 68.662C63.0501 68.9586 63.1784 69.3279 63.1765 69.6609C63.165 72.2041 63.1707 74.7474 63.1707 77.2907C63.1707 79.2408 63.1707 79.2005 61.2073 79.2503C60.3691 79.2714 60.1203 79.036 60.1356 78.1844C60.1873 75.2278 60.1356 72.2712 60.1701 69.3146C60.1778 68.5701 59.9405 68.2754 59.1827 68.327C58.4555 68.3768 57.7206 68.3214 56.9895 68.3443C56.3638 68.3635 56.0404 68.1645 56.0959 67.4678C56.136 66.9646 56.0691 66.4536 56.0499 65.9464V65.9484Z" fill="#4B4848"/>
<path d="M132.353 65.9171C132.359 65.9822 132.364 66.0473 132.37 66.1123C132.175 66.4721 132.259 66.8624 132.257 67.2376C132.25 70.3913 132.254 73.5469 132.254 76.7007C132.254 78.4281 131.388 79.2497 129.657 79.1654C129.624 79.1654 129.593 79.1617 129.561 79.1654C129.051 79.2133 128.911 78.9549 128.911 78.4804C128.922 74.4655 128.918 70.4506 128.915 66.4358C128.915 66.0913 128.942 65.7774 129.406 65.7985C130.387 65.8425 131.379 65.6588 132.35 65.9153L132.353 65.9171Z" fill="#4B4848"/>
<path d="M72.7133 79.1958C71.854 79.1863 70.9948 79.1595 70.1355 79.1729C69.636 79.1805 69.3796 79.0466 69.3816 78.4763C69.3989 74.4633 69.3949 70.4504 69.3874 66.4374C69.3874 66.0087 69.527 65.8288 69.9844 65.7848C72.7248 65.5131 72.7248 65.5016 72.7228 68.2056C72.7228 71.8684 72.719 75.5312 72.7171 79.194L72.7133 79.1978V79.1958Z" fill="#4B4848"/>
<path d="M115.787 65.8277C119.088 65.822 122.389 65.8296 125.69 65.797C126.331 65.7914 126.499 66.0172 126.481 66.6238C126.421 68.6657 126.722 68.2714 124.77 68.3538C124.102 68.3806 123.374 68.0821 122.764 68.6083C122.523 69.5785 122.671 70.566 122.658 71.5439C122.634 73.8326 122.634 76.1233 122.663 78.412C122.671 79.0245 122.488 79.233 121.857 79.2445C119.643 79.2866 119.643 79.3095 119.643 77.1509C119.643 74.5426 119.624 71.9362 119.654 69.3278C119.664 68.5968 119.444 68.2409 118.677 68.3347C118.489 68.3576 118.296 68.3385 118.104 68.3385C116.476 68.3385 115.703 67.5009 115.785 65.8258L115.787 65.8277Z" fill="#4B4848"/>
</g>
</svg>
