<svg width="204" height="78" viewBox="0 0 204 78" fill="none" xmlns="http://www.w3.org/2000/svg">
<mask id="mask0_8087_3934" style="mask-type:luminance" maskUnits="userSpaceOnUse" x="0" y="0" width="169" height="4">
<path d="M3.38825 3.39601H168.678V0.000366211H0L3.38825 3.39601Z" fill="white"/>
</mask>
<g mask="url(#mask0_8087_3934)">
<mask id="mask1_8087_3934" style="mask-type:luminance" maskUnits="userSpaceOnUse" x="-1754" y="-2833" width="2088" height="3058">
<path d="M333.976 -2832.81H-1753.06V224.735H333.976V-2832.81Z" fill="white"/>
</mask>
<g mask="url(#mask1_8087_3934)">
<mask id="mask2_8087_3934" style="mask-type:luminance" maskUnits="userSpaceOnUse" x="-1853" y="-2932" width="2286" height="3256">
<path d="M432.905 -2931.87H-1852.05V323.68H432.905V-2931.87Z" fill="white"/>
</mask>
<g mask="url(#mask2_8087_3934)">
<path d="M432.905 -2931.87H-1852.05V323.68H432.905V-2931.87Z" fill="url(#paint0_linear_8087_3934)"/>
</g>
</g>
</g>
<mask id="mask3_8087_3934" style="mask-type:luminance" maskUnits="userSpaceOnUse" x="0" y="0" width="4" height="78">
<path d="M3.38825 3.39601V77.1954H0V0.000366211L3.38825 3.39601Z" fill="white"/>
</mask>
<g mask="url(#mask3_8087_3934)">
<mask id="mask4_8087_3934" style="mask-type:luminance" maskUnits="userSpaceOnUse" x="-1754" y="-2833" width="2088" height="3058">
<path d="M333.976 -2832.81H-1753.06V224.735H333.976V-2832.81Z" fill="white"/>
</mask>
<g mask="url(#mask4_8087_3934)">
<mask id="mask5_8087_3934" style="mask-type:luminance" maskUnits="userSpaceOnUse" x="-1853" y="-2932" width="2286" height="3256">
<path d="M432.905 -2931.87H-1852.05V323.68H432.905V-2931.87Z" fill="white"/>
</mask>
<g mask="url(#mask5_8087_3934)">
<path d="M432.905 -2931.87H-1852.05V323.68H432.905V-2931.87Z" fill="url(#paint1_linear_8087_3934)"/>
</g>
</g>
</g>
<path d="M45.4184 49.1226C45.4184 52.6291 44.4687 58.3378 36.3693 58.3378C31.8319 58.3378 27.4128 55.8622 27.4128 49.9244V47.567H32.8185V48.7827C32.8185 51.4172 33.4689 53.3164 36.2881 53.3164C39.4473 53.3164 39.4473 50.7594 39.4473 48.8565V30.5075H45.4146V49.1226" fill="#4B4848"/>
<path d="M67.0448 39.6447C66.6716 36.9437 64.0816 34.8856 61.1035 34.8856C55.7421 34.8856 53.7282 39.4525 53.7282 44.2116C53.7282 48.7453 55.7421 53.3122 61.1035 53.3122C64.7652 53.3122 66.8269 50.8034 67.274 47.2155H73.0677C72.4581 53.9884 67.7729 58.3338 61.1035 58.3338C52.6901 58.3338 47.7499 52.0598 47.7499 44.208C47.7499 36.1419 52.6901 29.853 61.1035 29.853C67.0893 29.853 72.1181 33.3595 72.8386 39.6373H67.0448" fill="#4B4848"/>
<path d="M81.1781 35.5324H85.4385C91.38 35.5324 93.2865 39.0352 93.2865 44.5185C93.2865 50.5339 89.9758 52.6658 86.5136 52.6658H81.1781V35.5324ZM75.2034 57.6873H86.9275C95.23 57.6873 99.2502 51.8271 99.2502 43.942C99.2502 34.9226 93.97 30.5034 86.9275 30.5034H75.2034V57.6873Z" fill="#4B4848"/>
<path d="M106.112 45.7341C106.189 44.2117 107.18 41.5476 110.605 41.5476C113.224 41.5476 114.414 42.9924 114.898 45.7341H106.112ZM120.311 49.1629C120.696 43.1069 117.463 37.4722 110.76 37.4722C104.781 37.4722 100.71 41.9651 100.71 47.8623C100.71 53.9589 104.552 58.2229 110.76 58.2229C115.209 58.2229 118.445 56.2352 119.971 51.5906H115.209C114.872 52.8173 113.117 54.1475 110.945 54.1475C107.937 54.1475 106.259 52.5844 106.112 49.1629H120.311Z" fill="#4B4848"/>
<path d="M135.727 44.9436C135.402 42.7303 133.983 41.5479 131.736 41.5479C128.27 41.5479 127.132 45.0544 127.132 47.9549C127.132 50.7594 128.23 54.1514 131.625 54.1514C134.134 54.1514 135.583 52.5551 135.926 50.1497H141.136C140.46 55.367 136.835 58.227 131.666 58.227C125.721 58.227 121.734 54.0332 121.734 48.1361C121.734 42.0135 125.377 37.4761 131.781 37.4761C136.429 37.4761 140.7 39.9147 141.036 44.9436H135.727Z" fill="#4B4848"/>
<path d="M155.343 50.0792C155.343 51.2579 155.199 54.6019 150.968 54.6019C149.224 54.6019 147.665 54.1142 147.665 52.0931C147.665 50.1126 149.184 49.5472 150.858 49.1999C152.531 48.8895 154.442 48.8562 155.347 48.0544V50.0792M148.275 44.0675C148.449 41.9355 149.79 41.0896 151.84 41.0896C153.747 41.0896 155.339 41.4331 155.339 43.7498C155.339 45.9668 152.265 45.8486 148.944 46.3511C145.596 46.8093 142.252 47.866 142.252 52.3258C142.252 56.3644 145.215 58.2267 148.944 58.2267C151.342 58.2267 153.858 57.5764 155.576 55.788C155.613 56.4272 155.765 57.085 155.964 57.6873H161.44C160.941 56.8855 160.764 55.1007 160.764 53.3123V43.0736C160.764 38.3588 156.038 37.4722 152.114 37.4722C147.695 37.4722 143.165 38.9981 142.865 44.0639H148.275V44.0675Z" fill="#4B4848"/>
<path d="M182.169 57.6885H177.04V54.9541H176.911C175.544 57.1526 173.179 58.228 170.903 58.228C165.157 58.228 163.709 54.9875 163.709 50.1139V38.0055H169.125V49.1236C169.125 52.3641 170.064 53.964 172.58 53.964C175.518 53.964 176.77 52.3234 176.77 48.3328V38.0055H182.172V57.6885" fill="#4B4848"/>
<path d="M190.083 47.3354L183.606 38.0093H189.762L193.235 43.1416L196.664 38.0093H202.639L196.165 47.2209L203.441 57.6887H197.274L193.157 51.4885L189.045 57.6887H182.996L190.083 47.3354Z" fill="#4B4848"/>
<defs>
<linearGradient id="paint0_linear_8087_3934" x1="150.076" y1="-1304.09" x2="-2.72029" y2="-1304.09" gradientUnits="userSpaceOnUse">
<stop stop-color="#131313" stop-opacity="0"/>
<stop offset="1" stop-color="#4B4848"/>
</linearGradient>
<linearGradient id="paint1_linear_8087_3934" x1="-709.572" y1="64.2268" x2="-709.572" y2="0.298134" gradientUnits="userSpaceOnUse">
<stop stop-color="#131313" stop-opacity="0"/>
<stop offset="1" stop-color="#4B4848"/>
</linearGradient>
</defs>
</svg>
