<svg width="181" height="49" viewBox="0 0 181 49" fill="none" xmlns="http://www.w3.org/2000/svg">
<mask id="mask0_4_694" style="mask-type:luminance" maskUnits="userSpaceOnUse" x="0" y="0" width="181" height="49">
<path d="M180.435 0.406738H0V48.8305H180.435V0.406738Z" fill="white"/>
</mask>
<g mask="url(#mask0_4_694)">
<path d="M24.739 0.406738H17.151C17.1362 10.7419 17.1213 17.4241 17.1065 27.7593C13.8396 17.6766 10.5727 11.0092 7.29104 0.406738H0V48.8305C2.46499 48.4741 5.09333 48.1475 7.55833 47.8208C7.57318 37.7084 7.57318 31.4865 7.58803 21.3592C10.9737 31.3231 13.0674 37.2035 16.4531 46.6625C19.0963 46.3655 22.0216 45.9943 24.6648 45.7122C24.6945 30.6104 24.7093 15.5085 24.739 0.406738Z" fill="#4B4848"/>
</g>
<mask id="mask1_4_694" style="mask-type:luminance" maskUnits="userSpaceOnUse" x="0" y="0" width="181" height="49">
<path d="M180.435 0.406738H0V48.8305H180.435V0.406738Z" fill="white"/>
</mask>
<g mask="url(#mask1_4_694)">
<path d="M53.1162 0.406738H32.0747C32.045 15.3007 32.0153 30.1946 31.9856 45.0736C39.0242 44.4351 46.0776 43.9154 53.1311 43.4996C53.1311 41.3167 53.1311 38.1984 53.1459 36.0155C48.5575 36.2977 44.1769 36.5946 39.6033 36.9065C39.6033 32.8972 39.6182 29.5857 39.633 25.5913C42.9741 25.5319 46.4934 25.5913 49.9088 25.5319C49.9088 23.349 49.9236 20.2009 49.9236 18.0181C46.538 18.0775 42.9741 18.0923 39.6479 18.1517C39.6479 14.1424 39.6627 11.9595 39.6776 7.95022C41.7713 7.92052 43.8205 7.92052 45.8698 7.92052C46.2261 7.92052 46.5825 7.92052 46.9538 7.92052H48.0229C49.7306 7.92052 51.4383 7.92052 53.1905 7.90567C53.1608 5.70796 53.1162 2.5896 53.1162 0.406738Z" fill="#4B4848"/>
</g>
<mask id="mask2_4_694" style="mask-type:luminance" maskUnits="userSpaceOnUse" x="0" y="0" width="181" height="49">
<path d="M180.435 0.406738H0V48.8305H180.435V0.406738Z" fill="white"/>
</mask>
<g mask="url(#mask2_4_694)">
<path d="M81.4784 0.434082C73.7567 0.434082 65.7678 0.434082 58.0461 0.434082C58.0461 2.60209 58.0461 5.70561 58.0312 7.87362C58.3728 7.87362 58.6995 7.87362 59.041 7.87362C60.0656 7.87362 61.0754 7.88846 62.1 7.88846C63.1246 7.90331 64.1343 7.90331 65.1589 7.90331C65.4262 7.90331 65.6787 7.90331 65.946 7.90331C65.9311 19.9165 65.9163 30.8753 65.9014 42.8736C68.3813 42.7845 71.0393 42.7102 73.5191 42.636C73.534 30.6971 73.5488 19.7977 73.5488 7.85877C76.1623 7.84392 78.8798 7.84392 81.4932 7.82907C81.4784 5.73531 81.4784 2.55754 81.4784 0.434082Z" fill="#4B4848"/>
</g>
<mask id="mask3_4_694" style="mask-type:luminance" maskUnits="userSpaceOnUse" x="0" y="0" width="181" height="49">
<path d="M180.435 0.406738H0V48.8305H180.435V0.406738Z" fill="white"/>
</mask>
<g mask="url(#mask3_4_694)">
<path d="M107.539 0.406738H86.4084C86.4084 14.4245 86.4084 28.4423 86.4084 42.4601C87.2252 42.4601 88.0567 42.4601 88.8734 42.4601C90.5663 42.4601 92.2591 42.4601 93.9222 42.475C93.9222 36.5204 93.9222 31.1004 93.9222 25.1458C94.338 25.1458 94.7538 25.1458 95.1696 25.1458C96.1496 25.1458 97.1445 25.1458 98.1543 25.1458C99.1641 25.1458 100.159 25.1309 101.169 25.1309C102.193 25.1309 103.218 25.1309 104.213 25.1458C104.213 23.0075 104.213 19.8446 104.213 17.7063C103.277 17.6914 102.312 17.6914 101.347 17.6914C100.307 17.6914 99.2532 17.6914 98.2137 17.6914C97.1742 17.6914 96.1348 17.7063 95.1102 17.7063C94.7241 17.7063 94.3232 17.7063 93.9371 17.7063C93.9371 13.8751 93.9371 11.722 93.9371 7.90567C94.7686 7.90567 95.5854 7.90567 96.4021 7.90567C97.2336 7.90567 98.0652 7.90567 98.8968 7.90567C99.7283 7.90567 100.575 7.90567 101.406 7.90567C103.456 7.90567 105.49 7.90567 107.554 7.92052C107.539 5.78221 107.539 2.54505 107.539 0.406738Z" fill="#4B4848"/>
</g>
<mask id="mask4_4_694" style="mask-type:luminance" maskUnits="userSpaceOnUse" x="0" y="0" width="181" height="49">
<path d="M180.435 0.406738H0V48.8305H180.435V0.406738Z" fill="white"/>
</mask>
<g mask="url(#mask4_4_694)">
<path d="M112.469 0.434082C112.484 14.5855 112.425 28.737 112.439 42.8884C119.196 43.1409 126.294 43.4081 133.035 43.8833C133.035 41.7005 133.021 38.5821 133.021 36.3993C128.744 36.1468 124.304 35.8498 120.027 35.6716C120.013 23.5545 120.072 12.566 120.057 0.434082C117.592 0.434082 114.949 0.434082 112.469 0.434082Z" fill="#4B4848"/>
</g>
<mask id="mask5_4_694" style="mask-type:luminance" maskUnits="userSpaceOnUse" x="0" y="0" width="181" height="49">
<path d="M180.435 0.406738H0V48.8305H180.435V0.406738Z" fill="white"/>
</mask>
<g mask="url(#mask5_4_694)">
<path d="M139.272 0.434082C139.302 15.0756 139.332 29.7022 139.361 44.3437C141.841 44.5367 144.395 44.7446 146.875 44.9673C146.89 30.1328 146.905 15.2834 146.875 0.448931C144.395 0.434082 141.752 0.434082 139.272 0.434082Z" fill="#4B4848"/>
</g>
<mask id="mask6_4_694" style="mask-type:luminance" maskUnits="userSpaceOnUse" x="0" y="0" width="181" height="49">
<path d="M180.435 0.406738H0V48.8305H180.435V0.406738Z" fill="white"/>
</mask>
<g mask="url(#mask6_4_694)">
<path d="M153.379 0.434082C156.423 7.82907 159.2 15.2537 162.274 23.1091C159.066 30.6525 155.8 38.1515 152.607 45.398C155.265 45.6653 158.012 46.0365 160.655 46.3335C162.556 41.6708 164.293 38.0772 166.194 33.2957C168.095 38.4039 169.817 42.339 171.718 47.6105C174.361 47.9521 177.791 48.4421 180.435 48.8282C177.227 40.2601 173.723 31.3505 170.5 23.2576C173.708 15.6547 176.99 8.39334 180.316 0.448931C177.584 0.448931 174.762 0.448931 172.015 0.448931C169.951 5.36407 168.54 8.51214 166.565 13.1897C164.724 8.31909 163.492 5.17103 161.65 0.448931C158.948 0.434082 156.111 0.434082 153.379 0.434082Z" fill="#4B4848"/>
</g>
</svg>
