<svg width="201" height="30" viewBox="0 0 201 30" fill="none" xmlns="http://www.w3.org/2000/svg">
<mask id="mask0_8087_3741" style="mask-type:luminance" maskUnits="userSpaceOnUse" x="0" y="0" width="201" height="30">
<path d="M200.285 0.000183105H0V29.2656H200.285V0.000183105Z" fill="white"/>
</mask>
<g mask="url(#mask0_8087_3741)">
<path d="M200.286 14.737C200.273 16.8426 200.255 18.9482 200.245 21.0515C200.239 22.3185 200.013 23.5493 199.661 24.7619C198.96 27.1734 196.898 27.9282 194.817 28.5243C193.645 28.8597 192.375 28.8597 191.151 29.0116C190.404 28.9345 189.66 28.8257 188.911 28.7849C186.003 28.6353 183.738 27.3684 182.12 24.9568C181.997 24.5216 181.874 24.0842 181.751 23.649C181.706 22.8625 181.633 22.076 181.621 21.2895C181.587 19.1091 181.58 16.9265 181.562 14.7438C181.574 12.2642 181.592 9.78692 181.59 7.30734C181.59 6.82457 181.553 6.3486 181.767 5.89756L182.054 4.32912C182.172 4.24072 182.354 4.17726 182.402 4.0594C183.199 2.15325 184.762 1.26704 186.647 0.684542C188.128 0.226702 189.633 0.113379 191.151 0.00231934C193.267 0.219906 195.334 0.584812 197.243 1.61608C199.251 2.69949 199.813 4.54444 200.009 6.57978C200.095 7.47506 200.006 8.3862 199.995 9.29282C198.409 9.29962 196.82 9.31322 195.234 9.30642C194.446 9.30412 193.472 9.53302 192.926 9.15909C192.382 8.78738 192.796 7.76064 192.746 7.02402C192.669 5.88849 192.243 5.46692 191.146 5.48731C189.3 5.42159 189.087 5.51905 189.077 6.75657C189.057 9.41752 189.1 12.0784 189.118 14.7415C189.102 17.0262 189.112 19.3131 189.055 21.5955C189.03 22.6472 189.498 23.2546 190.468 23.547C191.922 23.6105 192.286 23.3634 192.744 22.0012C192.837 21.9536 192.962 21.9242 192.871 21.7746C192.871 20.4849 192.876 19.1953 192.878 17.9079C192.908 17.6903 193.133 17.4251 192.733 17.3118C192.209 17.1667 191.681 17.2234 191.153 17.2732C190.912 17.0874 190.985 16.7927 190.896 16.5525C191.092 15.4328 190.707 14.2701 191.151 13.1686L200.22 13.2366C200.243 13.7375 200.264 14.2406 200.286 14.7415V14.737Z" fill="#4B4848"/>
<path d="M2.49997 14.5089C0.42886 12.3285 0.519901 9.6245 0.6337 6.91149C0.6519 6.50125 0.63825 6.08874 0.63825 5.6785C1.54407 1.95913 3.78815 1.3449 6.95854 0.721609C7.68229 0.578809 8.34459 0.193503 9.1002 0.216169C10.5569 0.225239 12.0294 0.286429 13.4177 0.703469C15.0336 1.18851 16.8362 1.43103 17.8421 3.08106C18.0379 3.37118 18.1584 3.72022 18.4884 3.90608C18.386 4.18033 18.6568 4.32085 18.7183 4.53844C19.1325 6.1862 19.0188 7.84984 18.8458 9.5135C18.773 9.484 18.7116 9.4976 18.6569 9.5543C17.0296 9.5407 15.4023 9.5339 13.7728 9.5089C13.0945 9.4999 12.4185 9.4523 11.7402 9.4228C11.7698 8.79724 11.8223 8.16942 11.8223 7.54385C11.8223 6.07741 10.4111 5.10734 9.00461 5.58104C8.23534 5.83943 7.69139 6.34939 7.5389 7.13135C7.35 8.09689 7.87574 8.82444 8.56535 9.4319C10.4839 11.1204 12.8715 12.0225 15.1247 13.0946C18.2177 14.5656 19.4375 16.9726 19.4648 20.2001C19.4739 21.1793 19.4853 22.1584 19.4967 23.1353C19.0483 24.2958 18.6069 25.4585 17.8717 26.4807C17.1867 26.8637 16.6563 27.453 15.9303 27.7953C13.7613 28.8152 11.4695 29.2051 9.09792 29.2549C8.79977 29.2232 8.50163 29.1711 8.20348 29.162C4.76453 29.0645 1.96285 27.8474 0.253614 24.6992C0.192164 24.4068 0.32417 24.0804 0.0965745 23.8175C0.0669875 22.3851 0.0374005 20.9526 0.0078125 19.5202C1.8536 19.3253 3.70394 19.4613 5.55201 19.4386C7.44559 19.4159 7.39552 19.4386 7.54118 21.3039C7.61173 22.2128 7.64132 23.269 8.87716 23.5433C9.63955 23.8855 10.5112 23.7541 11.0051 23.2985C11.5969 22.7545 12.0043 21.993 11.6833 20.9413C11.2942 19.663 10.4179 19.0805 9.35285 18.5796C8.1352 17.9042 6.95854 17.1426 5.69084 16.5805C4.5028 16.0524 3.56738 15.1957 2.50452 14.5089H2.49997Z" fill="#4B4848"/>
<path d="M157.019 28.3405C155.257 28.3133 153.496 28.2589 151.734 28.2771C151.053 28.2839 150.819 28.098 150.846 27.3931C150.892 26.2009 150.83 25.0042 150.812 23.8097C150.812 20.7839 150.812 17.7581 150.812 14.7323C150.812 11.7155 150.812 8.69656 150.812 5.67981C150.83 4.41282 150.881 3.14357 150.851 1.87884C150.84 1.32581 150.99 1.0357 151.561 1.02436C153.839 1.09236 156.12 1.16036 158.398 1.0221L158.498 1.06969L158.603 1.0289C158.762 1.03116 158.921 1.0357 159.081 1.03796C159.231 1.06516 159.379 1.09009 159.529 1.11729C160.148 2.48401 160.767 3.85072 161.386 5.21744C161.971 6.76775 162.618 8.29085 163.41 9.74824C163.353 10.0292 163.539 10.2196 163.664 10.4327C163.61 10.5936 163.708 10.6525 163.837 10.6865C164.463 12.4726 165.305 14.1679 166.095 15.8837C166.072 16.5863 166.448 17.0781 166.981 17.6629C166.981 16.881 166.981 16.2599 166.981 15.6389C166.994 15.1879 166.981 14.7323 167.026 14.2835C167.14 13.2182 166.519 12.1734 166.958 11.1036C166.942 9.91144 166.987 8.71469 166.789 7.53157C166.769 6.77001 166.748 6.00619 166.728 5.24464C166.714 4.16124 166.755 3.07331 166.666 1.9967C166.61 1.30541 166.862 1.03796 167.497 1.00623C169.175 1.11956 170.852 1.11729 172.532 1.00623C172.645 1.0085 172.759 1.01076 172.871 1.01303H172.889C172.982 1.0221 173.076 1.03116 173.171 1.0425C174.011 1.0085 173.877 1.60686 173.877 2.12136C173.877 7.5837 173.868 13.0437 173.879 18.5061C173.886 21.6293 173.924 24.7549 173.949 27.8781C173.843 28.0345 173.738 28.1909 173.631 28.3473C171.3 28.1547 168.961 28.2272 166.632 28.2975C165.544 28.3292 165.048 27.8351 164.761 26.9874C164.57 26.4208 164.281 25.9199 164.022 25.394C163.79 24.9385 163.558 24.4806 163.325 24.025C163.43 23.7757 163.243 23.608 163.152 23.4086C161.775 20.3691 160.401 17.3297 159.026 14.288C158.605 13.5174 158.184 12.7491 157.763 11.9785C157.497 12.9327 157.31 13.8393 157.649 14.7527C157.692 16.5614 157.733 18.3701 157.777 20.1788C157.758 20.2626 157.786 20.3283 157.854 20.3805C157.754 20.7091 157.761 21.0355 157.865 21.3596C157.884 23.3474 157.868 25.3351 157.936 27.3206C157.961 28.0368 157.736 28.3609 157.021 28.3383L157.019 28.3405Z" fill="#4B4848"/>
<path d="M29.9988 5.67348C30.2537 4.49262 30.6634 3.31856 30.7135 2.1309C30.7522 1.22429 31.1072 1.17896 31.7923 1.18122C34.9262 1.19256 38.0602 1.17669 41.1919 1.16536C41.4172 1.16536 41.6403 1.12909 41.8656 1.11096C43.0718 1.01577 43.1447 1.89745 43.2653 2.72926C43.4292 3.87386 43.543 5.02979 43.8866 6.14265C44.2257 8.73556 44.6445 11.3126 45.2317 13.8624C45.2841 14.1593 45.3364 14.4563 45.3887 14.7532C45.5776 17.4322 46.2263 20.0364 46.686 22.6724C46.6519 22.8605 46.5859 23.06 46.8545 23.1371C46.8909 23.3592 46.9296 23.5813 46.966 23.8012C47.123 24.9888 47.1344 26.2195 47.4826 27.3483C47.7375 28.171 47.5509 28.2617 46.8567 28.2322C46.4038 28.2141 45.9509 28.2277 45.498 28.2277C44.3464 28.2481 43.197 28.2707 42.0454 28.2911C41.4172 28.2503 40.7891 28.2118 40.1609 28.171C39.6397 26.7635 39.8036 25.2268 39.3234 23.8125C39.3347 23.5881 39.3825 23.3614 39.353 23.1416C38.9774 20.3402 38.5882 17.541 38.2036 14.7418C38.108 13.5723 37.7871 12.439 37.7234 11.2537C37.6597 10.0819 37.275 8.93048 37.2978 7.73375C37.3023 7.53657 37.2614 7.34391 37.0315 7.30765C36.8062 7.27138 36.7015 7.41644 36.6469 7.62269C36.5809 7.86975 36.4557 8.10773 36.4215 8.35932C36.0301 11.2831 35.65 14.2092 35.2654 17.1353C34.974 19.3588 34.685 21.5845 34.3937 23.808C34.2253 25.1248 34.0364 26.4394 33.8998 27.7608C33.8361 28.3773 33.4059 28.2186 33.0645 28.2209C30.9138 28.2367 28.7607 28.2345 26.61 28.239C26.4097 28.1869 26.2959 28.0509 26.2344 27.8605C26.2595 27.72 26.2868 27.5795 26.3118 27.4412C26.4893 26.2309 26.6669 25.0228 26.8444 23.8125C27.3314 22.8855 27.254 21.8338 27.4748 20.8479C27.9004 18.9576 28.1235 17.022 28.4444 15.109C28.8904 12.4322 29.357 9.75772 29.794 7.07873C29.8691 6.61409 30.2014 6.18345 29.9897 5.67801L29.9988 5.67348Z" fill="#4B4848"/>
<path d="M127.441 28.7685C125.475 28.0387 123.688 27.0913 122.5 25.2463C122.2 24.7771 122.229 24.1584 121.747 23.8025C121.808 23.2835 121.537 22.8234 121.544 22.2907C121.574 19.7749 121.517 17.2591 121.492 14.7432V5.67034C121.51 4.46681 121.574 3.26328 121.528 2.06202C121.501 1.3322 121.692 1.08288 122.464 1.09648C124.731 1.13728 127 1.09648 129.267 1.08515C129.501 2.61052 129.323 4.14496 129.36 5.67487C129.414 7.87794 129.214 10.0855 129.465 12.2863C129.474 15.1421 129.483 17.9979 129.492 20.856C129.289 23.0251 129.863 23.6711 131.802 23.5827C133.024 23.5283 133.243 22.6534 133.482 21.7536C133.482 21.0736 133.482 20.3959 133.482 19.716C133.482 19.6457 133.482 19.5754 133.482 19.5052C133.482 17.9889 133.482 16.4726 133.482 14.9585C133.484 14.8883 133.488 14.8157 133.491 14.7455C133.584 11.7197 133.582 8.69389 133.491 5.67034C133.488 5.60008 133.484 5.52755 133.482 5.45728C133.482 4.39882 133.482 3.34261 133.482 2.28414C133.664 1.89204 133.338 1.3662 133.812 1.05115C135.96 1.07382 138.111 1.09422 140.259 1.11688C140.66 1.12142 141.126 1.01036 141.22 1.61099C141.218 1.67672 141.213 1.74471 141.211 1.81044C141.122 3.09556 141.099 4.37842 141.227 5.66354C141.108 8.69162 141.106 11.7174 141.227 14.7455C140.949 17.76 141.457 20.8039 140.874 23.8048C140.136 25.9557 138.534 27.2499 136.536 28.152C133.757 29.2105 130.901 29.2535 128.006 28.7934C127.821 28.764 127.63 28.7776 127.441 28.7708V28.7685Z" fill="#4B4848"/>
<path d="M94.3369 5.70512C94.7694 3.12808 96.1213 1.46445 98.8479 1.08821C99.2963 1.02701 99.7063 0.693831 100.133 0.487581C102.887 0.131731 105.621 0.190661 108.315 0.922751C108.393 1.21513 108.598 1.1494 108.798 1.08821C108.916 1.10407 109.032 1.11994 109.151 1.13354C109.28 1.26953 109.387 1.47578 109.547 1.52791C111.545 2.20334 112.219 3.86017 112.688 5.67566C112.672 6.72279 112.631 7.7722 112.653 8.81707C112.665 9.35872 112.474 9.53332 111.939 9.51972C111.037 9.49702 110.136 9.54012 109.235 9.55592C108.707 9.54012 108.179 9.51062 107.651 9.51062C106.159 9.50762 105.395 8.7536 105.357 7.24863C105.329 6.18109 104.833 5.62806 103.506 5.4898C102.655 5.40141 101.834 5.56686 101.479 6.60267C100.985 8.04418 101.483 9.20917 102.958 10.1294C104.961 11.3782 107.228 12.099 109.235 13.3297C110.125 13.5722 110.532 14.5559 111.445 14.7621C111.777 15.3741 112.162 15.9634 112.433 16.6003C113.395 18.8691 113.259 21.2286 112.933 23.5948C112.936 23.6764 112.94 23.758 112.942 23.8419C112.622 24.0526 112.692 24.3994 112.642 24.7054C112.492 24.7122 112.419 24.7757 112.465 24.9343C111.77 26.598 110.334 27.4298 108.816 28.1732C105.983 29.0889 103.106 29.5739 100.127 29.0435C97.1136 28.3613 94.7034 26.9493 93.7224 23.8011C93.7224 22.6202 93.727 21.4371 93.7133 20.2562C93.7088 19.8369 93.6678 19.4244 94.2345 19.3405C94.3096 19.3428 94.387 19.3451 94.4621 19.3496C96.3534 19.3768 98.2425 19.404 100.133 19.4289C101.121 19.3428 101.417 19.8165 101.278 20.7413C101.205 21.2218 101.235 21.7249 101.278 22.2122C101.353 23.044 102.591 23.9552 103.381 23.7965C105.307 23.409 106.046 21.6524 104.886 20.0182C103.795 18.4838 102.027 17.9285 100.388 17.2145C99.1642 16.1606 97.439 15.8478 96.3785 14.5423C96.3238 14.4743 96.1668 14.4879 96.0575 14.463C95.4999 13.4861 94.6396 12.6792 94.4439 11.4983C94.123 9.56952 94.3301 7.63847 94.3392 5.70512H94.3369Z" fill="#4B4848"/>
<path d="M55.743 5.67894C55.7863 4.53208 55.8227 3.38748 55.8796 2.24062C55.8978 1.85077 55.7703 1.40427 56.2096 1.13228C59.6918 1.15948 63.174 1.23881 66.6539 1.17762C67.587 1.16175 68.0012 1.52439 68.0012 2.27688C68.0012 3.44868 68.4268 4.53208 68.5315 5.67214C68.7477 7.08419 68.9594 8.49623 69.1779 9.9083C69.4373 11.5878 69.7446 13.2582 69.9016 14.9536C69.9267 15.2165 69.9039 15.8171 70.3341 15.833C70.8484 15.8511 70.7324 15.3321 70.7893 14.974C71.0738 13.2015 71.4698 11.4427 71.6496 9.6612C71.7838 8.33078 72.28 7.05019 72.1776 5.69254C72.5964 4.27596 72.9036 2.84578 72.8148 1.3544C72.8763 1.27961 72.94 1.20255 73.0015 1.12775L73.0424 1.11642C73.575 1.08695 74.1076 1.05522 74.6424 1.02576C77.7445 1.05069 80.8489 1.08469 83.951 1.09149C84.5246 1.09149 84.8159 1.08015 84.9433 1.85757C85.1527 3.13363 84.9593 4.41195 85.1778 5.66987C85.0207 8.70022 85.4008 11.717 85.3735 14.7428L85.3826 20.1734C85.4008 20.5587 85.1527 20.9871 85.5601 21.3134L85.642 22.449C85.5988 22.9227 85.5055 23.3987 85.7308 23.8542L85.7263 23.8701C85.7354 24.9966 85.7467 26.123 85.7558 27.2472C85.7581 27.6167 85.8742 28.0065 85.5669 28.3216C83.5391 28.3012 81.5089 28.2536 79.4811 28.2762C78.7915 28.2853 78.5616 28.0858 78.5798 27.3877C78.6094 26.1933 78.5411 24.9966 78.5138 23.8021C78.4956 20.7785 78.4774 17.7573 78.4592 14.7337C78.5252 12.6168 78.5297 10.5021 78.4114 8.38744C78.4956 8.23558 78.4182 8.21065 78.2839 8.22652C78.0381 8.14266 77.872 8.14945 77.8151 8.47583C77.7104 9.08553 77.5351 9.6839 77.4373 10.2959C77.2006 11.7736 76.9889 13.2537 76.7682 14.7337C76.1241 17.5873 75.5437 20.4544 75.1409 23.3533C74.713 24.575 74.6652 25.8669 74.4353 27.1248C74.2942 27.8977 74.0393 28.3556 73.0311 28.3012C71.0715 28.1992 69.1005 28.3148 67.1341 28.3397C66.3284 27.6892 66.4422 26.7101 66.2488 25.8442C66.1645 25.4657 66.3808 25.0215 65.987 24.711C65.9552 23.9426 65.9233 23.2015 65.6752 22.4354C65.3384 21.3996 65.2883 20.2731 65.0607 19.1965C64.7489 17.7097 64.8104 16.1526 64.2004 14.7247C64.0752 12.4083 63.2787 10.2301 62.935 7.81174C62.3728 8.22878 62.5276 8.63223 62.523 8.96994C62.4957 11.5719 62.4434 14.1739 62.4775 16.7759C62.5276 20.468 62.2863 24.1579 62.4935 27.8501C62.3478 28.3578 61.9222 28.2604 61.5603 28.2626C59.7464 28.2694 57.9302 28.24 56.1163 28.2694C55.4631 28.2808 55.2764 28.0745 55.3106 27.4217C55.372 26.2227 55.3265 25.017 55.3265 23.8134C55.5541 22.3017 55.4972 20.7853 55.4449 19.2668C55.4562 18.2604 55.7567 17.2428 55.322 16.2546C55.3607 16.1956 55.3515 16.1435 55.2969 16.1004C55.4631 15.6245 55.149 15.0646 55.5518 14.6295C55.7134 14.081 55.6861 13.5279 55.5791 12.9749C55.7407 12.4287 55.6975 11.8779 55.6133 11.3249C55.6861 11.2682 55.6975 11.2002 55.6451 11.1254C55.7703 9.3122 55.7999 7.49669 55.7407 5.67894H55.743Z" fill="#4B4848"/>
</g>
</svg>
