<svg width="1400" height="1745" viewBox="0 0 1400 1745" fill="none" xmlns="http://www.w3.org/2000/svg">
<path d="M1397.27 0.13951C1398.58 -0.373908 1400 0.593239 1400 2.00182V976.615C1400 1004.79 1400 1018.88 1395.14 1030.93C1391.53 1039.9 1386.01 1047.98 1378.98 1054.61C1369.53 1063.53 1356.41 1068.67 1330.17 1078.94L784.578 1292.5C758.898 1302.55 742 1327.31 742 1354.89V1387.41C742 1415.87 742 1430.1 737.059 1442.24C733.385 1451.27 727.785 1459.39 720.65 1466.03C711.054 1474.96 697.753 1480.02 671.151 1490.12L2.70996 1744.13C1.40115 1744.63 1.68316e-05 1743.66 0 1742.26V754.262C0 725.804 0 711.575 4.941 699.433C8.615 690.404 14.2149 682.285 21.3501 675.643C30.9458 666.711 44.2468 661.657 70.8487 651.548L536.799 474.487C562.806 464.605 580 439.678 580 411.856V395.03C580 366.856 580 352.768 584.861 340.712C588.476 331.747 593.988 323.67 601.019 317.035C610.474 308.114 623.592 302.98 649.829 292.71L1397.27 0.13951Z" fill="#FF005C"/>
</svg>
