<svg width="179" height="89" viewBox="0 0 179 89" fill="none" xmlns="http://www.w3.org/2000/svg">
<path d="M34.5466 0.110372L34.6177 8.30601H45.3184L45.3788 33.8008L53.5602 33.7155V8.30601H64.3196V0.0393066L34.5466 0.110372Z" fill="#4B4848"/>
<path d="M96.6829 0.0725098L96.7078 12.8252L83.6495 12.8608V0.0725098H75.3828L75.4556 33.7967L83.6495 33.7114V21.0671H96.7309L96.7557 33.7967L104.937 33.7114V0.0725098H96.6829Z" fill="#4B4848"/>
<path d="M144.023 0.000244141L117.361 0.0730864L117.434 33.7973H144.023V26.3105L125.932 26.3585V20.3268H142.565V12.8382L125.932 12.8862V7.48878H144.023V0.000244141Z" fill="#4B4848"/>
<mask id="mask0_8087_3752" style="mask-type:luminance" maskUnits="userSpaceOnUse" x="0" y="0" width="179" height="89">
<path d="M178.57 0.000793457H0V88.7688H178.57V0.000793457Z" fill="white"/>
</mask>
<g mask="url(#mask0_8087_3752)">
<path d="M79.668 71.3357C79.5703 71.3623 79.5205 71.3748 79.4619 71.3268C79.4139 71.2877 79.35 71.1793 79.302 70.8969C79.2558 70.6179 79.1954 70.1702 79.183 69.6692C79.183 69.1842 79.2292 68.6512 79.215 68.3101C79.215 67.9796 79.1421 67.8481 79.1084 67.8339C79.0711 67.8073 79.0711 67.9068 79.0231 68.0525C78.984 68.1964 78.8898 68.4025 78.7673 68.5286C78.6464 68.6494 78.4759 68.6956 78.3551 68.82C78.2343 68.9408 78.149 69.1327 78.1365 69.6354C78.1099 70.1453 78.1632 70.9608 78.1632 71.723C78.1756 72.5029 78.1365 73.2189 77.9038 73.5849C77.6711 73.9616 77.2482 73.9829 76.9089 73.9616C76.5784 73.9349 76.3475 73.8638 76.2018 73.5583C76.0579 73.2545 75.9957 72.7215 75.9495 72.3057C75.8962 71.8935 75.8624 71.6022 75.7896 71.4316C75.7043 71.2611 75.5835 71.238 75.4716 71.238C75.365 71.238 75.2655 71.2842 75.2335 71.4903C75.1944 71.6875 75.2211 72.041 75.1482 72.2826C75.0861 72.51 74.9155 72.622 74.7449 72.6486C74.5637 72.6842 74.3665 72.6095 74.2084 72.439C74.052 72.272 73.9295 71.9913 73.9081 71.1403C73.8815 70.2892 73.9543 68.8555 74.0147 68.0258C74.0734 67.2014 74.1355 66.9954 74.1 66.7644C74.0609 66.5352 73.9526 66.2882 73.8548 66.2545C73.7607 66.2172 73.6878 66.3877 73.5635 66.5459C73.432 66.7146 73.2597 66.8728 73.1993 67.0789C73.1406 67.2761 73.2117 67.4946 73.2259 68.1981C73.2455 68.8928 73.2259 70.0601 73.1993 70.7423C73.1726 71.4192 73.1637 71.6288 73.0287 71.7496C72.9079 71.8811 72.6538 71.9291 72.5099 72.0144C72.3625 72.1121 72.3252 72.2329 72.2274 72.359C72.1439 72.4905 72.0089 72.6113 71.8295 72.6593C71.6429 72.709 71.4368 72.6593 71.2787 72.4905C71.1313 72.3199 71.0371 72.0144 71.014 71.9291C70.9873 71.8474 71.0264 71.9682 70.9518 72.0996C70.8665 72.2329 70.6604 72.3661 70.4899 72.4177C70.3104 72.4532 70.1505 72.391 70.0866 72.3199C70.0137 72.2471 70.028 72.176 70.0386 71.4778C70.0386 70.7743 70.0386 69.4613 69.9924 68.6956C69.9391 67.9334 69.8325 67.7131 69.7224 67.5888C69.6158 67.4555 69.4808 67.4217 69.3475 67.5159C69.2036 67.6136 69.0561 67.8464 68.9318 68.04C68.8252 68.2461 68.7523 68.4167 68.7523 68.5499C68.7612 68.6849 68.8465 68.7791 68.8998 69.2179C68.9318 69.6674 68.9318 70.458 68.9122 71.0194C68.8856 71.5649 68.8376 71.8705 68.7257 72.0677C68.6155 72.2738 68.461 72.3679 68.2638 72.3679C68.0701 72.359 67.8391 72.2471 67.6935 72.1139C67.5602 71.9699 67.5122 71.81 67.4874 71.5666C67.4607 71.325 67.4607 71.0088 67.5122 70.7156C67.5602 70.4243 67.6597 70.1595 67.7929 69.9144C67.9138 69.6692 68.0719 69.4382 68.1572 69.1469C68.2424 68.8662 68.2638 68.5286 68.2424 68.2372C68.2051 67.9459 68.1181 67.7007 68.0133 67.5799C67.9155 67.4555 67.8072 67.4555 67.7094 67.5799C67.6224 67.6865 67.562 67.9192 67.5371 68.0773C67.5158 68.2461 67.5247 68.3438 67.4643 68.5286C67.4056 68.708 67.2848 68.9781 67.1001 69.1326C66.9277 69.2908 66.7021 69.3512 66.5155 69.3174C66.345 69.2783 66.2117 69.17 66.1051 69.0385C65.9932 68.9052 65.8866 68.7578 65.8333 67.4217C65.7871 66.0822 65.7871 63.5522 65.812 62.2269C65.8333 60.9033 65.8866 60.7558 65.9062 60.5906C65.9452 60.4182 65.9452 60.2121 65.86 59.9687C65.7871 59.7147 65.6414 59.4109 65.5562 59.0946C65.4709 58.7766 65.4584 58.4497 65.398 58.2188C65.3501 57.9896 65.2381 57.8688 65.0853 57.7941C64.913 57.7355 64.6821 57.7355 64.5755 57.7835C64.4511 57.8421 64.4369 57.9416 64.428 58.121C64.428 58.3058 64.428 58.5723 64.4013 58.9756C64.3765 59.3878 64.3427 59.9226 64.3552 60.2264C64.364 60.5177 64.4369 60.5799 64.5079 60.6385C64.5826 60.7132 64.6678 60.7984 64.7176 62.2695C64.7656 63.7406 64.7656 66.5832 64.7389 68.1022C64.7265 69.6123 64.6803 69.7918 64.6181 69.9037C64.5452 70.0103 64.4475 70.0512 64.3143 70.0512C64.1828 70.0512 64.0105 70.0121 63.8524 69.9037C63.6854 69.806 63.5255 69.639 63.4277 69.4418C63.3425 69.2481 63.33 69.0172 63.3069 68.8466C63.2945 68.6654 63.2696 68.5464 63.2092 68.5659C63.1506 68.5926 63.0653 68.772 62.9907 68.9443C62.9178 69.1149 62.8468 69.273 62.8201 69.4915C62.7882 69.7101 62.7882 69.9766 62.8326 70.2928C62.8717 70.6197 62.9658 70.9963 62.9907 71.3001C63.0298 71.604 63.0031 71.8367 62.9445 71.9948C62.8717 72.1636 62.7739 72.2613 62.6887 72.2951C62.614 72.3217 62.5412 72.2862 62.4559 72.2222C62.3706 72.1636 62.2498 72.0694 62.129 71.8953C62.0171 71.7106 61.8838 71.4458 61.811 71.2397C61.7524 71.0337 61.7382 70.8862 61.7524 70.657C61.779 70.4243 61.8252 70.1205 61.8732 69.8557C61.9229 69.5839 61.9709 69.3654 62.058 69.1344C62.1308 68.9159 62.225 68.6956 62.3102 68.3918C62.3955 68.0791 62.4577 67.6758 62.4701 67.3507C62.4826 67.0327 62.4435 66.7875 62.3635 66.6294C62.2658 66.473 62.1308 66.402 62.0064 66.3629C61.8856 66.3309 61.7879 66.3309 61.6937 66.3504C61.5836 66.3895 61.4876 66.4481 61.4024 66.569C61.3171 66.7022 61.2585 66.887 61.2176 67.0789C61.1963 67.2761 61.1963 67.4555 61.159 67.642C61.1323 67.8215 61.0613 68.0063 60.9653 68.1519C60.8676 68.2834 60.7201 68.3811 60.5354 68.4433C60.3417 68.5019 60.0965 68.5162 59.8905 68.4557C59.6719 68.39 59.4783 68.2692 59.3557 68.1626C59.2224 68.0525 59.162 67.9654 59.1372 65.7926C59.1016 63.6268 59.1016 59.3718 59.1869 57.1599C59.2722 54.9604 59.4285 54.8129 59.5653 54.6921C59.6968 54.5695 59.7945 54.4736 59.83 54.4008C59.8762 54.3155 59.8425 54.2426 59.8176 54.1218C59.7821 53.9975 59.7448 53.8305 59.711 53.5C59.6719 53.1731 59.6382 52.6845 59.6133 52.2954C59.6009 51.9099 59.6009 51.631 59.528 51.4711C59.4694 51.3005 59.3486 51.2543 59.2491 51.2419C59.1638 51.2295 59.1158 51.2543 59.043 51.3361C58.9684 51.4213 58.8582 51.5794 58.6894 52.068C58.5047 52.5548 58.2542 53.381 58.0676 53.9655C57.8829 54.5606 57.7763 54.9124 57.7301 55.131C57.691 55.337 57.7301 55.4223 57.7887 55.4703C57.8509 55.52 57.9219 55.5431 57.9575 55.6018C57.9823 55.6675 57.9681 55.7741 57.9681 57.5845C57.9575 59.3984 57.9575 62.9109 57.9486 64.7444C57.9219 66.5814 57.8828 66.7413 57.7887 66.8479C57.691 66.9705 57.5453 67.0451 57.3534 67.0771C57.1544 67.1037 56.9146 67.0895 56.7085 67.0451C56.4988 67.006 56.3407 66.9332 56.2075 66.7733C56.0742 66.6294 55.9747 66.4002 55.9285 66.1692C55.8806 65.9258 55.893 65.6806 55.8806 65.4532C55.8539 65.224 55.8077 64.9913 55.7225 64.8652C55.6478 64.7337 55.5288 64.7124 55.4187 64.7444C55.3121 64.7834 55.2126 64.8918 55.1148 65.0375C55.0082 65.1956 54.9088 65.3875 54.8608 65.6789C54.811 65.9702 54.811 66.3611 54.8484 66.7395C54.8963 67.1162 54.9816 67.4928 55.1291 67.8695C55.2605 68.2443 55.4577 68.6121 55.591 68.9976C55.7384 69.3885 55.8237 69.7865 55.8326 70.156C55.845 70.506 55.7846 70.8205 55.6763 71.1029C55.5643 71.3819 55.4204 71.6271 55.2268 71.7798C55.0296 71.9273 54.7879 71.9895 54.605 71.9895C54.4255 71.9895 54.2869 71.9255 54.207 71.8189C54.1217 71.707 54.0595 71.5631 54.0471 71.3694C54.0222 71.1829 54.0364 70.9573 54.0951 70.7121C54.1679 70.4562 54.2798 70.188 54.3598 69.9588C54.4451 69.726 54.4984 69.52 54.4841 69.3867C54.4841 69.2552 54.4255 69.1931 54.3402 69.1682C54.2656 69.1557 54.1803 69.1806 54.1217 69.2748C54.0471 69.3867 54.0098 69.559 53.9494 69.726C53.8907 69.8966 53.7912 70.0672 53.6971 70.156C53.5852 70.2377 53.4519 70.2626 53.3293 70.2146C53.2085 70.1755 53.0753 70.0903 52.99 70.0299C52.9171 69.9819 52.8692 69.957 52.8567 68.8875C52.8319 67.8162 52.8319 65.7286 52.8443 64.5827C52.8567 63.4545 52.8834 63.2964 52.9562 63.1489C53.0184 63.0175 53.1126 62.8931 53.1623 62.6994C53.2103 62.4933 53.1836 62.202 53.1748 61.8449C53.1481 61.4949 53.125 61.0685 53.0504 60.85C52.9776 60.6314 52.8443 60.6048 52.7377 60.6918C52.6276 60.7771 52.521 60.9832 52.3824 61.287C52.2491 61.5908 52.091 61.9906 51.9702 62.2944C51.8636 62.5857 51.7996 62.7829 51.7996 62.8771C51.7996 62.989 51.8636 63.0015 51.9347 63.021C52.0093 63.0477 52.0821 63.0867 52.1159 64.0337C52.1621 64.9824 52.1745 66.8408 52.1621 67.873C52.1532 68.8981 52.1159 69.0918 52.0182 69.2126C51.9116 69.3458 51.7517 69.4098 51.5935 69.4187C51.4461 69.4453 51.3022 69.4187 51.1956 69.3458C51.0979 69.2623 51.0108 69.1398 50.9984 68.9923C50.9771 68.8484 51.0108 68.6796 51.0232 68.5073C51.0357 68.3225 51.0232 68.1431 50.9859 68.0187C50.938 67.9121 50.8651 67.8712 50.7674 67.8712C50.6857 67.8837 50.588 67.937 50.5027 68.0684C50.4174 68.2159 50.3552 68.4469 50.3304 68.6778C50.2984 68.9195 50.2984 69.1753 50.3694 69.4418C50.4423 69.7065 50.6022 69.989 50.7088 70.2573C50.8314 70.522 50.906 70.792 50.8527 71.0337C50.8065 71.2771 50.62 71.4956 50.4032 71.5702C50.1847 71.6555 49.9164 71.6075 49.673 71.5435C49.4403 71.4814 49.2342 71.3961 49.1151 71.325C48.9961 71.2522 48.9304 71.1776 48.8859 70.2697C48.838 69.3689 48.7882 67.6332 48.7651 66.3078C48.7527 64.9824 48.7651 64.0692 48.7527 63.7423C48.7403 63.4012 48.7065 63.6446 48.6674 64.0088C48.6195 64.3855 48.5821 64.8954 48.52 65.4301C48.4613 65.9542 48.3761 66.5121 48.2908 67.1943C48.2162 67.8837 48.1575 68.6867 48.0367 69.1024C47.9248 69.5004 47.7667 69.5004 47.6956 69.5733C47.621 69.6585 47.6476 69.806 47.621 70.0512C47.6014 70.3035 47.5268 70.6463 47.4042 70.8649C47.2976 71.071 47.1377 71.1687 46.8464 71.1918C46.555 71.2184 46.1037 71.1793 45.7875 71.0852C45.4695 70.9875 45.2776 70.8293 45.203 70.6623C45.1177 70.4758 45.1443 70.2839 45.1781 69.5288C45.2154 68.7862 45.2634 67.4875 45.2278 66.7928C45.1905 66.0893 45.0697 65.9649 44.972 65.9187C44.8867 65.8565 44.8388 65.8565 44.6451 65.8565C44.4479 65.8565 44.0944 65.8565 43.8527 65.8921C43.5987 65.9187 43.4281 65.9773 43.3428 66.0626C43.2611 66.1479 43.2487 66.2474 43.222 66.4659C43.1954 66.6844 43.1758 67.0113 43.1758 67.8393C43.1634 68.653 43.1758 69.9783 43.1225 70.6357C43.0763 71.2913 42.9697 71.2913 42.7956 71.2664C42.6251 71.254 42.3923 71.2184 42.2609 71.071C42.1276 70.9271 42.0885 70.6677 42.0423 70.5149C42.0068 70.3568 41.9446 70.2963 41.8629 70.2324C41.7758 70.1702 41.6444 70.1258 41.5591 70.0387C41.472 69.9641 41.4258 69.8451 41.3725 69.8788C41.3406 69.9055 41.3139 70.0849 41.2535 70.2821C41.1789 70.4758 41.0599 70.6943 40.9497 70.7547C40.8378 70.8134 40.717 70.7334 40.6459 70.6073C40.5713 70.474 40.5393 70.3159 40.5126 69.2677C40.486 68.2354 40.4665 66.3273 40.454 65.2845C40.4416 64.2362 40.4274 64.0532 40.3918 63.8862C40.3545 63.7157 40.2941 63.5416 40.2071 63.3621C40.1218 63.1774 40.0276 62.9855 39.9423 62.6675C39.8571 62.3548 39.7949 61.9373 39.77 61.8164C39.7363 61.6939 39.7363 61.8786 39.7114 62.0829C39.6989 62.2766 39.6634 62.5076 39.5995 62.751C39.5266 62.9961 39.4467 63.236 39.3578 63.4456C39.2601 63.6517 39.1731 63.7992 39.1286 63.9555C39.0665 64.103 39.0434 64.2593 39.0309 65.1832C39.0309 66.1195 39.0434 67.8339 39.0309 68.7684C39.0185 69.7047 38.983 69.8611 38.8835 69.973C38.7858 70.0796 38.6312 70.1329 38.4215 70.1329C38.2154 70.1329 38.1799 70.1205 37.9116 70.0707C37.5847 68.5606 37.4017 66.9918 37.4017 65.3875C37.4017 53.452 47.0827 43.7711 59.0306 43.7711C70.9696 43.7711 80.6469 53.452 80.6469 65.3875C80.6469 67.4413 80.3556 69.424 79.8315 71.2966C79.668 71.3357 79.7657 71.3268 79.668 71.3357ZM59.011 42.0513C46.1002 42.0513 35.6447 52.5069 35.6447 65.4053C35.6447 78.3072 46.1002 88.7716 59.011 88.7716C71.913 88.7716 82.3649 78.3072 82.3649 65.4053C82.3649 52.5069 71.913 42.0513 59.011 42.0513Z" fill="#4B4848"/>
</g>
<path d="M0 48.4188L0.0852787 56.6127H10.7718L10.8322 82.1074L19.0154 82.0222V56.6127H29.7729V48.3459L0 48.4188Z" fill="#4B4848"/>
<path d="M170.316 48.3831L170.349 66.9827L170.472 67.1515L156.042 48.3831L147.895 48.4168L147.98 82.1321L156.165 82.0468L156.042 63.337L170.472 82.1072L178.568 82.0202V48.3831H170.316Z" fill="#4B4848"/>
<path d="M95.1443 48.3929L101.538 68.0638L107.716 48.3929L116.238 48.3804L122.56 67.9661L128.796 48.2596L138.254 48.3449L127.021 82.3498H118.791L111.983 62.6664L105.186 82.3498H97.0044L85.6855 48.4177L95.1443 48.3929Z" fill="#4B4848"/>
</svg>
