<svg width="148" height="40" viewBox="0 0 148 40" fill="none" xmlns="http://www.w3.org/2000/svg">
<mask id="mask0_8087_3724" style="mask-type:luminance" maskUnits="userSpaceOnUse" x="0" y="0" width="148" height="40">
<path d="M147.933 0H0V39.5241H147.933V0Z" fill="white"/>
</mask>
<g mask="url(#mask0_8087_3724)">
<path d="M145.091 39.4849H140.922V12.1093C140.925 12.0747 140.929 12.0397 140.933 12.0053L140.906 11.9985C140.889 12.0338 140.872 12.0693 140.855 12.1042C140.315 13.4396 139.775 14.7745 139.236 16.11C138.774 17.2521 138.314 18.3951 137.85 19.5367C137.403 20.6409 136.95 21.7434 136.503 22.8481C136.089 23.8706 135.681 24.8961 135.266 25.9182C134.889 26.8468 134.503 27.7712 134.126 28.7001C133.735 29.6662 133.35 30.6352 132.96 31.6027C132.728 32.1804 132.488 32.7553 132.26 33.3347C132.207 33.4699 132.116 33.4711 132.001 33.4711C129.988 33.4691 127.973 33.4694 125.961 33.4694C125.714 33.4694 125.466 33.4771 125.221 33.464C125.159 33.4606 125.069 33.4051 125.046 33.3499C124.528 32.063 124.015 30.7734 123.505 29.483C123.136 28.5515 122.777 27.6166 122.405 26.6863C121.952 25.5547 121.487 24.4282 121.035 23.2962C120.664 22.3659 120.306 21.4302 119.935 20.499C119.593 19.637 119.243 18.7779 118.9 17.9167C118.448 16.7851 118.001 15.6514 117.547 14.5202C117.179 13.5988 116.803 12.6799 116.41 11.707V39.4525H109.397V0.0033697C109.459 0.0033697 109.524 0.0033697 109.59 0.0033697C112.604 0.0033697 115.617 0.00463223 118.631 0C118.8 0 118.861 0.0551689 118.927 0.222358C119.294 1.16948 119.688 2.10566 120.069 3.04732C120.441 3.9696 120.806 4.89524 121.181 5.81752C121.531 6.68337 121.893 7.545 122.245 8.41127C122.661 9.44011 123.069 10.4727 123.486 11.5015C123.908 12.5435 124.341 13.5811 124.762 14.6225C125.136 15.5448 125.499 16.4709 125.873 17.3936C126.319 18.4986 126.772 19.6008 127.219 20.705C127.634 21.7275 128.043 22.7521 128.457 23.775C128.508 23.8993 128.571 24.018 128.656 24.1949C128.764 23.9215 128.852 23.6938 128.945 23.468C129.272 22.6725 129.602 21.8787 129.927 21.0822C130.273 20.2362 130.614 19.3881 130.956 18.5407C131.245 17.8252 131.531 17.1085 131.822 16.3938C132.105 15.6977 132.397 15.0049 132.68 14.3084C132.973 13.587 133.257 12.8626 133.549 12.1404C134 11.0164 134.454 9.8924 134.91 8.77008C135.302 7.804 135.703 6.84088 136.095 5.87479C136.51 4.85271 136.917 3.82682 137.333 2.80474C137.682 1.94521 138.043 1.09116 138.387 0.229939C138.448 0.0795936 138.534 0.0631697 138.665 0.0631697C141.672 0.065697 144.679 0.0652758 147.686 0.0640121C147.767 0.0640121 147.848 0.0517992 147.929 0.0454821V39.5241H147.435C147.38 39.5102 147.323 39.4841 147.267 39.4841C146.542 39.482 145.816 39.4841 145.091 39.4849Z" fill="#4B4848"/>
<path d="M145.092 39.484C145.818 39.4831 146.543 39.4815 147.268 39.4831C147.324 39.4831 147.381 39.5092 147.437 39.5232H145.095C145.102 39.5097 145.101 39.4967 145.093 39.484H145.092Z" fill="#4B4848"/>
<path d="M57.0629 8.9897V0.0566406H87.991V8.97075H76.2127V39.4721H68.7159V8.9897H57.0629Z" fill="#4B4848"/>
<path d="M0 8.9678V0.0566406H47.8553V8.9678H0Z" fill="#4B4848"/>
<path d="M100.253 39.4761H91.7876V0.0585938H100.253V39.4761Z" fill="#4B4848"/>
<path d="M28.5844 15.3555H47.8538V24.2928H28.5844V15.3555Z" fill="#4B4848"/>
<path d="M47.8525 39.4761H28.5844V30.5586H47.8525V39.4761Z" fill="#4B4848"/>
<path d="M0 24.2915V15.3613H19.255V24.2915H0Z" fill="#4B4848"/>
<path d="M0 39.4692V30.5605H19.253V39.4692H0Z" fill="#4B4848"/>
<path d="M140.857 12.1037C140.874 12.0684 140.891 12.0331 140.908 11.998L140.936 12.0048C140.932 12.0394 140.928 12.0743 140.924 12.1088C140.902 12.1071 140.88 12.1054 140.857 12.1037Z" fill="#4B4848"/>
</g>
</svg>
