<svg width="59" height="46" viewBox="0 0 59 46" fill="none" xmlns="http://www.w3.org/2000/svg">
<path d="M42.057 43.5595H16.6854C16.0964 43.5595 15.619 43.082 15.619 42.4931L15.619 17.7057C15.619 16.8202 14.6023 16.3205 13.9012 16.8613L10.3761 19.5807C9.92275 19.9304 9.27421 19.8598 8.90681 19.4207L3.24 12.6482C2.83098 12.1593 2.93927 11.4232 3.47175 11.0729L15.3522 3.25681C15.5262 3.14232 15.73 3.0813 15.9383 3.0813H21.0856C21.4515 3.0813 21.7902 3.27246 21.9993 3.57269C26.0153 9.33751 32.6827 8.71545 34.8869 3.79904C35.0747 3.38019 35.4757 3.0813 35.9348 3.0813H42.8075C43.0137 3.0813 43.2154 3.14105 43.3883 3.25332L55.4336 11.075C55.9703 11.4235 56.0813 12.1629 55.6707 12.6537L49.9996 19.4313C49.6358 19.8661 48.9954 19.9402 48.5419 19.6001L44.8296 16.8159C44.1266 16.2886 43.1234 16.7902 43.1234 17.669V42.4931C43.1234 43.082 42.6459 43.5595 42.057 43.5595Z" stroke="#1E1E1E" stroke-width="4.26565"/>
</svg>
