<svg width="53" height="53" viewBox="0 0 53 53" fill="none" xmlns="http://www.w3.org/2000/svg">
<path d="M26.5796 0.156982C41.1504 0.156982 52.9622 11.9691 52.9624 26.5398C52.9624 41.1107 41.1505 52.9226 26.5796 52.9226C12.0088 52.9225 0.196777 41.1106 0.196777 26.5398C0.196964 11.9692 12.0089 0.157128 26.5796 0.156982ZM26.5796 5.48901C14.9538 5.48916 5.529 14.914 5.52881 26.5398C5.52881 38.1658 14.9536 47.5904 26.5796 47.5906C38.2057 47.5906 47.6304 38.1659 47.6304 26.5398C47.6302 14.9139 38.2055 5.48901 26.5796 5.48901ZM36.8462 18.5779C37.6965 17.763 39.0467 17.7912 39.8618 18.6414C40.6767 19.4915 40.6482 20.8408 39.7983 21.656L26.0444 34.8435C24.775 36.0606 22.7611 36.0247 21.5356 34.7634L17.1841 30.2849C16.3634 29.44 16.3831 28.0891 17.228 27.2683C18.0729 26.4479 19.424 26.4675 20.2446 27.3123L23.8569 31.031L36.8462 18.5779Z" fill="#1E1E1E"/>
</svg>
