<svg width="48" height="57" viewBox="0 0 48 57" fill="none" xmlns="http://www.w3.org/2000/svg">
<path d="M45.7681 15.5254L32.6869 47.569C30.8552 52.0559 25.922 54.4255 21.2747 53.0505L12.8451 50.5566C8.32708 49.2199 5.48763 44.755 6.19298 40.0964L11.2988 6.37451" stroke="#1E1E1E" stroke-width="2.94853"/>
<ellipse cx="28.4826" cy="11.1434" rx="17.8316" ry="5.82632" transform="rotate(14.8678 28.4826 11.1434)" stroke="#1E1E1E" stroke-width="2.94853"/>
<path d="M34.3715 25.5098C34.3715 25.5098 34.3715 25.5098 34.3715 25.5098C33.9327 25.7911 33.4973 26.0759 33.0653 26.3643C30.5161 28.0662 28.0847 29.8922 25.7712 31.8422L27.539 31.7819C26.3773 30.6975 25.1855 29.6495 23.9636 28.6379C23.5681 28.3104 23.1694 27.9868 22.7676 27.6669C22.1471 27.1328 21.2598 27.2351 20.7205 27.8511C18.1444 31.0328 15.8087 34.4171 13.7133 38.0037C13.4513 38.4522 13.193 38.9039 12.9385 39.3587C13.3434 39.0305 13.7445 38.6991 14.1419 38.3645C17.3194 35.6891 20.2565 32.8113 22.9532 29.7311L20.9062 29.9152C21.2954 30.2503 21.6878 30.5816 22.0833 30.9091C23.3052 31.9207 24.5572 32.896 25.8393 33.8349C26.3761 34.228 27.1527 34.2607 27.607 33.7745C29.6729 31.5639 31.621 29.2292 33.4512 26.7705C33.7613 26.3538 34.0681 25.9336 34.3715 25.5098Z" fill="#1E1E1E"/>
</svg>
