<svg width="52" height="52" viewBox="0 0 52 52" fill="none" xmlns="http://www.w3.org/2000/svg">
<path d="M28.9019 1.4834L28.9023 0.0434926H28.9019V1.4834ZM31.7808 4.36328L33.2207 4.36328L33.2207 4.36319L31.7808 4.36328ZM37.0825 6.55957L38.1006 7.57783L38.1007 7.57774L37.0825 6.55957ZM41.1548 6.55957L40.1366 7.57774L40.1367 7.57786L41.1548 6.55957ZM45.2261 10.6299L46.2445 9.61193L46.2441 9.61159L45.2261 10.6299ZM45.2261 14.7021L46.2442 15.7203L46.2444 15.7201L45.2261 14.7021ZM47.4214 20.0039L47.4215 18.564H47.4214V20.0039ZM50.3013 22.8838L51.7412 22.8838L51.7412 22.8837L50.3013 22.8838ZM50.3013 28.6406L51.7412 28.6408V28.6406H50.3013ZM47.4214 31.5205L47.4214 32.9604L47.4215 32.9604L47.4214 31.5205ZM45.2251 36.8213L46.2434 35.8033L46.2433 35.8031L45.2251 36.8213ZM37.0815 44.9648L36.0634 45.983L36.0635 45.9832L37.0815 44.9648ZM31.7808 47.1611L33.2207 47.1613V47.1611H31.7808ZM28.9019 50.041L28.9019 51.4809L28.9023 51.4809L28.9019 50.041ZM23.144 50.041L23.1439 51.4809H23.144V50.041ZM20.2642 47.1611L18.8243 47.1611L18.8243 47.1613L20.2642 47.1611ZM14.9634 44.9648L13.9452 43.9467L14.9634 44.9648ZM10.8901 44.9648L9.87197 45.983L9.87213 45.9832L10.8901 44.9648ZM6.81982 36.8213L5.80166 35.8031L6.81982 36.8213ZM4.62354 31.5205L4.62341 32.9604H4.62354V31.5205ZM1.74365 28.6406L0.303746 28.6406L0.303746 28.6408L1.74365 28.6406ZM1.74365 22.8838L0.303746 22.8837V22.8838H1.74365ZM4.62354 20.0039L4.62354 18.564L4.62341 18.564L4.62354 20.0039ZM6.81885 14.7021L5.80051 15.7201L5.80068 15.7203L6.81885 14.7021ZM6.81885 10.6299L5.80068 9.61172L5.80053 9.61187L6.81885 10.6299ZM10.8901 6.55859L9.87204 5.54036L9.87197 5.54043L10.8901 6.55859ZM14.9624 6.55859L15.9806 5.54043L15.9804 5.54025L14.9624 6.55859ZM20.2642 4.36328L18.8243 4.3632V4.36328H20.2642ZM23.144 1.4834L23.144 0.0434925L23.1439 0.0434926L23.144 1.4834ZM26.0044 17.8086L26.0045 16.3687H26.0044V17.8086ZM17.8735 25.9385L16.4336 25.9384V25.9385H17.8735ZM26.0044 34.0693L26.0044 35.5092L26.0045 35.5092L26.0044 34.0693ZM34.1343 25.9385L35.5742 25.9385L35.5742 25.9384L34.1343 25.9385ZM7.20446 36.4367L6.18629 35.4185L7.20446 36.4367ZM15.348 44.5802L14.3298 43.562L15.348 44.5802ZM36.6967 6.9453L35.6786 5.92704L36.6967 6.9453ZM28.9019 1.4834L28.9015 2.9233C29.6962 2.92352 30.3408 3.56809 30.3409 4.36337L31.7808 4.36328L33.2207 4.36319C33.2205 1.97823 31.2875 0.0441521 28.9023 0.0434926L28.9019 1.4834ZM31.7808 4.36328H30.3409V4.90878H31.7808H33.2207V4.36328H31.7808ZM36.6967 6.9453L37.7148 7.96356L38.1006 7.57783L37.0825 6.55957L36.0644 5.54131L35.6786 5.92704L36.6967 6.9453ZM37.0825 6.55957L38.1007 7.57774C38.663 7.01542 39.5743 7.01542 40.1366 7.57774L41.1548 6.55957L42.173 5.5414C40.486 3.85445 37.7513 3.85445 36.0644 5.5414L37.0825 6.55957ZM41.1548 6.55957L40.1367 7.57786L44.208 11.6482L45.2261 10.6299L46.2441 9.61159L42.1728 5.54128L41.1548 6.55957ZM45.2261 10.6299L44.2077 11.6478C44.7698 12.2102 44.7697 13.1219 44.2077 13.6842L45.2261 14.7021L46.2444 15.7201C47.9307 14.0333 47.9305 11.2987 46.2445 9.61193L45.2261 10.6299ZM45.2261 14.7021L44.2079 13.684L43.8223 14.0696L44.8405 15.0878L45.8586 16.1059L46.2442 15.7203L45.2261 14.7021ZM46.8768 20.0039V21.4438H47.4214V20.0039V18.564H46.8768V20.0039ZM47.4214 20.0039L47.4212 21.4438C48.2164 21.4439 48.8613 22.0888 48.8614 22.8839L50.3013 22.8838L51.7412 22.8837C51.741 20.4983 49.8069 18.5643 47.4215 18.564L47.4214 20.0039ZM50.3013 22.8838H48.8614V28.6406H50.3013H51.7412V22.8838H50.3013ZM50.3013 28.6406L48.8614 28.6405C48.8613 29.4356 48.2163 30.0805 47.4212 30.0806L47.4214 31.5205L47.4215 32.9604C49.8069 32.9601 51.7409 31.0261 51.7412 28.6408L50.3013 28.6406ZM47.4214 31.5205V30.0806H46.8768V31.5205V32.9604H47.4214V31.5205ZM44.8405 36.4367L43.8223 37.4548L44.2069 37.8395L45.2251 36.8213L46.2433 35.8031L45.8586 35.4185L44.8405 36.4367ZM45.2251 36.8213L44.2068 37.8393C44.7691 38.4018 44.769 39.3143 44.2069 39.8764L45.2251 40.8945L46.2433 41.9127C47.9303 40.2257 47.9297 37.4901 46.2434 35.8033L45.2251 36.8213ZM45.2251 40.8945L44.2069 39.8764L40.1366 43.9467L41.1548 44.9648L42.173 45.983L46.2433 41.9127L45.2251 40.8945ZM41.1548 44.9648L40.1366 43.9467C39.5746 44.5087 38.6621 44.5089 38.0995 43.9465L37.0815 44.9648L36.0635 45.9832C37.7503 47.6694 40.4859 47.67 42.173 45.983L41.1548 44.9648ZM37.0815 44.9648L38.0997 43.9467L37.7151 43.562L36.6969 44.5802L35.6787 45.5984L36.0634 45.983L37.0815 44.9648ZM31.7808 46.6165H30.3409V47.1611H31.7808H33.2207V46.6165H31.7808ZM31.7808 47.1611L30.3409 47.161C30.3408 47.9563 29.6961 48.6009 28.9015 48.6011L28.9019 50.041L28.9023 51.4809C31.2876 51.4803 33.2204 49.5461 33.2207 47.1613L31.7808 47.1611ZM28.9019 50.041V48.6011H23.144V50.041V51.4809H28.9019V50.041ZM23.144 50.041L23.1442 48.6011C22.3491 48.601 21.7042 47.9561 21.7041 47.161L20.2642 47.1611L18.8243 47.1613C18.8245 49.5466 20.7585 51.4807 23.1439 51.4809L23.144 50.041ZM20.2642 47.1611H21.7041V46.6165H20.2642H18.8243V47.1611H20.2642ZM15.348 44.5802L14.3298 43.562L13.9452 43.9467L14.9634 44.9648L15.9815 45.983L16.3662 45.5984L15.348 44.5802ZM14.9634 44.9648L13.9452 43.9467C13.3832 44.5087 12.4707 44.5089 11.9081 43.9465L10.8901 44.9648L9.87213 45.9832C11.5589 47.6694 14.2945 47.67 15.9815 45.983L14.9634 44.9648ZM10.8901 44.9648L11.9083 43.9467L7.83799 39.8764L6.81982 40.8945L5.80166 41.9127L9.87197 45.983L10.8901 44.9648ZM6.81982 40.8945L7.83799 39.8764C7.27567 39.314 7.27567 38.4018 7.83799 37.8395L6.81982 36.8213L5.80166 35.8031C4.1147 37.4901 4.1147 40.2257 5.80166 41.9127L6.81982 40.8945ZM6.81982 36.8213L7.83799 37.8395L8.22262 37.4548L7.20446 36.4367L6.18629 35.4185L5.80166 35.8031L6.81982 36.8213ZM5.16812 31.5205V30.0806H4.62354V31.5205V32.9604H5.16812V31.5205ZM4.62354 31.5205L4.62366 30.0806C3.82859 30.0805 3.18365 29.4356 3.18356 28.6405L1.74365 28.6406L0.303746 28.6408C0.304013 31.0261 2.23798 32.9602 4.62341 32.9604L4.62354 31.5205ZM1.74365 28.6406H3.18356V22.8838H1.74365H0.303746V28.6406H1.74365ZM1.74365 22.8838L3.18356 22.8839C3.18363 22.0888 3.82855 21.4439 4.62366 21.4438L4.62354 20.0039L4.62341 18.564C2.23799 18.5642 0.303973 20.4983 0.303746 22.8837L1.74365 22.8838ZM4.62354 20.0039V21.4438H5.16812V20.0039V18.564H4.62354V20.0039ZM7.20446 15.0878L8.22263 14.0696L7.83701 13.684L6.81885 14.7021L5.80068 15.7203L6.18629 16.1059L7.20446 15.0878ZM6.81885 14.7021L7.83719 13.6842C7.27508 13.1219 7.2751 12.2101 7.83717 11.6479L6.81885 10.6299L5.80053 9.61187C4.1142 11.2987 4.11426 14.0333 5.80051 15.7201L6.81885 14.7021ZM6.81885 10.6299L7.83701 11.6481L11.9083 7.57676L10.8901 6.55859L9.87197 5.54043L5.80068 9.61172L6.81885 10.6299ZM10.8901 6.55859L11.9082 7.57683C12.4704 7.01478 13.382 7.01469 13.9444 7.57693L14.9624 6.55859L15.9804 5.54025C14.2936 3.85403 11.559 3.85366 9.87204 5.54036L10.8901 6.55859ZM14.9624 6.55859L13.9442 7.57676L14.3298 7.96237L15.348 6.94421L16.3662 5.92604L15.9806 5.54043L14.9624 6.55859ZM20.2642 4.90787H21.7041V4.36328H20.2642H18.8243V4.90787H20.2642ZM20.2642 4.36328L21.7041 4.36337C21.7041 3.56831 22.349 2.92339 23.1442 2.9233L23.144 1.4834L23.1439 0.0434926C20.7586 0.0437425 18.8244 1.97767 18.8243 4.3632L20.2642 4.36328ZM23.144 1.4834V2.9233H28.9019V1.4834V0.0434926H23.144V1.4834ZM26.0044 17.8086V16.3687C20.7191 16.3687 16.4337 20.6528 16.4336 25.9384L17.8735 25.9385L19.3134 25.9385C19.3135 22.2437 22.3092 19.2485 26.0044 19.2485V17.8086ZM17.8735 25.9385H16.4336C16.4336 31.2241 20.7188 35.5092 26.0044 35.5092V34.0693V32.6294C22.3093 32.6294 19.3134 29.6336 19.3134 25.9385H17.8735ZM26.0044 34.0693L26.0045 35.5092C31.2899 35.5089 35.5742 31.2238 35.5742 25.9385H34.1343H32.6944C32.6944 29.6336 29.6991 32.6292 26.0043 32.6294L26.0044 34.0693ZM34.1343 25.9385L35.5742 25.9384C35.5741 20.6531 31.2897 16.369 26.0045 16.3687L26.0044 17.8086L26.0043 19.2485C29.6993 19.2487 32.6943 22.2437 32.6944 25.9385L34.1343 25.9385ZM15.348 6.94421L14.3298 7.96237C17.0511 10.6836 21.7041 8.75633 21.7041 4.90787H20.2642H18.8243C18.8243 6.19069 17.2733 6.83313 16.3662 5.92604L15.348 6.94421ZM5.16812 20.0039V21.4438C9.01658 21.4438 10.9439 16.7909 8.22263 14.0696L7.20446 15.0878L6.18629 16.1059C7.09338 17.013 6.45094 18.564 5.16812 18.564V20.0039ZM7.20446 36.4367L8.22262 37.4548C10.9439 34.7336 9.01659 30.0806 5.16812 30.0806V31.5205V32.9604C6.45094 32.9604 7.09338 34.5114 6.18629 35.4185L7.20446 36.4367ZM20.2642 46.6165H21.7041C21.7041 42.7681 17.0511 40.8408 14.3298 43.562L15.348 44.5802L16.3662 45.5984C17.2733 44.6913 18.8243 45.3337 18.8243 46.6165H20.2642ZM36.6969 44.5802L37.7151 43.562C34.9938 40.8408 30.3409 42.7681 30.3409 46.6165H31.7808H33.2207C33.2207 45.3337 34.7717 44.6913 35.6787 45.5984L36.6969 44.5802ZM46.8768 31.5205V30.0806C43.0283 30.0806 41.101 34.7336 43.8223 37.4548L44.8405 36.4367L45.8586 35.4185C44.9515 34.5114 45.594 32.9604 46.8768 32.9604V31.5205ZM44.8405 15.0878L43.8223 14.0696C41.101 16.7909 43.0283 21.4438 46.8768 21.4438V20.0039V18.564C45.594 18.564 44.9515 17.013 45.8586 16.1059L44.8405 15.0878ZM31.7808 4.90878H30.3409C30.3409 8.75704 34.9934 10.6844 37.7148 7.96356L36.6967 6.9453L35.6786 5.92704C34.7715 6.834 33.2207 6.19153 33.2207 4.90878H31.7808Z" fill="#1E1E1E"/>
</svg>
