<svg width="54" height="48" viewBox="0 0 54 48" fill="none" xmlns="http://www.w3.org/2000/svg">
<path d="M27.5544 0.325928C35.212 0.0268999 40.7129 3.91762 43.3357 9.28784C45.9217 14.5833 45.679 21.2558 42.1472 26.5125C39.7352 30.1025 38.5053 32.6234 37.9265 34.2595C37.6366 35.0791 37.5272 35.628 37.4968 35.9451C37.4905 36.0109 37.4907 36.0617 37.49 36.0984C37.8418 37.0623 37.4565 38.1658 36.533 38.6853C36.4656 38.7232 36.3963 38.7551 36.3269 38.7849C36.0395 38.959 35.7094 39.0674 35.3542 39.0886V40.1765C35.3542 44.4095 31.9231 47.8413 27.6902 47.8416C23.4572 47.8415 20.0251 44.4095 20.0251 40.1765V39.0955H19.8445C19.3874 39.0955 18.9651 38.9497 18.6179 38.7048C18.6046 38.6977 18.5901 38.6927 18.5769 38.6853C17.6533 38.1658 17.2679 37.0624 17.6199 36.0984C17.6192 36.0617 17.6193 36.0109 17.613 35.9451C17.5826 35.628 17.4732 35.079 17.1833 34.2595C16.6046 32.6235 15.3745 30.1023 12.9626 26.5125C9.43083 21.2557 9.18801 14.5833 11.7742 9.28784C14.3969 3.91771 19.8971 0.0270395 27.5544 0.325928ZM24.2908 40.1765C24.2908 42.0537 25.813 43.5758 27.6902 43.5759C29.5672 43.5757 31.0886 42.0536 31.0886 40.1765V39.1042H24.2908V40.1765ZM27.6687 4.5896C27.6305 4.59121 27.5923 4.58805 27.5544 4.58765C27.5169 4.58804 27.4791 4.59119 27.4412 4.5896C21.4724 4.33833 17.5066 7.27079 15.6072 11.1599C13.6637 15.1394 13.8522 20.1871 16.5037 24.1335C19.0378 27.9055 20.4678 30.7534 21.2048 32.8367C21.4644 33.5706 21.6449 34.235 21.7556 34.8298H33.3533C33.4639 34.235 33.6454 33.5707 33.905 32.8367C34.642 30.7533 36.0719 27.9056 38.6062 24.1335C41.2576 20.1872 41.446 15.1394 39.5027 11.1599C37.6033 7.27082 33.6373 4.33838 27.6687 4.5896ZM5.40894 23.2195C5.8999 22.8942 6.56215 23.0283 6.88745 23.5193C7.21274 24.0103 7.07765 24.6725 6.58667 24.9978L4.00366 26.7087C3.5127 27.034 2.85141 26.8999 2.52612 26.4089C2.20088 25.918 2.33511 25.2567 2.82593 24.9314L5.40894 23.2195ZM47.7761 23.5193C48.1015 23.0287 48.7628 22.8943 49.2537 23.2195L51.8367 24.9314C52.3276 25.2567 52.4617 25.918 52.1365 26.4089C51.8112 26.8998 51.1499 27.034 50.6589 26.7087L48.0759 24.9978C47.585 24.6725 47.4508 24.0103 47.7761 23.5193ZM52.6667 14.0359C53.2555 14.0361 53.7332 14.5135 53.7332 15.1023C53.7329 15.691 53.2554 16.1685 52.6667 16.1687H49.5681C48.9793 16.1687 48.5019 15.6911 48.5017 15.1023C48.5017 14.5133 48.9792 14.0359 49.5681 14.0359H52.6667ZM5.03491 14.0349C5.62376 14.0349 6.10113 14.5125 6.10132 15.1013C6.10131 15.6903 5.62387 16.1677 5.03491 16.1677H1.93628C1.34753 16.1675 0.869877 15.6901 0.869873 15.1013C0.870058 14.5127 1.34764 14.0352 1.93628 14.0349H5.03491ZM2.52612 3.7019C2.85143 3.2112 3.51279 3.07704 4.00366 3.4021L6.58667 5.11401C7.07759 5.43927 7.2126 6.10059 6.88745 6.59155C6.56216 7.08253 5.89992 7.21664 5.40894 6.89136L2.82593 5.18042C2.33495 4.85513 2.20084 4.19289 2.52612 3.7019ZM50.6589 3.4021C51.1499 3.077 51.8112 3.21197 52.1365 3.70288C52.4616 4.19385 52.3276 4.85517 51.8367 5.18042L49.2537 6.89136C48.7627 7.21664 48.1014 7.08251 47.7761 6.59155C47.4508 6.10057 47.585 5.43931 48.0759 5.11401L50.6589 3.4021Z" fill="#1E1E1E"/>
</svg>
