<svg width="58" height="57" viewBox="0 0 58 57" fill="none" xmlns="http://www.w3.org/2000/svg">
<path d="M21.341 30.2971L18.299 51.1168C18.1762 51.9571 19.037 52.5968 19.8062 52.2368L28.941 47.9623C29.232 47.8261 29.5689 47.8284 29.858 47.9685L38.6232 52.216C39.386 52.5856 40.2543 51.9606 40.1459 51.1199L37.461 30.2971" stroke="#1E1E1E" stroke-width="3.19924"/>
<path d="M27.4552 2.87788C28.0309 1.75748 29.6325 1.75748 30.2082 2.87788C30.6764 3.78905 31.8848 4.00211 32.6364 3.30602C33.5605 2.45009 35.0656 2.99788 35.2234 4.24762C35.3517 5.26397 36.4143 5.87745 37.3586 5.48041C38.5198 4.99218 39.7467 6.0217 39.4676 7.25003C39.2405 8.24897 40.0292 9.18889 41.0524 9.13877C42.3106 9.07714 43.1114 10.4642 42.4289 11.523C41.8739 12.384 42.2936 13.537 43.2722 13.8399C44.4756 14.2123 44.7537 15.7896 43.7503 16.5511C42.9343 17.1704 42.9343 18.3974 43.7503 19.0167C44.7537 19.7782 44.4756 21.3555 43.2722 21.7279C42.2936 22.0307 41.8739 23.1837 42.4289 24.0448C43.1114 25.1035 42.3106 26.4906 41.0524 26.429C40.0292 26.3788 39.2405 27.3188 39.4676 28.3177C39.7467 29.546 38.5198 30.5755 37.3586 30.0873C36.4143 29.6903 35.3517 30.3038 35.2234 31.3201C35.0656 32.5698 33.5605 33.1176 32.6364 32.2617C31.8848 31.5656 30.6764 31.7787 30.2082 32.6899C29.6325 33.8103 28.0309 33.8103 27.4552 32.6899C26.987 31.7787 25.7787 31.5656 25.0271 32.2617C24.1029 33.1176 22.5978 32.5698 22.4401 31.3201C22.3117 30.3038 21.2492 29.6903 20.3048 30.0873C19.1436 30.5755 17.9167 29.546 18.1959 28.3177C18.4229 27.3188 17.6342 26.3788 16.611 26.429C15.3529 26.4906 14.552 25.1035 15.2345 24.0448C15.7895 23.1837 15.3698 22.0307 14.3912 21.7279C13.1879 21.3555 12.9097 19.7782 13.9132 19.0167C14.7292 18.3974 14.7292 17.1704 13.9132 16.5511C12.9097 15.7896 13.1879 14.2123 14.3912 13.8399C15.3698 13.537 15.7895 12.384 15.2345 11.523C14.552 10.4642 15.3529 9.07714 16.611 9.13877C17.6342 9.18889 18.4229 8.24897 18.1959 7.25003C17.9167 6.0217 19.1436 4.99218 20.3048 5.48041C21.2492 5.87745 22.3117 5.26397 22.4401 4.24762C22.5978 2.99788 24.1029 2.45009 25.0271 3.30602C25.7787 4.00211 26.987 3.78905 27.4552 2.87788Z" stroke="#1E1E1E" stroke-width="3.19924"/>
</svg>
