<svg width="58" height="43" viewBox="0 0 58 43" fill="none" xmlns="http://www.w3.org/2000/svg">
<path d="M42.6568 20.3199C44.7624 21.5576 45.4661 24.2683 44.2286 26.374L40.5272 32.6715C39.1872 34.951 36.1587 35.5531 34.0485 33.9597L33.1528 33.2827C33.3648 33.213 33.5415 33.0393 33.5936 32.793L34.1153 30.3153L35.8255 31.6071C36.5288 32.138 37.5388 31.9372 37.9855 31.1775L41.6869 24.8801C42.0993 24.1782 41.864 23.275 41.1624 22.8624L11.167 5.23218C10.4651 4.81986 9.5624 5.05423 9.1498 5.7559L7.49258 8.57544C7.13459 9.18479 7.26128 9.95555 7.77941 10.4194L7.52579 13.5066C7.48704 13.983 7.9516 14.3412 8.40267 14.1828L11.3721 13.1393L11.6323 13.3365L8.92752 14.8991C8.90538 14.9119 8.88384 14.9252 8.8639 14.9399L6.09808 12.8521C4.30616 11.4989 3.81235 9.01692 4.95002 7.08102L6.60725 4.26148C7.845 2.15592 10.5557 1.45215 12.6614 2.68963L42.6568 20.3199Z" fill="#1E1E1E"/>
<path d="M7.02836 11.6915C6.8707 12.6975 8.82699 14.6163 9.74581 14.1133L11.0079 13.4227C11.0278 13.4119 11.0399 13.4113 11.0472 13.4121C11.0573 13.4131 11.0711 13.4179 11.0847 13.4283C11.0984 13.4387 11.1068 13.4507 11.1104 13.4601C11.1131 13.467 11.1158 13.4788 11.1106 13.5008L10.7824 14.9013C10.5355 15.9542 11.6512 16.8023 12.5997 16.2829L13.8613 15.5919C13.881 15.5812 13.8929 15.581 13.9002 15.5817C13.9104 15.5827 13.9244 15.5871 13.9381 15.5975C13.9519 15.608 13.9598 15.6203 13.9635 15.6298C13.9661 15.6366 13.9692 15.648 13.964 15.67L13.6355 17.0718L13.6168 17.1697C13.4591 18.1757 14.5343 18.9559 15.4532 18.4529L16.7145 17.7624C16.7343 17.7516 16.7461 17.7515 16.7534 17.7522C16.7635 17.7532 16.7775 17.7575 16.7913 17.768C16.805 17.7784 16.813 17.7908 16.8166 17.8003C16.8192 17.8071 16.8223 17.8186 16.8172 17.8405L16.4883 19.2427L16.4696 19.3406C16.312 20.3465 17.3868 21.1269 18.3056 20.6242L19.5693 19.9326C19.5891 19.9218 19.6009 19.9217 19.6081 19.9224C19.6183 19.9234 19.6323 19.9278 19.646 19.9382C19.6596 19.9486 19.6673 19.9607 19.6709 19.9702C19.6736 19.977 19.6771 19.9886 19.672 20.0107L19.3438 21.4092C19.097 22.462 20.2131 23.3105 21.1616 22.791L22.4225 22.101C22.4424 22.0901 22.4542 22.0901 22.4614 22.0908C22.4716 22.0918 22.4856 22.0961 22.4993 22.1066C22.513 22.117 22.521 22.1294 22.5247 22.1389C22.5273 22.1457 22.5303 22.1573 22.5252 22.1791L22.1966 23.5801C21.9498 24.6329 23.0659 25.4814 24.0144 24.962L25.2768 24.2709C25.2967 24.2601 25.3085 24.26 25.3157 24.2607C25.3259 24.2617 25.3399 24.2661 25.3536 24.2765C25.3673 24.2869 25.3753 24.2993 25.379 24.3088C25.3816 24.3156 25.3847 24.3271 25.3795 24.349L25.0512 25.7487C24.8043 26.8016 25.92 27.6497 26.8685 27.1302L28.1298 26.4398C28.1497 26.4289 28.1619 26.4292 28.1691 26.4299C28.1792 26.4309 28.1929 26.435 28.2066 26.4453C28.2203 26.4558 28.2282 26.4681 28.2319 26.4776C28.2346 26.4844 28.2376 26.4958 28.2325 26.5178L27.904 27.9196C27.6571 28.9725 28.7732 29.821 29.7217 29.3015L30.9842 28.6105C31.0041 28.5996 31.0162 28.5991 31.0234 28.5998C31.0336 28.6008 31.0473 28.6056 31.061 28.616C31.0747 28.6265 31.083 28.6384 31.0867 28.6479C31.0893 28.6547 31.0921 28.6665 31.0869 28.6885L30.7592 30.0873C30.5124 31.1403 32.6074 32.2494 33.5557 31.7302" stroke="#1E1E1E" stroke-width="2.94853" stroke-linecap="round"/>
<path d="M47.3881 37.4972L46.1361 38.2756L46.1361 38.2756L47.3881 37.4972ZM45.2205 34.0108L43.9685 34.7892L43.9685 34.7892L45.2205 34.0108ZM47.5037 29.9202C47.9163 29.2182 47.6817 28.3147 46.9798 27.9022C46.2779 27.4896 45.3744 27.7242 44.9618 28.4261L46.2328 29.1732L47.5037 29.9202ZM39.0181 19.8899L38.271 21.1609L53.3647 30.0324L54.1117 28.7614L54.8587 27.4904L39.7651 18.6189L39.0181 19.8899ZM55.1596 32.7974L53.8886 32.0504L51.1631 36.6874L52.4341 37.4345L53.7051 38.1815L56.4306 33.5445L55.1596 32.7974ZM47.3881 37.4972L48.6401 36.7188L46.4725 33.2324L45.2205 34.0108L43.9685 34.7892L46.1361 38.2756L47.3881 37.4972ZM45.1826 30.9599L46.4535 31.7069L47.5037 29.9202L46.2328 29.1732L44.9618 28.4261L43.9116 30.2129L45.1826 30.9599ZM45.2205 34.0108L46.4725 33.2324C46.1831 32.767 46.1758 32.1794 46.4535 31.7069L45.1826 30.9599L43.9116 30.2129C43.0785 31.6303 43.1004 33.3929 43.9685 34.7892L45.2205 34.0108ZM52.4341 37.4345L51.1631 36.6874C50.6014 37.6431 49.2255 37.6602 48.6401 36.7188L47.3881 37.4972L46.1361 38.2756C47.8921 41.0999 52.0199 41.0486 53.7051 38.1815L52.4341 37.4345ZM54.1117 28.7614L53.3647 30.0324C54.0666 30.445 54.3012 31.3485 53.8886 32.0504L55.1596 32.7974L56.4306 33.5445C57.6683 31.4386 56.9646 28.7282 54.8587 27.4904L54.1117 28.7614Z" fill="#1E1E1E"/>
</svg>
