<svg width="1390" height="777" viewBox="0 0 1390 777" fill="none" xmlns="http://www.w3.org/2000/svg">
<path d="M40 55C40 92.0031 69.9969 122 107 122H248C285.003 122 315 92.0031 315 55V44C315 6.99692 344.997 -23 382 -23H984C1021 -23 1051 6.99692 1051 44V55C1051 92.0031 1081 122 1118 122H1323C1360 122 1390 151.997 1390 189V776C1390 776.552 1389.55 777 1389 777H1329C1292 777 1262 747.003 1262 710V622C1262 584.997 1232 555 1195 555H716C678.997 555 649 584.997 649 622V710C649 747.003 619.003 777 582 777H-8C-8.55228 777 -9 776.552 -9 776V-22C-8.99999 -22.5523 -8.55228 -23 -8 -23C18.5097 -23 40 -1.50967 40 25V55Z" fill="#FFE600"/>
</svg>
