<svg width="614" height="584" viewBox="0 0 614 584" fill="none" xmlns="http://www.w3.org/2000/svg">
<path d="M541.72 291.512C541.72 324.37 535.248 356.906 522.674 387.262C510.1 417.619 491.67 445.202 468.436 468.436C445.202 491.67 417.619 510.1 387.262 522.674C356.906 535.248 324.37 541.72 291.512 541.72C258.654 541.72 226.118 535.248 195.762 522.674C165.405 510.1 137.822 491.67 114.588 468.436C91.3543 445.202 72.9241 417.619 60.35 387.262C47.7759 356.906 41.3041 324.37 41.3041 291.512C41.3041 258.654 47.7759 226.118 60.35 195.762C72.9242 165.405 91.3543 137.822 114.588 114.588C137.822 91.3544 165.405 72.9242 195.762 60.3501C226.118 47.776 258.654 41.3041 291.512 41.3041C324.37 41.3041 356.906 47.776 387.262 60.3501C417.619 72.9242 445.202 91.3544 468.436 114.588C491.67 137.822 510.1 165.405 522.674 195.762C535.248 226.118 541.72 258.654 541.72 291.512L541.72 291.512Z" stroke="#4B4848" stroke-width="2.80665" stroke-linecap="round"/>
<path d="M41 280.727C62.5391 280.727 80 298.187 80 319.727C80 341.266 62.5391 358.727 41 358.727C19.4609 358.727 2 341.266 2 319.727C2 298.187 19.4609 280.727 41 280.727Z" fill="#E7E9F2" stroke="#FFE600" stroke-width="2"/>
<path d="M41 359.727C63.0914 359.727 81 341.818 81 319.727C81 297.635 63.0914 279.727 41 279.727C18.9086 279.727 1 297.635 1 319.727C1 341.818 18.9086 359.727 41 359.727Z" fill="#E7E9F2" stroke="#FFE600" stroke-width="2" stroke-miterlimit="10"/>
<path d="M53.5663 169.233C75.1054 169.233 92.5663 186.694 92.5663 208.233C92.5663 229.772 75.1054 247.233 53.5663 247.233C32.0272 247.233 14.5663 229.772 14.5663 208.233C14.5663 186.694 32.0272 169.233 53.5663 169.233Z" fill="#E7E9F2" stroke="#FF005C" stroke-width="2"/>
<path d="M53.5663 248.233C75.6577 248.233 93.5663 230.324 93.5663 208.233C93.5663 186.141 75.6577 168.233 53.5663 168.233C31.4749 168.233 13.5663 186.141 13.5663 208.233C13.5663 230.324 31.4749 248.233 53.5663 248.233Z" fill="#E7E9F2" stroke="#FF005C" stroke-width="2" stroke-miterlimit="10"/>
<path d="M113.264 74.2401C134.803 74.2401 152.264 91.701 152.264 113.24C152.264 134.779 134.803 152.24 113.264 152.24C91.7248 152.24 74.2639 134.779 74.2639 113.24C74.2639 91.701 91.7248 74.2401 113.264 74.2401Z" fill="#E7E9F2" stroke="#FFE600" stroke-width="2"/>
<path d="M113.264 153.24C135.355 153.24 153.264 135.332 153.264 113.24C153.264 91.1487 135.355 73.2401 113.264 73.2401C91.1725 73.2401 73.2639 91.1487 73.2639 113.24C73.2639 135.332 91.1725 153.24 113.264 153.24Z" fill="#E7E9F2" stroke="#FFE600" stroke-width="2" stroke-miterlimit="10"/>
<path d="M208.265 14.5583C229.804 14.5583 247.265 32.0192 247.265 53.5583C247.265 75.0975 229.804 92.5583 208.265 92.5583C186.725 92.5583 169.265 75.0975 169.265 53.5583C169.265 32.0192 186.725 14.5583 208.265 14.5583Z" fill="#E7E9F2" stroke="#00D1FF" stroke-width="2"/>
<path d="M208.265 93.5583C230.356 93.5583 248.265 75.6497 248.265 53.5583C248.265 31.467 230.356 13.5583 208.265 13.5583C186.173 13.5583 168.265 31.467 168.265 53.5583C168.265 75.6497 186.173 93.5583 208.265 93.5583Z" fill="#E7E9F2" stroke="#00D1FF" stroke-width="2" stroke-miterlimit="10"/>
<path d="M319.75 2C341.29 2 358.75 19.4609 358.75 41C358.75 62.5391 341.29 80 319.75 80C298.211 80 280.75 62.5391 280.75 41C280.75 19.4609 298.211 2 319.75 2Z" fill="#E7E9F2" stroke="#FF005C" stroke-width="2"/>
<path d="M319.75 81C341.842 81 359.75 63.0914 359.75 41C359.75 18.9086 341.842 1 319.75 1C297.659 1 279.75 18.9086 279.75 41C279.75 63.0914 297.659 81 319.75 81Z" fill="#E7E9F2" stroke="#FF005C" stroke-width="2" stroke-miterlimit="10"/>
<path d="M425.643 39.0641C447.182 39.0641 464.643 56.525 464.643 78.0641C464.643 99.6032 447.182 117.064 425.643 117.064C404.104 117.064 386.643 99.6032 386.643 78.0641C386.643 56.525 404.104 39.0641 425.643 39.0641Z" fill="#E7E9F2" stroke="#FFE600" stroke-width="2"/>
<path d="M425.643 118.064C447.735 118.064 465.643 100.155 465.643 78.0641C465.643 55.9727 447.735 38.0641 425.643 38.0641C403.552 38.0641 385.643 55.9727 385.643 78.0641C385.643 100.155 403.552 118.064 425.643 118.064Z" fill="#E7E9F2" stroke="#FFE600" stroke-width="2" stroke-miterlimit="10"/>
<path d="M504.976 118.397C526.515 118.397 543.976 135.857 543.976 157.397C543.976 178.936 526.515 196.397 504.976 196.397C483.437 196.397 465.976 178.936 465.976 157.397C465.976 135.857 483.437 118.397 504.976 118.397Z" fill="#E7E9F2" stroke="#00D1FF" stroke-width="2"/>
<path d="M504.976 197.397C527.067 197.397 544.976 179.488 544.976 157.397C544.976 135.305 527.067 117.397 504.976 117.397C482.884 117.397 464.976 135.305 464.976 157.397C464.976 179.488 482.884 197.397 504.976 197.397Z" fill="#E7E9F2" stroke="#00D1FF" stroke-width="2" stroke-miterlimit="10"/>
<path d="M542.024 224.297C563.563 224.297 581.024 241.758 581.024 263.297C581.024 284.837 563.563 302.297 542.024 302.297C520.485 302.297 503.024 284.837 503.024 263.297C503.024 241.758 520.485 224.297 542.024 224.297Z" fill="#E7E9F2" stroke="#FF005C" stroke-width="2"/>
<path d="M542.024 303.297C564.115 303.297 582.024 285.389 582.024 263.297C582.024 241.206 564.115 223.297 542.024 223.297C519.933 223.297 502.024 241.206 502.024 263.297C502.024 285.389 519.933 303.297 542.024 303.297Z" fill="#E7E9F2" stroke="#FF005C" stroke-width="2" stroke-miterlimit="10"/>
<path d="M529.466 335.783C551.005 335.783 568.466 353.244 568.466 374.783C568.466 396.322 551.005 413.783 529.466 413.783C507.927 413.783 490.466 396.322 490.466 374.783C490.466 353.244 507.927 335.783 529.466 335.783Z" fill="#E7E9F2" stroke="#FFE600" stroke-width="2"/>
<path d="M529.466 414.783C551.557 414.783 569.466 396.875 569.466 374.783C569.466 352.692 551.557 334.783 529.466 334.783C507.374 334.783 489.466 352.692 489.466 374.783C489.466 396.875 507.374 414.783 529.466 414.783Z" fill="#E7E9F2" stroke="#FFE600" stroke-width="2" stroke-miterlimit="10"/>
<path d="M469.768 430.776C491.307 430.776 508.768 448.237 508.768 469.776C508.768 491.315 491.307 508.776 469.768 508.776C448.229 508.776 430.768 491.315 430.768 469.776C430.768 448.237 448.229 430.776 469.768 430.776Z" fill="#E7E9F2" stroke="#00D1FF" stroke-width="2"/>
<path d="M469.768 509.776C491.859 509.776 509.768 491.867 509.768 469.776C509.768 447.685 491.859 429.776 469.768 429.776C447.677 429.776 429.768 447.685 429.768 469.776C429.768 491.867 447.677 509.776 469.768 509.776Z" fill="#E7E9F2" stroke="#00D1FF" stroke-width="2" stroke-miterlimit="10"/>
<path d="M374.775 490.466C396.314 490.466 413.775 507.927 413.775 529.466C413.775 551.005 396.314 568.466 374.775 568.466C353.236 568.466 335.775 551.005 335.775 529.466C335.775 507.927 353.236 490.466 374.775 490.466Z" fill="#E7E9F2" stroke="#FF005C" stroke-width="2"/>
<path d="M374.775 569.466C396.867 569.466 414.775 551.557 414.775 529.466C414.775 507.374 396.867 489.466 374.775 489.466C352.684 489.466 334.775 507.374 334.775 529.466C334.775 551.557 352.684 569.466 374.775 569.466Z" fill="#E7E9F2" stroke="#FF005C" stroke-width="2" stroke-miterlimit="10"/>
<path d="M263.289 503.024C284.829 503.024 302.289 520.485 302.289 542.024C302.289 563.563 284.829 581.024 263.289 581.024C241.75 581.024 224.289 563.563 224.289 542.024C224.289 520.485 241.75 503.024 263.289 503.024Z" fill="#E7E9F2" stroke="#FFE600" stroke-width="2"/>
<path d="M263.289 582.024C285.381 582.024 303.289 564.115 303.289 542.024C303.289 519.933 285.381 502.024 263.289 502.024C241.198 502.024 223.289 519.933 223.289 542.024C223.289 564.115 241.198 582.024 263.289 582.024Z" fill="#E7E9F2" stroke="#FFE600" stroke-width="2" stroke-miterlimit="10"/>
<path d="M157.389 465.968C178.928 465.968 196.389 483.429 196.389 504.968C196.389 526.507 178.928 543.968 157.389 543.968C135.85 543.968 118.389 526.507 118.389 504.968C118.389 483.429 135.85 465.968 157.389 465.968Z" fill="#E7E9F2" stroke="#00D1FF" stroke-width="2"/>
<path d="M157.389 544.968C179.48 544.968 197.389 527.059 197.389 504.968C197.389 482.876 179.48 464.968 157.389 464.968C135.297 464.968 117.389 482.876 117.389 504.968C117.389 527.059 135.297 544.968 157.389 544.968Z" fill="#E7E9F2" stroke="#00D1FF" stroke-width="2" stroke-miterlimit="10"/>
<path d="M78.0562 386.635C99.5953 386.635 117.056 404.096 117.056 425.635C117.056 447.175 99.5953 464.635 78.0562 464.635C56.5171 464.635 39.0562 447.175 39.0562 425.635C39.0562 404.096 56.5171 386.635 78.0562 386.635Z" fill="#E7E9F2" stroke="#FF005C" stroke-width="2"/>
<path d="M78.0562 465.635C100.148 465.635 118.056 447.727 118.056 425.635C118.056 403.544 100.148 385.635 78.0562 385.635C55.9648 385.635 38.0562 403.544 38.0562 425.635C38.0562 447.727 55.9648 465.635 78.0562 465.635Z" fill="#E7E9F2" stroke="#FF005C" stroke-width="2" stroke-miterlimit="10"/>
<path d="M187.082 347.721C181.572 347.721 176.761 347.187 172.649 346.118C168.619 345.049 165.247 343.527 162.533 341.553C159.819 339.497 157.681 336.989 156.118 334.028C154.638 331.068 153.692 327.737 153.281 324.036L171.168 318.362C171.333 320.582 171.785 322.597 172.525 324.406C173.348 326.133 174.458 327.614 175.856 328.847C177.254 330.081 178.94 331.027 180.914 331.685C182.887 332.26 185.108 332.548 187.575 332.548C190.454 332.548 192.962 332.137 195.1 331.314C197.321 330.41 199.007 329.094 200.158 327.367C201.392 325.558 202.008 323.337 202.008 320.705C202.008 317.416 200.816 314.702 198.431 312.564C196.128 310.343 192.551 308.822 187.699 307.999C182.846 307.177 176.678 307.177 169.195 307.999V297.02L196.21 281.107V279.997L157.599 280.367V264.453H216.318V282.587L190.906 298.501V299.734C198.719 299.159 204.846 299.858 209.287 301.831C213.81 303.805 217.017 306.56 218.909 310.096C220.882 313.633 221.869 317.416 221.869 321.446C221.869 326.873 220.595 331.561 218.045 335.509C215.578 339.374 211.754 342.376 206.573 344.514C201.474 346.652 194.977 347.721 187.082 347.721ZM266.319 347.968C253.655 347.968 244.115 344.35 237.7 337.112C231.285 329.875 228.078 319.472 228.078 305.902C228.078 296.28 229.599 288.262 232.642 281.847C235.767 275.35 240.126 270.498 245.718 267.29C251.393 264.083 258.095 262.479 265.826 262.479C269.856 262.479 273.557 262.932 276.928 263.836C280.383 264.741 283.425 266.139 286.057 268.031C288.771 269.84 290.992 272.225 292.719 275.186C294.528 278.064 295.803 281.436 296.543 285.301L277.915 290.112C277.504 287.151 276.517 284.89 274.955 283.327C273.474 281.683 271.788 280.572 269.897 279.997C268.005 279.339 266.196 279.01 264.469 279.01C261.591 279.01 259.082 279.709 256.944 281.107C254.806 282.505 253.038 284.438 251.64 286.905C250.324 289.372 249.337 292.209 248.679 295.417C248.021 298.624 247.692 302.037 247.692 305.656C247.692 307.218 247.774 309.068 247.939 311.207C248.103 313.263 248.35 315.278 248.679 317.251H249.913C249.83 312.975 250.529 309.439 252.01 306.642C253.49 303.764 255.423 301.502 257.808 299.858C260.275 298.131 262.907 296.938 265.703 296.28C268.499 295.54 271.172 295.17 273.721 295.17C278.244 295.17 282.397 296.116 286.18 298.007C290.046 299.816 293.13 302.572 295.433 306.272C297.817 309.973 299.01 314.537 299.01 319.965C299.01 323.255 298.475 326.545 297.406 329.834C296.337 333.124 294.528 336.167 291.978 338.963C289.511 341.677 286.18 343.856 281.986 345.501C277.792 347.146 272.57 347.968 266.319 347.968ZM265.579 332.178C267.553 332.178 269.321 331.931 270.884 331.438C272.529 330.862 273.968 330.081 275.201 329.094C276.435 328.025 277.381 326.791 278.039 325.393C278.697 323.913 279.026 322.268 279.026 320.459C279.026 318.156 278.45 316.141 277.299 314.414C276.229 312.605 274.749 311.207 272.858 310.22C270.966 309.233 268.787 308.74 266.319 308.74C263.852 308.74 261.55 309.274 259.411 310.343C257.355 311.412 255.669 312.893 254.354 314.784C253.12 316.676 252.503 318.896 252.503 321.446C252.503 323.419 252.873 325.105 253.613 326.503C254.354 327.819 255.34 328.929 256.574 329.834C257.89 330.657 259.329 331.273 260.892 331.685C262.454 332.013 264.017 332.178 265.579 332.178ZM341.583 347.721C336.237 347.721 331.344 346.817 326.903 345.007C322.544 343.116 318.802 340.402 315.677 336.866C312.552 333.329 310.167 328.929 308.522 323.666C306.877 318.403 306.055 312.399 306.055 305.656C306.055 296.116 307.618 288.221 310.743 281.97C313.868 275.638 318.144 270.909 323.572 267.784C329.082 264.577 335.291 262.973 342.2 262.973C349.272 262.973 355.481 264.577 360.827 267.784C366.173 270.991 370.326 275.72 373.286 281.97C376.247 288.221 377.727 295.951 377.727 305.162C377.727 312.152 376.823 318.321 375.013 323.666C373.286 329.012 370.778 333.453 367.488 336.989C364.281 340.525 360.457 343.198 356.016 345.007C351.657 346.817 346.846 347.721 341.583 347.721ZM342.076 332.178C343.885 332.178 345.695 331.767 347.504 330.944C349.396 330.04 351.123 328.601 352.685 326.627C354.248 324.653 355.481 322.021 356.386 318.732C357.291 315.36 357.743 311.166 357.743 306.149C357.743 300.145 357.085 295.088 355.769 290.976C354.453 286.864 352.603 283.739 350.218 281.6C347.833 279.462 345.037 278.393 341.829 278.393C339.527 278.393 337.142 279.174 334.675 280.737C332.207 282.299 330.151 285.013 328.507 288.879C326.862 292.744 326.039 298.213 326.039 305.285C326.039 310.22 326.451 314.414 327.273 317.868C328.178 321.24 329.37 323.995 330.85 326.133C332.413 328.189 334.14 329.711 336.032 330.698C338.005 331.685 340.02 332.178 342.076 332.178ZM405.844 313.057C398.607 313.057 392.726 311.083 388.203 307.136C383.68 303.106 381.418 296.774 381.418 288.138C381.418 282.382 382.405 277.653 384.379 273.952C386.435 270.251 389.314 267.537 393.014 265.81C396.715 264.001 400.992 263.096 405.844 263.096C413.163 263.096 419.043 265.07 423.484 269.018C428.008 272.965 430.269 279.298 430.269 288.015C430.269 293.854 429.2 298.624 427.062 302.325C425.006 306.026 422.127 308.74 418.427 310.467C414.726 312.194 410.531 313.057 405.844 313.057ZM406.214 301.461C407.859 301.461 409.175 301.132 410.161 300.474C411.231 299.734 412.012 298.46 412.505 296.65C413.081 294.841 413.369 292.374 413.369 289.249C413.369 285.795 413.04 283.081 412.382 281.107C411.806 279.051 410.902 277.612 409.668 276.789C408.517 275.967 407.119 275.556 405.474 275.556C403.911 275.556 402.595 275.926 401.526 276.666C400.457 277.406 399.635 278.681 399.059 280.49C398.566 282.217 398.319 284.684 398.319 287.892C398.319 291.263 398.607 293.977 399.182 296.033C399.84 298.007 400.745 299.405 401.896 300.228C403.13 301.05 404.569 301.461 406.214 301.461Z" fill="#4B4848"/>
<path d="M263.539 250.956V217.334H271.74V250.956H263.539ZM241.634 250.956V217.334H249.835V250.956H241.634ZM246.626 237.303V230.681H266.85V237.303H246.626ZM292.548 251.669C290.409 251.669 288.507 251.448 286.843 251.006C285.179 250.599 283.735 249.988 282.513 249.173C281.29 248.357 280.271 247.373 279.456 246.218C278.675 245.063 278.081 243.773 277.673 242.346C277.3 240.886 277.113 239.307 277.113 237.609V217.334H285.366V237.354C285.366 238.984 285.62 240.326 286.13 241.378C286.639 242.431 287.42 243.212 288.473 243.722C289.526 244.197 290.867 244.435 292.497 244.435C294.128 244.435 295.469 244.197 296.522 243.722C297.575 243.212 298.356 242.431 298.865 241.378C299.375 240.326 299.629 238.984 299.629 237.354V217.334H307.831V237.609C307.831 242.058 306.557 245.522 304.01 248.001C301.497 250.446 297.676 251.669 292.548 251.669ZM313.149 250.956V217.334H327.667C329.773 217.334 331.658 217.521 333.322 217.894C335.02 218.234 336.463 218.777 337.652 219.525C338.841 220.238 339.741 221.172 340.352 222.326C340.997 223.447 341.32 224.788 341.32 226.351C341.32 227.675 341.031 228.83 340.454 229.815C339.91 230.8 339.044 231.598 337.856 232.209C336.667 232.82 335.088 233.228 333.118 233.432V234.298C336.378 234.501 338.79 235.282 340.352 236.641C341.914 237.999 342.695 239.833 342.695 242.143C342.695 244.112 342.169 245.742 341.116 247.033C340.063 248.324 338.518 249.308 336.48 249.988C334.443 250.633 331.93 250.956 328.941 250.956H313.149ZM320.994 244.435H328.635C330.707 244.435 332.235 244.146 333.22 243.569C334.205 242.958 334.697 242.007 334.697 240.716C334.697 239.29 334.103 238.22 332.914 237.507C331.726 236.794 329.909 236.437 327.464 236.437H320.994V244.435ZM320.994 231.445H326.343C328.754 231.445 330.52 231.122 331.641 230.477C332.762 229.798 333.322 228.796 333.322 227.471C333.322 226.181 332.796 225.247 331.743 224.67C330.724 224.058 329.162 223.753 327.056 223.753H320.994V231.445Z" fill="#4B4848"/>
<path d="M117.442 257.802C120.199 243.566 124.692 229.722 130.82 216.58" stroke="#4B4848" stroke-width="4.05491" stroke-linecap="round"/>
<rect x="307.032" y="28.0048" width="25.4371" height="37.6027" rx="2.7649" stroke="#4B4848" stroke-width="2.7649"/>
<path d="M310.35 28.0048V19.1572C310.35 17.6302 311.587 16.3923 313.115 16.3923H326.386C327.913 16.3923 329.151 17.6302 329.151 19.1572V28.0048" stroke="#4B4848" stroke-width="2.7649"/>
<rect x="307.032" y="28.0048" width="25.4371" height="25.4371" rx="2.7649" stroke="#4B4848" stroke-width="2.7649"/>
<rect x="307.032" y="36.2997" width="25.4371" height="8.84769" rx="2.7649" stroke="#4B4848" stroke-width="2.7649"/>
<path d="M208.265 28.5846C221.928 28.5848 233.004 39.6616 233.004 53.3248C233.004 66.988 221.928 78.0639 208.265 78.0641C194.602 78.0639 183.525 66.988 183.525 53.3248C183.525 39.6616 194.602 28.5848 208.265 28.5846ZM208.265 33.5846C197.363 33.5848 188.525 42.423 188.525 53.3248C188.525 64.2266 197.363 73.0639 208.265 73.0641C219.167 73.0639 228.004 64.2266 228.004 53.3248C228.004 42.423 219.167 33.5848 208.265 33.5846ZM217.892 45.858C218.689 45.0938 219.956 45.1204 220.72 45.9176C221.484 46.7148 221.457 47.9804 220.661 48.7448L207.762 61.111C206.572 62.252 204.684 62.2185 203.535 61.0358L199.455 56.8356C198.685 56.0433 198.703 54.777 199.496 54.0074C200.288 53.2381 201.554 53.2564 202.324 54.0485L205.711 57.5358L217.892 45.858Z" fill="#4B4848"/>
<path d="M113.022 94.5903C120.203 94.3097 125.362 97.9585 127.821 102.995C130.246 107.96 130.019 114.217 126.707 119.146C124.445 122.512 123.292 124.876 122.749 126.411C122.477 127.179 122.375 127.693 122.347 127.991C122.341 128.053 122.34 128.101 122.34 128.135C122.67 129.039 122.308 130.074 121.442 130.561C121.378 130.597 121.312 130.628 121.246 130.657C120.977 130.819 120.669 130.919 120.337 130.939V131.96C120.337 135.93 117.119 139.148 113.149 139.148C109.18 139.148 105.962 135.93 105.962 131.96V130.946H105.793C105.365 130.946 104.97 130.81 104.645 130.581C104.631 130.574 104.617 130.568 104.604 130.561C103.738 130.074 103.376 129.039 103.706 128.135C103.705 128.101 103.705 128.053 103.699 127.991C103.671 127.693 103.569 127.179 103.297 126.411C102.754 124.876 101.601 122.512 99.3389 119.146C96.0271 114.217 95.7996 107.96 98.2246 102.995C100.684 97.9587 105.842 94.31 113.022 94.5903ZM109.962 131.96C109.962 133.72 111.389 135.148 113.149 135.148C114.909 135.148 116.337 133.72 116.337 131.96V130.955H109.962V131.96ZM113.13 98.5883C113.094 98.5898 113.058 98.5867 113.022 98.5864C112.987 98.5867 112.952 98.5898 112.916 98.5883C107.319 98.3527 103.599 101.103 101.818 104.749C99.996 108.481 100.173 113.215 102.659 116.915C105.036 120.453 106.377 123.123 107.068 125.077C107.312 125.765 107.482 126.388 107.585 126.946H118.461C118.564 126.388 118.734 125.765 118.978 125.077C119.669 123.123 121.01 120.453 123.387 116.915C125.873 113.215 126.05 108.481 124.228 104.749C122.446 101.103 118.727 98.3528 113.13 98.5883ZM92.2559 116.059C92.7163 115.754 93.3375 115.88 93.6426 116.34C93.9473 116.801 93.8214 117.421 93.3613 117.726L90.9385 119.331C90.4781 119.636 89.8577 119.51 89.5527 119.049C89.2479 118.589 89.3739 117.969 89.834 117.664L92.2559 116.059ZM131.984 116.34C132.289 115.88 132.91 115.754 133.37 116.059L135.793 117.664C136.253 117.969 136.379 118.59 136.074 119.05C135.769 119.51 135.149 119.636 134.688 119.331L132.266 117.726C131.805 117.421 131.68 116.801 131.984 116.34ZM91.9062 107.447C92.4585 107.447 92.9062 107.894 92.9062 108.447C92.906 108.999 92.4583 109.447 91.9062 109.447H89C88.448 109.447 88.0002 108.999 88 108.447C88 107.895 88.4479 107.447 89 107.447H91.9062ZM136.571 107.447C137.123 107.447 137.571 107.895 137.571 108.447C137.571 108.999 137.123 109.446 136.571 109.447H133.665C133.113 109.447 132.665 108.999 132.665 108.447C132.665 107.894 133.113 107.447 133.665 107.447H136.571ZM134.688 97.475C135.149 97.1703 135.769 97.2963 136.074 97.7563C136.379 98.2166 136.253 98.8369 135.793 99.142L133.37 100.747C132.91 101.052 132.289 100.927 131.984 100.466C131.68 100.006 131.806 99.3856 132.266 99.0805L134.688 97.475ZM89.5527 97.7563C89.8578 97.2962 90.4782 97.1703 90.9385 97.475L93.3613 99.0805C93.8214 99.3856 93.9475 100.006 93.6426 100.466C93.3375 100.927 92.7163 101.053 92.2559 100.747L89.834 99.142C89.3738 98.8369 89.2478 98.2166 89.5527 97.7563Z" fill="#4B4848"/>
<path d="M65.1195 230.533H41.328C40.7758 230.533 40.328 230.085 40.328 229.533L40.328 206.289C40.328 205.459 39.3747 204.99 38.7172 205.497L35.4117 208.047C34.9866 208.375 34.3784 208.309 34.0339 207.897L28.72 201.547C28.3365 201.088 28.438 200.398 28.9373 200.07L40.0779 192.74C40.2411 192.633 40.4321 192.576 40.6275 192.576H45.4542C45.7973 192.576 46.1149 192.755 46.311 193.036C50.0769 198.442 56.3291 197.859 58.396 193.249C58.5721 192.856 58.9482 192.576 59.3786 192.576H65.8234C66.0167 192.576 66.2058 192.632 66.368 192.737L77.6631 200.071C78.1664 200.398 78.2705 201.092 77.8854 201.552L72.5676 207.907C72.2264 208.315 71.6259 208.385 71.2006 208.066L67.7195 205.455C67.0603 204.96 66.1195 205.431 66.1195 206.255V229.533C66.1195 230.085 65.6718 230.533 65.1195 230.533Z" stroke="#4B4848" stroke-width="4"/>
<path d="M59.2573 300.293L60.0307 301.067C62.5691 303.605 62.5691 307.721 60.0307 310.259L33.3181 336.972L18.8307 341.059L23.333 327.025L50.0649 300.293C52.6033 297.755 56.7189 297.755 59.2573 300.293Z" stroke="#4B4848" stroke-width="3"/>
<line x1="45.5768" y1="303.132" x2="56.5345" y2="314.09" stroke="#4B4848" stroke-width="4"/>
<path d="M172.457 517.471H179.294C180.821 517.471 182.059 516.233 182.059 514.706V495.887C182.059 494.36 180.821 493.122 179.294 493.122H135.646C134.119 493.122 132.881 494.36 132.881 495.887V514.706C132.881 516.233 134.119 517.471 135.646 517.471H142.839" stroke="#4B4848" stroke-width="2.7649"/>
<path d="M171.585 493.122H175.528V487.439C175.528 486.35 174.646 485.467 173.557 485.467V485.467C172.468 485.467 171.585 486.35 171.585 487.439V493.122Z" stroke="#4B4848" stroke-width="2.7649"/>
<path d="M142.635 504.84H172.304V520.419C172.304 521.946 171.066 523.184 169.539 523.184H145.4C143.873 523.184 142.635 521.946 142.635 520.419V504.84Z" stroke="#4B4848" stroke-width="2.7649"/>
<line x1="132.719" y1="504.72" x2="182.058" y2="504.72" stroke="#4B4848" stroke-width="2.7649"/>
<path d="M441.919 64.7955V93.5505C441.919 95.0775 440.681 96.3154 439.154 96.3154H415.929C414.402 96.3154 413.164 95.0775 413.164 93.5505V59.2657C413.164 57.7387 414.402 56.5008 415.929 56.5008L433.071 56.5006M441.919 64.7955L433.071 56.5006M441.919 64.7955H435.836C434.309 64.7955 433.071 63.5576 433.071 62.0306V56.5006" stroke="#4B4848" stroke-width="2.7649"/>
<line x1="418.417" y1="67.8367" x2="427.265" y2="67.8367" stroke="#4B4848" stroke-width="2.7649" stroke-linecap="round"/>
<line x1="418.417" y1="73.9196" x2="436.666" y2="73.9195" stroke="#4B4848" stroke-width="2.7649" stroke-linecap="round"/>
<line x1="418.417" y1="80.0024" x2="436.666" y2="80.0024" stroke="#4B4848" stroke-width="2.7649" stroke-linecap="round"/>
<line x1="418.417" y1="86.0851" x2="436.666" y2="86.0851" stroke="#4B4848" stroke-width="2.7649" stroke-linecap="round"/>
<path d="M525.609 144.844L513.342 174.892C511.625 179.099 506.999 181.321 502.641 180.032L494.736 177.693C490.499 176.44 487.837 172.253 488.498 167.885L493.286 136.263" stroke="#4B4848" stroke-width="2.7649"/>
<ellipse cx="509.399" cy="140.735" rx="16.7211" ry="5.46347" transform="rotate(14.8678 509.399 140.735)" stroke="#4B4848" stroke-width="2.7649"/>
<path d="M514.921 154.206C514.51 154.47 514.102 154.737 513.697 155.008C511.306 156.604 509.026 158.316 506.857 160.144L508.515 160.088C507.425 159.071 506.308 158.088 505.162 157.14C504.791 156.833 504.417 156.529 504.04 156.229C503.458 155.728 502.626 155.824 502.121 156.402C499.705 159.385 497.515 162.559 495.55 165.922C495.304 166.343 495.062 166.766 494.823 167.193C495.203 166.885 495.579 166.574 495.952 166.261C498.931 163.752 501.686 161.053 504.214 158.165L502.295 158.337C502.66 158.652 503.028 158.962 503.399 159.269C504.544 160.218 505.718 161.133 506.921 162.013C507.424 162.382 508.152 162.412 508.578 161.956C510.516 159.883 512.342 157.694 514.058 155.389C514.349 154.998 514.637 154.604 514.921 154.206Z" fill="#4B4848"/>
<path d="M535.82 266.733L532.967 286.256C532.852 287.044 533.659 287.643 534.381 287.306L542.947 283.298C543.219 283.17 543.535 283.172 543.806 283.303L552.026 287.286C552.741 287.633 553.555 287.047 553.454 286.259L550.936 266.733" stroke="#4B4848" stroke-width="3"/>
<path d="M541.553 241.021C542.093 239.97 543.595 239.97 544.135 241.021V241.021C544.574 241.875 545.707 242.075 546.412 241.422V241.422C547.278 240.62 548.69 241.133 548.838 242.305V242.305C548.958 243.258 549.954 243.833 550.84 243.461V243.461C551.929 243.003 553.079 243.969 552.818 245.121V245.121C552.605 246.057 553.344 246.939 554.304 246.892V246.892C555.484 246.834 556.234 248.135 555.595 249.127V249.127C555.074 249.935 555.468 251.016 556.385 251.3V251.3C557.514 251.649 557.775 253.128 556.834 253.842V253.842C556.068 254.423 556.068 255.574 556.834 256.154V256.154C557.775 256.868 557.514 258.348 556.385 258.697V258.697C555.468 258.981 555.074 260.062 555.595 260.869V260.869C556.234 261.862 555.484 263.163 554.304 263.105V263.105C553.344 263.058 552.605 263.939 552.818 264.876V264.876C553.079 266.028 551.929 266.993 550.84 266.536V266.536C549.954 266.163 548.958 266.739 548.838 267.692V267.692C548.69 268.863 547.278 269.377 546.412 268.575V268.575C545.707 267.922 544.574 268.122 544.135 268.976V268.976C543.595 270.027 542.093 270.027 541.553 268.976V268.976C541.114 268.122 539.981 267.922 539.276 268.575V268.575C538.41 269.377 536.998 268.863 536.851 267.692V267.692C536.73 266.739 535.734 266.163 534.848 266.536V266.536C533.759 266.993 532.609 266.028 532.871 264.876V264.876C533.084 263.939 532.344 263.058 531.384 263.105V263.105C530.205 263.163 529.454 261.862 530.094 260.869V260.869C530.614 260.062 530.221 258.981 529.303 258.697V258.697C528.175 258.348 527.914 256.868 528.855 256.154V256.154C529.62 255.574 529.62 254.423 528.855 253.842V253.842C527.914 253.128 528.175 251.649 529.303 251.3V251.3C530.221 251.016 530.614 249.935 530.094 249.127V249.127C529.454 248.135 530.205 246.834 531.384 246.892V246.892C532.344 246.939 533.084 246.057 532.871 245.121V245.121C532.609 243.969 533.759 243.003 534.848 243.461V243.461C535.734 243.833 536.73 243.258 536.851 242.305V242.305C536.998 241.133 538.41 240.62 539.276 241.422V241.422C539.981 242.075 541.114 241.875 541.553 241.021V241.021Z" stroke="#4B4848" stroke-width="3"/>
<g filter="url(#filter0_dddd_8055_2977)">
<path d="M550.347 372.377L530.304 356.088C529.937 355.79 529.41 355.79 529.043 356.088L509 372.377" stroke="#4B4848" stroke-width="4" stroke-linecap="round"/>
<path d="M545.233 359.959V367.994" stroke="#4B4848" stroke-width="4" stroke-linecap="round"/>
</g>
<path d="M513.091 368.725V389.978C513.091 391.635 514.434 392.978 516.091 392.978H543.695C545.351 392.978 546.695 391.635 546.695 389.978V368.725" stroke="#4B4848" stroke-width="4"/>
<path d="M550.347 372.377L530.304 356.088C529.937 355.79 529.41 355.79 529.043 356.088L509 372.377" stroke="#4B4848" stroke-width="4" stroke-linecap="round"/>
<path d="M545.233 359.959V367.994" stroke="#4B4848" stroke-width="4" stroke-linecap="round"/>
<path d="M523.925 378.294C523.925 377.741 524.372 377.294 524.925 377.294H534.506C535.059 377.294 535.506 377.741 535.506 378.294V392.978H523.925V378.294Z" fill="#4B4848"/>
<g filter="url(#filter1_dddd_8055_2977)">
<path d="M447.887 462.218C447.739 463.161 449.574 464.96 450.435 464.489L451.619 463.841C451.637 463.831 451.649 463.83 451.656 463.831C451.665 463.832 451.678 463.836 451.691 463.846C451.704 463.856 451.711 463.867 451.715 463.876C451.717 463.882 451.72 463.894 451.715 463.914L451.407 465.227C451.176 466.215 452.222 467.01 453.111 466.523L454.294 465.875C454.313 465.865 454.324 465.865 454.331 465.865C454.34 465.866 454.354 465.871 454.366 465.88C454.379 465.89 454.387 465.902 454.39 465.911C454.393 465.917 454.396 465.928 454.391 465.948L454.083 467.263L454.065 467.355C453.917 468.298 454.926 469.03 455.787 468.558L456.97 467.91C456.988 467.9 457 467.9 457.006 467.901C457.016 467.902 457.029 467.906 457.042 467.916C457.055 467.925 457.062 467.937 457.066 467.946C457.068 467.952 457.071 467.963 457.066 467.984L456.758 469.298L456.74 469.39C456.593 470.334 457.6 471.065 458.462 470.594L459.647 469.945C459.666 469.935 459.677 469.935 459.683 469.936C459.693 469.937 459.706 469.941 459.719 469.951C459.732 469.96 459.739 469.972 459.742 469.981C459.745 469.987 459.748 469.998 459.743 470.019L459.436 471.33C459.204 472.317 460.251 473.113 461.14 472.626L462.323 471.979C462.341 471.969 462.352 471.969 462.359 471.969C462.368 471.97 462.382 471.974 462.395 471.984C462.407 471.994 462.415 472.005 462.418 472.014C462.421 472.021 462.424 472.032 462.419 472.052L462.111 473.366C461.879 474.353 462.926 475.149 463.815 474.662L464.999 474.014C465.018 474.003 465.029 474.003 465.036 474.004C465.045 474.005 465.058 474.009 465.071 474.019C465.084 474.029 465.091 474.04 465.095 474.049C465.097 474.055 465.1 474.066 465.095 474.087L464.787 475.399C464.556 476.387 465.602 477.182 466.492 476.695L467.674 476.047C467.693 476.037 467.704 476.037 467.711 476.038C467.721 476.039 467.734 476.043 467.746 476.053C467.759 476.062 467.767 476.074 467.77 476.083C467.773 476.089 467.775 476.1 467.771 476.121L467.463 477.435C467.231 478.422 468.278 479.218 469.167 478.731L470.351 478.083C470.37 478.073 470.381 478.072 470.388 478.073C470.397 478.074 470.41 478.078 470.423 478.088C470.436 478.098 470.444 478.109 470.447 478.118C470.45 478.124 470.452 478.135 470.447 478.156L470.14 479.468C469.909 480.455 471.873 481.495 472.762 481.008" stroke="#4B4848" stroke-width="2.7649" stroke-linecap="round"/>
<path d="M485.733 486.416L486.907 485.686L486.907 485.686L485.733 486.416ZM483.7 483.147L482.526 483.877L483.7 483.147ZM485.841 479.311C486.228 478.653 486.008 477.806 485.35 477.419C484.692 477.032 483.845 477.252 483.458 477.91L484.65 478.611L485.841 479.311ZM477.884 469.905L477.184 471.097L491.337 479.416L492.038 478.224L492.738 477.033L478.585 468.714L477.884 469.905ZM493.02 482.009L491.829 481.309L489.273 485.657L490.465 486.357L491.657 487.058L494.212 482.71L493.02 482.009ZM485.733 486.416L486.907 485.686L484.874 482.417L483.7 483.147L482.526 483.877L484.559 487.146L485.733 486.416ZM483.665 480.286L484.857 480.987L485.841 479.311L484.65 478.611L483.458 477.91L482.473 479.586L483.665 480.286ZM483.7 483.147L484.874 482.417C484.603 481.981 484.596 481.43 484.857 480.987L483.665 480.286L482.473 479.586C481.692 480.915 481.712 482.568 482.526 483.877L483.7 483.147ZM490.465 486.357L489.273 485.657C488.746 486.553 487.456 486.569 486.907 485.686L485.733 486.416L484.559 487.146C486.206 489.795 490.076 489.746 491.657 487.058L490.465 486.357ZM492.038 478.224L491.337 479.416C491.996 479.803 492.215 480.65 491.829 481.309L493.02 482.009L494.212 482.71C495.373 480.735 494.713 478.193 492.738 477.033L492.038 478.224Z" fill="#4B4848"/>
</g>
<path d="M481.296 470.309C483.271 471.469 483.931 474.011 482.77 475.986L479.299 481.891C478.043 484.029 475.203 484.594 473.224 483.099L472.383 482.463C472.582 482.398 472.749 482.236 472.798 482.005L473.287 479.682L474.89 480.893C475.55 481.391 476.497 481.202 476.916 480.49L480.387 474.585C480.774 473.927 480.553 473.08 479.895 472.693L451.768 456.161C451.11 455.774 450.263 455.994 449.876 456.652L448.322 459.296C447.986 459.868 448.106 460.59 448.592 461.025L448.354 463.92C448.317 464.366 448.753 464.702 449.176 464.554L451.96 463.576L452.204 463.76L449.667 465.225C449.646 465.237 449.627 465.25 449.608 465.264L447.014 463.306C445.334 462.037 444.871 459.71 445.938 457.895L447.492 455.251C448.653 453.276 451.194 452.616 453.169 453.777L481.296 470.309Z" fill="#4B4848"/>
<path d="M447.887 462.218C447.739 463.161 449.574 464.96 450.435 464.489L451.619 463.841C451.637 463.831 451.649 463.83 451.656 463.831C451.665 463.832 451.678 463.836 451.691 463.846C451.704 463.856 451.711 463.867 451.715 463.876C451.717 463.882 451.72 463.894 451.715 463.914L451.407 465.227C451.176 466.215 452.222 467.01 453.111 466.523L454.294 465.875C454.313 465.865 454.324 465.865 454.331 465.865C454.34 465.866 454.354 465.871 454.366 465.88C454.379 465.89 454.387 465.902 454.39 465.911C454.393 465.917 454.396 465.928 454.391 465.948L454.083 467.263L454.065 467.355C453.917 468.298 454.926 469.03 455.787 468.558L456.97 467.91C456.988 467.9 457 467.9 457.006 467.901C457.016 467.902 457.029 467.906 457.042 467.916C457.055 467.925 457.062 467.937 457.066 467.946C457.068 467.952 457.071 467.963 457.066 467.984L456.758 469.298L456.74 469.39C456.593 470.334 457.6 471.065 458.462 470.594L459.647 469.945C459.666 469.935 459.677 469.935 459.683 469.936C459.693 469.937 459.706 469.941 459.719 469.951C459.732 469.96 459.739 469.972 459.742 469.981C459.745 469.987 459.748 469.998 459.743 470.019L459.436 471.33C459.204 472.317 460.251 473.113 461.14 472.626L462.323 471.979C462.341 471.969 462.352 471.969 462.359 471.969C462.368 471.97 462.382 471.974 462.395 471.984C462.407 471.994 462.415 472.005 462.418 472.014C462.421 472.021 462.424 472.032 462.419 472.052L462.111 473.366C461.879 474.353 462.926 475.149 463.815 474.662L464.999 474.014C465.018 474.003 465.029 474.003 465.036 474.004C465.045 474.005 465.058 474.009 465.071 474.019C465.084 474.029 465.091 474.04 465.095 474.049C465.097 474.055 465.1 474.066 465.095 474.087L464.787 475.399C464.556 476.387 465.602 477.182 466.492 476.695L467.674 476.047C467.693 476.037 467.704 476.037 467.711 476.038C467.721 476.039 467.734 476.043 467.746 476.053C467.759 476.062 467.767 476.074 467.77 476.083C467.773 476.089 467.775 476.1 467.771 476.121L467.463 477.435C467.231 478.422 468.278 479.218 469.167 478.731L470.351 478.083C470.37 478.073 470.381 478.072 470.388 478.073C470.397 478.074 470.41 478.078 470.423 478.088C470.436 478.098 470.444 478.109 470.447 478.118C470.45 478.124 470.452 478.135 470.447 478.156L470.14 479.468C469.909 480.455 471.873 481.495 472.762 481.008" stroke="#4B4848" stroke-width="2.7649" stroke-linecap="round"/>
<path d="M485.733 486.416L486.907 485.686L486.907 485.686L485.733 486.416ZM483.7 483.147L482.526 483.877L483.7 483.147ZM485.841 479.311C486.228 478.653 486.008 477.806 485.35 477.419C484.692 477.032 483.845 477.252 483.458 477.91L484.65 478.611L485.841 479.311ZM477.884 469.905L477.184 471.097L491.337 479.416L492.038 478.224L492.738 477.033L478.585 468.714L477.884 469.905ZM493.02 482.009L491.829 481.309L489.273 485.657L490.465 486.357L491.657 487.058L494.212 482.71L493.02 482.009ZM485.733 486.416L486.907 485.686L484.874 482.417L483.7 483.147L482.526 483.877L484.559 487.146L485.733 486.416ZM483.665 480.286L484.857 480.987L485.841 479.311L484.65 478.611L483.458 477.91L482.473 479.586L483.665 480.286ZM483.7 483.147L484.874 482.417C484.603 481.981 484.596 481.43 484.857 480.987L483.665 480.286L482.473 479.586C481.692 480.915 481.712 482.568 482.526 483.877L483.7 483.147ZM490.465 486.357L489.273 485.657C488.746 486.553 487.456 486.569 486.907 485.686L485.733 486.416L484.559 487.146C486.206 489.795 490.076 489.746 491.657 487.058L490.465 486.357ZM492.038 478.224L491.337 479.416C491.996 479.803 492.215 480.65 491.829 481.309L493.02 482.009L494.212 482.71C495.373 480.735 494.713 478.193 492.738 477.033L492.038 478.224Z" fill="#4B4848"/>
<rect x="358.12" y="509.776" width="33.3114" height="44.826" rx="16.6557" stroke="#4B4848" stroke-width="3.0947"/>
<rect x="363.553" y="523.523" width="22.4441" height="11.2724" rx="5.63619" stroke="#4B4848" stroke-width="2.0851"/>
<path d="M80.587 403.215L80.5874 401.864H80.587V403.215ZM83.2872 405.915H84.6375V405.915L83.2872 405.915ZM88.2579 407.974L89.2127 408.929L88.2579 407.974ZM92.0773 407.974L91.1225 408.929L92.0773 407.974ZM95.8947 411.792L96.8496 410.837L96.8494 410.837L95.8947 411.792ZM95.8947 415.611L96.8494 416.566L95.8947 415.611ZM97.9532 420.582L97.9534 419.232H97.9532V420.582ZM100.653 428.681L102.004 428.682V428.681H100.653ZM97.9532 431.382V432.732H97.9534L97.9532 431.382ZM95.8947 436.352L96.8498 435.398L96.8494 435.398L95.8947 436.352ZM95.8937 440.171L94.9389 439.216L94.9388 439.216L95.8937 440.171ZM92.0773 443.988L93.032 444.943L93.0322 444.943L92.0773 443.988ZM88.2579 443.988L87.3032 444.943L87.3033 444.943L88.2579 443.988ZM83.2872 446.048L84.6375 446.048V446.048H83.2872ZM80.587 448.748V450.098H80.5874L80.587 448.748ZM75.1876 448.748L75.1874 450.098H75.1876V448.748ZM72.4874 446.048H71.1372V446.048L72.4874 446.048ZM67.5167 443.989L68.4714 444.944L68.4715 444.944L67.5167 443.989ZM63.6974 443.989L62.7426 444.944L62.7429 444.944L63.6974 443.989ZM59.88 436.352L58.9252 435.398L58.9252 435.398L59.88 436.352ZM57.8204 431.382L57.8202 432.732H57.8204V431.382ZM55.1202 428.681H53.77V428.682L55.1202 428.681ZM57.8204 420.582V419.232H57.8202L57.8204 420.582ZM59.88 415.61L58.9252 416.565L58.9252 416.565L59.88 415.61ZM59.88 411.791L58.9254 410.836L58.9252 410.836L59.88 411.791ZM63.6974 407.974L64.652 408.929L64.6521 408.929L63.6974 407.974ZM67.5157 407.974L66.561 408.929L66.5611 408.929L67.5157 407.974ZM72.4874 405.915L71.1372 405.915V405.915H72.4874ZM75.1876 403.215V401.864H75.1874L75.1876 403.215ZM77.8693 418.522V417.172H77.8692L77.8693 418.522ZM70.2452 426.147H68.895V426.147L70.2452 426.147ZM77.8693 433.771L77.8692 435.122H77.8693V433.771ZM85.4933 426.147L86.8435 426.147V426.147H85.4933ZM67.8776 408.336L66.923 409.291L67.8776 408.336ZM67.8774 443.628L66.9227 442.674L67.8774 443.628ZM87.8972 443.627L86.9425 444.582L87.8972 443.627ZM95.5339 435.992L96.4887 435.037L95.5339 435.992ZM95.5339 415.972L96.4887 416.927L95.5339 415.972ZM87.8972 408.335L86.9425 407.38L87.8972 408.335ZM80.587 403.215L80.5867 404.565C81.3323 404.565 81.9369 405.17 81.937 405.915L83.2872 405.915L84.6375 405.915C84.6371 403.678 82.8236 401.865 80.5874 401.864L80.587 403.215ZM83.2872 405.915H81.937V406.426H83.2872H84.6375V405.915H83.2872ZM87.8972 408.335L88.852 409.29L89.2127 408.929L88.2579 407.974L87.3032 407.02L86.9425 407.38L87.8972 408.335ZM88.2579 407.974L89.2127 408.929C89.74 408.402 90.5952 408.402 91.1225 408.929L92.0773 407.974L93.032 407.02C91.4501 405.438 88.8851 405.438 87.3032 407.02L88.2579 407.974ZM92.0773 407.974L91.1225 408.929L94.9399 412.747L95.8947 411.792L96.8494 410.837L93.032 407.02L92.0773 407.974ZM95.8947 411.792L94.9397 412.746C95.467 413.274 95.4668 414.13 94.9399 414.656L95.8947 415.611L96.8494 416.566C98.4314 414.984 98.4305 412.419 96.8496 410.837L95.8947 411.792ZM95.8947 415.611L94.9399 414.656L94.5792 415.017L95.5339 415.972L96.4887 416.927L96.8494 416.566L95.8947 415.611ZM97.4434 420.582V421.932H97.9532V420.582V419.232H97.4434V420.582ZM97.9532 420.582L97.9531 421.932C98.6983 421.932 99.3032 422.537 99.3032 423.283H100.653H102.004C102.004 421.046 100.191 419.232 97.9534 419.232L97.9532 420.582ZM100.653 423.283H99.3032V428.681H100.653H102.004V423.283H100.653ZM100.653 428.681L99.3032 428.681C99.303 429.427 98.6984 430.031 97.9531 430.031L97.9532 431.382L97.9534 432.732C100.19 432.732 102.003 430.918 102.004 428.682L100.653 428.681ZM97.9532 431.382V430.031H97.4434V431.382V432.732H97.9532V431.382ZM95.5339 435.992L94.5792 436.946L94.9399 437.307L95.8947 436.352L96.8494 435.398L96.4887 435.037L95.5339 435.992ZM95.8947 436.352L94.9395 437.307C95.4663 437.834 95.4662 438.689 94.9389 439.216L95.8937 440.171L96.8484 441.126C98.4298 439.544 98.4307 436.98 96.8498 435.398L95.8947 436.352ZM95.8937 440.171L94.9388 439.216L91.1224 443.033L92.0773 443.988L93.0322 444.943L96.8486 441.125L95.8937 440.171ZM92.0773 443.988L91.1225 443.033C90.5955 443.56 89.7401 443.561 89.2125 443.033L88.2579 443.988L87.3033 444.943C88.8851 446.524 91.4501 446.525 93.032 444.943L92.0773 443.988ZM88.2579 443.988L89.2127 443.033L88.852 442.673L87.8972 443.627L86.9425 444.582L87.3032 444.943L88.2579 443.988ZM83.2872 445.537H81.937V446.048H83.2872H84.6375V445.537H83.2872ZM83.2872 446.048L81.937 446.048C81.9369 446.793 81.3324 447.397 80.5867 447.398L80.587 448.748L80.5874 450.098C82.8236 450.097 84.6372 448.285 84.6375 446.048L83.2872 446.048ZM80.587 448.748V447.398H75.1876V448.748V450.098H80.587V448.748ZM75.1876 448.748L75.1879 447.398C74.4422 447.398 73.8377 446.793 73.8377 446.048L72.4874 446.048L71.1372 446.048C71.1375 448.285 72.9508 450.098 75.1874 450.098L75.1876 448.748ZM72.4874 446.048H73.8377V445.538H72.4874H71.1372V446.048H72.4874ZM67.8774 443.628L66.9227 442.674L66.562 443.034L67.5167 443.989L68.4715 444.944L68.8322 444.583L67.8774 443.628ZM67.5167 443.989L66.562 443.034C66.035 443.561 65.1794 443.561 64.6519 443.034L63.6974 443.989L62.7429 444.944C64.3245 446.525 66.8895 446.526 68.4714 444.944L67.5167 443.989ZM63.6974 443.989L64.6521 443.034L60.8348 439.217L59.88 440.172L58.9252 441.126L62.7426 444.944L63.6974 443.989ZM59.88 440.172L60.8348 439.217C60.3076 438.69 60.3075 437.834 60.8348 437.307L59.88 436.352L58.9252 435.398C57.3436 436.98 57.3433 439.545 58.9252 441.126L59.88 440.172ZM59.88 436.352L60.8348 437.307L61.1955 436.946L60.2407 435.992L59.286 435.037L58.9252 435.398L59.88 436.352ZM58.3312 431.382V430.031H57.8204V431.382V432.732H58.3312V431.382ZM57.8204 431.382L57.8207 430.031C57.0753 430.031 56.4707 429.427 56.4705 428.681L55.1202 428.681L53.77 428.682C53.7705 430.918 55.5836 432.732 57.8202 432.732L57.8204 431.382ZM55.1202 428.681H56.4705V423.283H55.1202H53.77V428.681H55.1202ZM55.1202 423.283H56.4705C56.4705 422.537 57.0754 421.932 57.8207 421.932L57.8204 420.582L57.8202 419.232C55.5831 419.232 53.77 421.046 53.77 423.283H55.1202ZM57.8204 420.582V421.932H58.3322V420.582V419.232H57.8204V420.582ZM60.2417 415.972L61.1965 415.017L60.8348 414.655L59.88 415.61L58.9252 416.565L59.2869 416.927L60.2417 415.972ZM59.88 415.61L60.8348 414.655C60.3075 414.128 60.3075 413.273 60.8348 412.746L59.88 411.791L58.9252 410.836C57.3433 412.418 57.3434 414.983 58.9252 416.565L59.88 415.61ZM59.88 411.791L60.8346 412.746L64.652 408.929L63.6974 407.974L62.7428 407.02L58.9254 410.836L59.88 411.791ZM63.6974 407.974L64.6521 408.929C65.1794 408.402 66.0337 408.402 66.561 408.929L67.5157 407.974L68.4705 407.02C66.8886 405.438 64.3245 405.438 62.7426 407.02L63.6974 407.974ZM67.5157 407.974L66.5611 408.929L66.923 409.291L67.8776 408.336L68.8323 407.381L68.4704 407.02L67.5157 407.974ZM72.4874 406.427H73.8377V405.915H72.4874H71.1372V406.427H72.4874ZM72.4874 405.915L73.8377 405.915C73.8378 405.17 74.4423 404.565 75.1879 404.565L75.1876 403.215L75.1874 401.864C72.9508 401.865 71.1375 403.678 71.1372 405.915L72.4874 405.915ZM75.1876 403.215V404.565H80.587V403.215V401.864H75.1876V403.215ZM77.8693 418.522L77.8692 417.172C72.9128 417.172 68.895 421.191 68.895 426.147H70.2452H71.5955C71.5955 422.682 74.4046 419.873 77.8693 419.873L77.8693 418.522ZM70.2452 426.147L68.895 426.147C68.8953 431.103 72.9131 435.121 77.8692 435.122L77.8693 433.771L77.8693 432.421C74.4046 432.421 71.5957 429.612 71.5955 426.147L70.2452 426.147ZM77.8693 433.771V435.122C82.8256 435.122 86.8433 431.103 86.8435 426.147L85.4933 426.147L84.1431 426.147C84.1429 429.612 81.334 432.421 77.8693 432.421V433.771ZM85.4933 426.147H86.8435C86.8435 421.191 82.8259 417.172 77.8693 417.172V418.522V419.873C81.334 419.873 84.1431 422.682 84.1431 426.147H85.4933ZM67.8776 408.336L66.923 409.291C69.4749 411.843 73.8377 410.035 73.8377 406.427H72.4874H71.1372C71.1372 407.629 69.6829 408.232 68.8323 407.381L67.8776 408.336ZM58.3322 420.582V421.932C61.941 421.932 63.7483 417.569 61.1965 415.017L60.2417 415.972L59.2869 416.927C60.1375 417.777 59.5351 419.232 58.3322 419.232V420.582ZM60.2407 435.992L61.1955 436.946C63.7473 434.395 61.94 430.031 58.3312 430.031V431.382V432.732C59.5341 432.732 60.1366 434.186 59.286 435.037L60.2407 435.992ZM72.4874 445.538H73.8377C73.8377 441.929 69.4745 440.122 66.9227 442.674L67.8774 443.628L68.8322 444.583C69.6828 443.733 71.1372 444.335 71.1372 445.538H72.4874ZM87.8972 443.627L88.852 442.673C86.3002 440.121 81.937 441.928 81.937 445.537H83.2872H84.6375C84.6375 444.334 86.0919 443.732 86.9425 444.582L87.8972 443.627ZM97.4434 431.382V430.031C93.8347 430.031 92.0274 434.395 94.5792 436.946L95.5339 435.992L96.4887 435.037C95.6381 434.186 96.2405 432.732 97.4434 432.732V431.382ZM95.5339 415.972L94.5792 415.017C92.0274 417.569 93.8347 421.932 97.4434 421.932V420.582V419.232C96.2405 419.232 95.6381 417.777 96.4887 416.927L95.5339 415.972ZM83.2872 406.426H81.937C81.937 410.034 86.3002 411.842 88.852 409.29L87.8972 408.335L86.9425 407.38C86.0919 408.231 84.6375 407.629 84.6375 406.426H83.2872Z" fill="#4B4848"/>
<path d="M255.094 530.364H276.474C278.001 530.364 279.239 531.602 279.239 533.129V555.199" stroke="#4B4848" stroke-width="2.7649" stroke-linecap="round"/>
<rect x="246.875" y="536.042" width="25.5291" height="25.5291" rx="1.38245" stroke="#4B4848" stroke-width="2.7649"/>
<path d="M271.98 561.129L279.239 555.413" stroke="#4B4848" stroke-width="2.7649" stroke-linecap="round"/>
<path d="M271.98 536.323L278.23 531.46" stroke="#4B4848" stroke-width="2.7649" stroke-linecap="round"/>
<path d="M247.402 536.323L254.661 530.607" stroke="#4B4848" stroke-width="2.7649" stroke-linecap="round"/>
<defs>
<filter id="filter0_dddd_8055_2977" x="498" y="347.864" width="115.347" height="115.513" filterUnits="userSpaceOnUse" color-interpolation-filters="sRGB">
<feFlood flood-opacity="0" result="BackgroundImageFix"/>
<feColorMatrix in="SourceAlpha" type="matrix" values="0 0 0 0 0 0 0 0 0 0 0 0 0 0 0 0 0 0 127 0" result="hardAlpha"/>
<feOffset dx="2" dy="4"/>
<feGaussianBlur stdDeviation="5"/>
<feColorMatrix type="matrix" values="0 0 0 0 0 0 0 0 0 0 0 0 0 0 0 0 0 0 0.1 0"/>
<feBlend mode="normal" in2="BackgroundImageFix" result="effect1_dropShadow_8055_2977"/>
<feColorMatrix in="SourceAlpha" type="matrix" values="0 0 0 0 0 0 0 0 0 0 0 0 0 0 0 0 0 0 127 0" result="hardAlpha"/>
<feOffset dx="8" dy="15"/>
<feGaussianBlur stdDeviation="8.5"/>
<feColorMatrix type="matrix" values="0 0 0 0 0 0 0 0 0 0 0 0 0 0 0 0 0 0 0.09 0"/>
<feBlend mode="normal" in2="effect1_dropShadow_8055_2977" result="effect2_dropShadow_8055_2977"/>
<feColorMatrix in="SourceAlpha" type="matrix" values="0 0 0 0 0 0 0 0 0 0 0 0 0 0 0 0 0 0 127 0" result="hardAlpha"/>
<feOffset dx="18" dy="34"/>
<feGaussianBlur stdDeviation="11.5"/>
<feColorMatrix type="matrix" values="0 0 0 0 0 0 0 0 0 0 0 0 0 0 0 0 0 0 0.05 0"/>
<feBlend mode="normal" in2="effect2_dropShadow_8055_2977" result="effect3_dropShadow_8055_2977"/>
<feColorMatrix in="SourceAlpha" type="matrix" values="0 0 0 0 0 0 0 0 0 0 0 0 0 0 0 0 0 0 127 0" result="hardAlpha"/>
<feOffset dx="33" dy="61"/>
<feGaussianBlur stdDeviation="14"/>
<feColorMatrix type="matrix" values="0 0 0 0 0 0 0 0 0 0 0 0 0 0 0 0 0 0 0.01 0"/>
<feBlend mode="normal" in2="effect3_dropShadow_8055_2977" result="effect4_dropShadow_8055_2977"/>
<feBlend mode="normal" in="SourceGraphic" in2="effect4_dropShadow_8055_2977" result="shape"/>
</filter>
<filter id="filter1_dddd_8055_2977" x="437.496" y="454.835" width="118.289" height="123.269" filterUnits="userSpaceOnUse" color-interpolation-filters="sRGB">
<feFlood flood-opacity="0" result="BackgroundImageFix"/>
<feColorMatrix in="SourceAlpha" type="matrix" values="0 0 0 0 0 0 0 0 0 0 0 0 0 0 0 0 0 0 127 0" result="hardAlpha"/>
<feOffset dx="2" dy="4"/>
<feGaussianBlur stdDeviation="5"/>
<feColorMatrix type="matrix" values="0 0 0 0 0 0 0 0 0 0 0 0 0 0 0 0 0 0 0.1 0"/>
<feBlend mode="normal" in2="BackgroundImageFix" result="effect1_dropShadow_8055_2977"/>
<feColorMatrix in="SourceAlpha" type="matrix" values="0 0 0 0 0 0 0 0 0 0 0 0 0 0 0 0 0 0 127 0" result="hardAlpha"/>
<feOffset dx="8" dy="15"/>
<feGaussianBlur stdDeviation="8.5"/>
<feColorMatrix type="matrix" values="0 0 0 0 0 0 0 0 0 0 0 0 0 0 0 0 0 0 0.09 0"/>
<feBlend mode="normal" in2="effect1_dropShadow_8055_2977" result="effect2_dropShadow_8055_2977"/>
<feColorMatrix in="SourceAlpha" type="matrix" values="0 0 0 0 0 0 0 0 0 0 0 0 0 0 0 0 0 0 127 0" result="hardAlpha"/>
<feOffset dx="18" dy="34"/>
<feGaussianBlur stdDeviation="11.5"/>
<feColorMatrix type="matrix" values="0 0 0 0 0 0 0 0 0 0 0 0 0 0 0 0 0 0 0.05 0"/>
<feBlend mode="normal" in2="effect2_dropShadow_8055_2977" result="effect3_dropShadow_8055_2977"/>
<feColorMatrix in="SourceAlpha" type="matrix" values="0 0 0 0 0 0 0 0 0 0 0 0 0 0 0 0 0 0 127 0" result="hardAlpha"/>
<feOffset dx="33" dy="61"/>
<feGaussianBlur stdDeviation="14"/>
<feColorMatrix type="matrix" values="0 0 0 0 0 0 0 0 0 0 0 0 0 0 0 0 0 0 0.01 0"/>
<feBlend mode="normal" in2="effect3_dropShadow_8055_2977" result="effect4_dropShadow_8055_2977"/>
<feBlend mode="normal" in="SourceGraphic" in2="effect4_dropShadow_8055_2977" result="shape"/>
</filter>
</defs>
</svg>
