<svg width="89" height="59" viewBox="0 0 89 59" fill="none" xmlns="http://www.w3.org/2000/svg">
<g clip-path="url(#clip0_4_350)">
<path d="M63.7502 19.8673C64.351 19.8159 64.9573 19.8058 65.5491 19.7074C68.564 19.204 71.5755 18.6726 74.5892 18.1625C75.2403 18.0528 75.897 17.9812 76.5537 17.9085C77.1746 17.8403 77.3849 18.1188 77.1466 18.695C76.7875 19.5608 76.4094 20.42 76.0402 21.2814C75.9317 21.5353 75.8153 21.7859 75.7147 22.0432C75.3835 22.8957 75.614 23.1988 76.5145 23.0321C78.0303 22.7513 79.5372 22.4224 81.0519 22.1349C83.2423 21.7188 85.4372 21.3183 87.631 20.9189C87.7272 20.901 87.8357 20.9502 87.9386 20.9681C87.9699 21.052 88.0013 21.1359 88.0326 21.221C81.8731 24.0636 75.7135 26.9062 69.554 29.7477C69.4712 29.6872 69.3884 29.6257 69.3045 29.5653C69.5193 28.6144 69.7185 27.6591 69.9523 26.7126C70.2655 25.4474 70.0596 25.2035 68.781 25.4608C62.4637 26.7339 56.1386 27.9667 49.837 29.3158C46.1397 30.1068 43.6562 28.1457 42.5073 25.4217C41.3595 22.701 40.2733 19.9546 39.1624 17.2194C38.8816 16.5292 38.64 15.8199 38.3156 15.1509C38.1478 14.8053 37.839 14.5267 37.594 14.2191C37.3524 14.5189 37.0212 14.7818 36.8814 15.123C35.5423 18.4209 34.2391 21.7322 32.9145 25.0357C32.6885 25.5995 32.4335 26.1533 32.1527 26.6903C31.0776 28.7509 29.3559 29.7857 27.0425 29.7119C25.9808 29.6783 24.8834 29.5888 23.8766 29.2812C22.4189 28.8359 21.5016 27.6758 20.9255 26.311C19.724 23.4651 18.584 20.5923 17.4228 17.7295C17.0906 16.9106 16.7975 16.0772 16.4406 15.2706C16.2605 14.8623 15.9775 14.4987 15.643 13.9551C15.3935 14.3969 15.2235 14.6386 15.1139 14.9048C13.6864 18.347 12.3003 21.806 10.8348 25.2326C9.84704 27.5427 8.21263 29.2476 5.63851 29.6425C4.23231 29.8584 2.77018 29.7354 1.33377 29.7163C0.670387 29.7074 0.776663 29.2006 0.926568 28.808C1.41767 27.5192 1.94794 26.245 2.45694 24.9619C4.7883 19.0876 7.08834 13.2011 9.46333 7.34469C10.4097 5.00885 12.1012 3.43933 14.6619 2.93032C17.7674 2.3128 20.3907 3.67201 21.6045 6.64438C22.9716 9.9904 24.2782 13.361 25.6139 16.7205C25.7459 17.0538 25.8645 17.3995 26.0502 17.7016C26.1822 17.9163 26.4496 18.2363 26.6017 18.2083C26.84 18.1647 27.1242 17.9074 27.2271 17.6702C27.8054 16.3278 28.3223 14.9596 28.8827 13.6094C29.9623 11.0095 30.9624 8.37277 32.1706 5.83333C33.3441 3.36661 36.2907 2.20541 38.9174 2.97507C41.1101 3.6172 42.7367 4.92943 43.6092 7.08179C45.3701 11.4302 47.1376 15.7763 48.8671 20.1381C49.4656 21.6483 49.8605 21.8743 51.2096 20.9055C54.6642 18.4242 58.0829 15.8915 61.4737 13.3241C62.2344 12.748 62.8799 11.9906 63.4773 11.2355C64.2223 10.2947 64.1731 9.4098 63.4795 8.42087C62.2713 6.69808 60.2017 6.10182 57.8469 6.76744C56.1767 7.24065 54.8007 8.16805 53.5936 9.38854C52.7244 10.2678 52.5308 10.2365 51.9178 9.13012C51.3137 8.03828 50.7129 6.91623 50.8617 5.62414C51.0452 4.03447 51.9771 2.89228 53.4358 2.32734C54.8152 1.79373 56.2494 1.33171 57.7003 1.07217C60.5295 0.5654 63.3587 0.624691 66.1051 1.63375C69.6569 2.93703 71.6963 5.80313 71.5744 9.48139C71.5084 11.4548 70.7834 13.2167 69.3023 14.5692C67.6903 16.0425 66.0256 17.4577 64.3655 18.8773C64.1015 19.1033 63.7435 19.2185 63.4292 19.3852C63.5365 19.5463 63.6428 19.7074 63.7502 19.8685" fill="#4B4848"/>
<path d="M69.931 58.8522C75.9858 58.8522 80.8942 53.9438 80.8942 47.889C80.8942 41.8342 75.9858 36.9258 69.931 36.9258C63.8762 36.9258 58.9678 41.8342 58.9678 47.889C58.9678 53.9438 63.8762 58.8522 69.931 58.8522Z" fill="#2E4998"/>
<path d="M42.7463 58.8541C48.8011 58.8541 53.7095 53.9458 53.7095 47.8909C53.7095 41.8361 48.8011 36.9277 42.7463 36.9277C36.6915 36.9277 31.7831 41.8361 31.7831 47.8909C31.7831 53.9458 36.6915 58.8541 42.7463 58.8541Z" fill="#63B760"/>
<path d="M15.8979 58.8522C21.9527 58.8522 26.8611 53.9438 26.8611 47.889C26.8611 41.8342 21.9527 36.9258 15.8979 36.9258C9.84309 36.9258 4.93469 41.8342 4.93469 47.889C4.93469 53.9438 9.84309 58.8522 15.8979 58.8522Z" fill="#E3253E"/>
</g>
<defs>
<clipPath id="clip0_4_350">
<rect width="87.219" height="58.0927" fill="white" transform="translate(0.814819 0.760254)"/>
</clipPath>
</defs>
</svg>
