<svg width="181" height="56" viewBox="0 0 181 56" fill="none" xmlns="http://www.w3.org/2000/svg">
<mask id="mask0_8087_3827" style="mask-type:luminance" maskUnits="userSpaceOnUse" x="0" y="0" width="181" height="56">
<path d="M180.435 0.000244141H0V55.5209H180.435V0.000244141Z" fill="white"/>
</mask>
<g mask="url(#mask0_8087_3827)">
<path d="M105.441 20.9604C105.576 20.51 105.712 20.0896 105.847 19.6242C106.883 16.126 107.919 12.6578 108.954 9.15962L109.09 8.75425C109.21 8.34888 109.6 8.10866 110.005 8.10866H113.429C114.284 8.10866 114.465 8.36389 114.179 9.15962L112.828 12.7479C111.312 16.6665 109.81 20.6151 108.294 24.5337C108.249 24.6688 108.174 24.8039 108.129 24.939C107.979 25.4195 107.498 25.7348 107.003 25.6897C106.012 25.6597 105.021 25.6597 104.03 25.6897C103.324 25.7047 102.919 25.3894 102.679 24.7589C102.108 23.2725 101.523 21.7561 100.967 20.2698C99.6159 16.7265 98.2347 13.1833 96.8834 9.62504C96.7483 9.3548 96.6582 9.03951 96.5982 8.73924C96.5231 8.28882 96.6883 8.06362 97.1387 8.06362C98.4298 8.0486 99.706 8.06362 100.967 8.06362C101.508 8.06362 101.763 8.42395 101.898 8.90439C102.153 9.76017 102.393 10.646 102.664 11.5018C103.595 14.6396 104.495 17.7925 105.411 20.9304C105.381 20.9604 105.396 20.9604 105.441 20.9604Z" fill="#4B4848"/>
</g>
<mask id="mask1_8087_3827" style="mask-type:luminance" maskUnits="userSpaceOnUse" x="0" y="0" width="181" height="56">
<path d="M180.435 0.000244141H0V55.5209H180.435V0.000244141Z" fill="white"/>
</mask>
<g mask="url(#mask1_8087_3827)">
<path d="M121.416 16.9077V25.0301C121.371 25.4805 121.161 25.6907 120.71 25.7057C119.494 25.7357 118.293 25.7357 117.077 25.7057C116.626 25.7057 116.416 25.4805 116.371 25.0601C116.356 24.925 116.356 24.7598 116.356 24.6397V9.01044C116.371 8.3048 116.566 8.10962 117.257 8.10962H120.5C121.206 8.10962 121.401 8.31981 121.401 9.01044V16.9077H121.416Z" fill="#4B4848"/>
</g>
<mask id="mask2_8087_3827" style="mask-type:luminance" maskUnits="userSpaceOnUse" x="0" y="0" width="181" height="56">
<path d="M180.435 0.000244141H0V55.5209H180.435V0.000244141Z" fill="white"/>
</mask>
<g mask="url(#mask2_8087_3827)">
<path d="M118.909 0.0168764C119.359 -0.0281647 119.809 0.0619175 120.245 0.242082C121.131 0.572384 121.731 1.39814 121.776 2.344C121.956 4.40088 120.575 5.43682 118.758 5.39178C118.503 5.39178 118.263 5.34674 118.008 5.3017C116.612 4.9714 115.891 3.8754 116.026 2.32899C116.131 1.06784 117.107 0.152 118.428 0.0318901C118.593 0.0168764 118.743 -0.013151 118.909 0.0168764Z" fill="#4B4848"/>
</g>
<mask id="mask3_8087_3827" style="mask-type:luminance" maskUnits="userSpaceOnUse" x="0" y="0" width="181" height="56">
<path d="M180.435 0.000244141H0V55.5209H180.435V0.000244141Z" fill="white"/>
</mask>
<g mask="url(#mask3_8087_3827)">
<path d="M175 19.7903C174.865 20.2707 174.67 20.6911 174.369 21.0965C173.874 21.8021 173.078 22.2525 172.222 22.3126C171.787 22.3576 171.366 22.3576 170.931 22.2675C169.985 22.0874 169.19 21.4568 168.814 20.571C168.484 19.8653 168.274 19.0996 168.214 18.3339C168.094 16.9977 168.078 15.6765 168.394 14.3703C168.514 13.8599 168.724 13.3344 168.994 12.884C169.49 12.0732 170.346 11.5477 171.291 11.4877C171.712 11.4427 172.147 11.4427 172.583 11.5327C173.483 11.7129 174.234 12.2984 174.639 13.1392C175.015 13.9349 175.24 14.8057 175.285 15.6915C175.3 16.0969 175.33 16.5023 175.3 16.9076C175.39 17.8985 175.27 18.8594 175 19.7903ZM180.42 15.4964V15.5864C180.33 15.4964 180.285 15.3612 180.33 15.2411V15.061C180.33 15.061 180.33 15.0459 180.345 15.0459H180.33V14.8207H180.375C180.375 14.7907 180.36 14.7907 180.36 14.7757C180.315 14.3403 180.225 13.9199 180.104 13.5145C179.264 10.5418 177.402 8.57503 174.354 7.80933C172.928 7.46402 171.487 7.43399 170.045 7.64418C166.998 8.09459 164.821 9.71608 163.755 12.5987C162.719 15.3462 162.734 18.364 163.77 21.1265C164.67 23.6338 166.472 25.2102 169.069 25.8558C170.451 26.2011 171.892 26.2762 173.303 26.081C178.033 25.5105 179.999 21.9372 180.315 18.8144H180.3V18.4991C180.285 18.364 180.255 18.2439 180.39 18.1538V18.1988C180.39 18.1688 180.42 18.1238 180.435 18.1087V15.5114C180.435 15.5264 180.42 15.5264 180.42 15.4964Z" fill="#4B4848"/>
</g>
<mask id="mask4_8087_3827" style="mask-type:luminance" maskUnits="userSpaceOnUse" x="0" y="0" width="181" height="56">
<path d="M180.435 0.000244141H0V55.5209H180.435V0.000244141Z" fill="white"/>
</mask>
<g mask="url(#mask4_8087_3827)">
<path d="M136.76 16.7714V20.8702C136.805 21.1404 136.64 21.3956 136.4 21.5007C135.319 22.1163 134.072 22.3565 132.856 22.1764C131.82 22.0713 130.919 21.4257 130.439 20.5098C130.079 19.7892 129.869 19.0235 129.808 18.2278C129.628 16.8014 129.733 15.3601 130.079 13.9939C130.184 13.6035 130.334 13.2432 130.529 12.8829C131.01 11.9971 131.91 11.4416 132.901 11.3665C134.102 11.2464 135.288 11.4866 136.369 11.982C136.64 12.0721 136.805 12.3424 136.775 12.6276C136.745 14.0389 136.76 15.3902 136.76 16.7714ZM140.889 0.16626H137.751C136.895 0.16626 136.73 0.331411 136.73 1.18719V8.48385C136.73 8.63399 136.79 8.79914 136.685 8.96429C136.49 8.94928 136.369 8.79914 136.204 8.72407C133.862 7.34281 131.4 7.10259 128.923 8.24363C127.211 9.05437 126.115 10.5257 125.424 12.2523C124.749 13.9188 124.584 15.6754 124.629 17.4621C124.629 19.1286 125.004 20.7801 125.755 22.2664C126.611 23.9179 127.857 25.1791 129.658 25.7196C132.121 26.4853 134.418 26.1099 136.52 24.5485C136.685 24.4584 136.775 24.3083 136.97 24.2633C137.09 24.5035 137.18 24.7737 137.225 25.059C137.315 25.4193 137.631 25.6745 138.021 25.6745H138.561C139.372 25.6745 140.168 25.6896 140.949 25.6745C141.579 25.6745 141.759 25.4644 141.789 24.8188V1.02204C141.744 0.331411 141.564 0.16626 140.889 0.16626Z" fill="#4B4848"/>
</g>
<mask id="mask5_8087_3827" style="mask-type:luminance" maskUnits="userSpaceOnUse" x="0" y="0" width="181" height="56">
<path d="M180.435 0.000244141H0V55.5209H180.435V0.000244141Z" fill="white"/>
</mask>
<g mask="url(#mask5_8087_3827)">
<path d="M149.792 14.9406C149.957 14.0698 150.152 13.199 150.693 12.4783C151.533 11.3673 152.674 11.052 153.981 11.1871C154.086 11.1871 154.176 11.2322 154.296 11.2322C155.872 11.4874 156.263 12.7486 155.962 13.9647C155.737 14.8655 154.987 15.2108 154.161 15.3609C153.71 15.451 153.23 15.4961 152.765 15.466C151.834 15.451 150.933 15.3759 150.032 15.2408C149.837 15.2258 149.747 15.1357 149.792 14.9406ZM154.506 18.5438C155.812 18.4538 157.118 18.2135 158.29 17.568C159.491 16.9824 160.316 15.8714 160.572 14.5652C160.737 13.7545 160.737 12.8987 160.557 12.0879C160.091 10.0611 158.8 8.79994 156.863 8.13934C155.782 7.79403 154.626 7.6589 153.5 7.70394C149.702 7.80904 146.819 9.73079 145.648 13.5142C144.852 16.0215 144.972 18.5589 145.738 21.0661C146.534 23.6335 148.335 25.1949 150.903 25.8855C152.014 26.1558 153.155 26.2759 154.281 26.2309C155.932 26.2158 157.569 25.8855 159.13 25.3C159.791 25.0448 159.941 24.8196 159.941 24.1289V22.5075C159.926 21.8469 159.656 21.6217 158.995 21.7868C158.5 21.9219 158.019 22.042 157.524 22.1471C156.007 22.5075 154.431 22.5675 152.9 22.2973C151.368 22.012 150.332 21.1262 149.927 19.5948C149.822 19.1444 149.717 18.694 149.672 18.2135C149.792 18.2135 149.897 18.2135 149.987 18.2586C151.488 18.5438 152.99 18.664 154.506 18.5438Z" fill="#4B4848"/>
</g>
<mask id="mask6_8087_3827" style="mask-type:luminance" maskUnits="userSpaceOnUse" x="0" y="0" width="181" height="56">
<path d="M180.435 0.000244141H0V55.5209H180.435V0.000244141Z" fill="white"/>
</mask>
<g mask="url(#mask6_8087_3827)">
<path d="M130.859 33.4495C132.346 33.4945 133.817 33.5846 135.258 33.9749C135.664 34.08 136.054 34.2152 136.43 34.3953C136.955 34.6055 137.285 35.101 137.36 35.6415C137.45 36.272 137.465 36.9326 137.42 37.5782C137.135 41.4368 135.934 45.1602 133.952 48.4632C133.232 49.6643 132.346 50.7453 131.34 51.6911C131.13 51.8863 130.89 52.0514 130.619 52.1415C130.199 52.2616 129.929 52.0214 129.899 51.601C129.914 51.3758 129.959 51.1506 130.049 50.9254C130.844 48.8085 131.61 46.7066 132.211 44.5296C132.571 43.3285 132.826 42.1124 132.976 40.8812C133.021 40.4308 133.036 39.9804 132.991 39.53C132.976 38.7643 132.466 38.1037 131.73 37.8785C131.025 37.6533 130.304 37.5182 129.568 37.4731C127.496 37.3831 125.425 37.4731 123.368 37.7434L120.635 38.0887C120.335 38.1037 120.065 38.0887 119.914 37.8185C119.764 37.5482 119.824 37.278 119.975 37.0077C120.155 36.7675 120.38 36.5423 120.65 36.3771C122.317 35.176 124.193 34.4554 126.175 33.99C127.722 33.6446 129.283 33.4945 130.859 33.4495ZM89.3616 55.4295C88.1305 55.3695 86.8993 55.3244 85.6682 55.2344C82.3802 54.9941 79.1072 54.4837 75.9093 53.748C64.8442 51.1807 55.1303 46.0159 46.6476 38.5091C45.8519 37.8034 45.1162 37.0828 44.3505 36.3621C44.1703 36.212 44.0052 35.9718 43.9151 35.7466C43.78 35.4313 43.855 35.101 44.0652 34.8457C44.2904 34.5905 44.6508 34.5004 44.966 34.6355C45.1612 34.7256 45.3714 34.8157 45.5516 34.9208C53.644 39.9204 62.487 43.5837 71.7505 45.7457C74.8583 46.4663 77.9962 47.0369 81.1491 47.4422C85.6832 48.0128 90.2624 48.2079 94.8116 48.0578C97.2738 47.9827 99.706 47.7575 102.138 47.4422C107.813 46.7216 113.429 45.4304 118.864 43.6288C121.731 42.6829 124.524 41.6019 127.256 40.3408C127.662 40.1156 128.157 40.0405 128.607 40.1606C129.358 40.3408 129.809 41.1065 129.628 41.8571C129.613 41.9472 129.568 42.0523 129.523 42.1424C129.343 42.4727 129.088 42.773 128.773 42.9982C126.175 45.025 123.383 46.8117 120.425 48.298C114.855 51.1206 108.909 53.1174 102.769 54.2735C99.2406 54.9041 95.6824 55.2794 92.1091 55.4295H92.0941V55.5196H89.3916V55.4295H89.3616Z" fill="#818181"/>
</g>
<mask id="mask7_8087_3827" style="mask-type:luminance" maskUnits="userSpaceOnUse" x="0" y="0" width="181" height="56">
<path d="M180.435 0.000244141H0V55.5209H180.435V0.000244141Z" fill="white"/>
</mask>
<g mask="url(#mask7_8087_3827)">
<path d="M36.7986 0.016199C37.1589 0.00118533 37.5193 0.0612402 37.8496 0.166336C39.0657 0.571706 39.6962 1.63768 39.5911 3.00393C39.5011 4.175 38.6153 5.12086 37.4442 5.30102C36.9487 5.39111 36.4233 5.39111 35.9278 5.30102C34.6366 5.04579 33.6908 4.09993 33.7808 2.47845C33.931 0.886994 34.997 0.016199 36.7986 0.016199ZM77.8911 14.8648C77.9512 14.3243 78.1163 13.7988 78.3115 13.3033C78.9871 11.6518 80.4134 11.0963 81.8547 11.1864C82.2601 11.2164 82.6655 11.3065 83.0558 11.4566C83.6414 11.7119 84.0317 12.2524 84.0918 12.8829C84.1668 13.2733 84.1368 13.6787 84.0317 14.054C83.7615 14.8648 83.1009 15.2101 82.3202 15.3602C81.8547 15.4653 81.3443 15.5103 80.8488 15.4653C79.963 15.4653 79.0622 15.3902 78.1914 15.2551C77.8461 15.2251 77.8461 15.2251 77.8911 14.8648ZM11.9059 19.6691C11.7407 20.3748 11.3954 21.0054 10.8699 21.4708C10.2844 21.9662 9.56373 22.2515 8.79803 22.2515C7.64198 22.3266 6.51595 22.0713 5.51003 21.5308C5.26981 21.4107 5.10466 21.1705 5.11967 20.9003V16.8165C5.11967 15.4653 5.1497 14.1141 5.11967 12.7628C5.08965 12.4626 5.26981 12.1923 5.57009 12.0722C6.81622 11.4867 8.09239 11.2164 9.44362 11.4867C10.3895 11.6218 11.2002 12.2374 11.5906 13.1082C11.9359 13.8288 12.1311 14.6245 12.1761 15.4053C12.3112 16.8466 12.3112 18.3029 11.9059 19.6691ZM38.2399 25.6446H35.102C34.9819 25.6446 34.8919 25.6446 34.7868 25.6146C34.4715 25.5996 34.2012 25.3443 34.1862 25.029C34.1712 24.8489 34.1712 24.6687 34.1712 24.4885C34.1862 21.9813 34.1862 19.4139 34.1862 16.8466V8.84426C34.2012 8.30377 34.4114 8.09357 34.9519 8.07856C36.123 8.04853 37.2941 8.04853 38.4651 8.07856C38.9906 8.07856 39.1407 8.2287 39.1858 8.75418C39.2008 8.96437 39.2008 9.14453 39.2008 9.33971V24.3534C39.2008 24.6087 39.1858 24.8489 39.1558 25.1041C39.1407 25.3894 38.9005 25.5996 38.6153 25.6146C38.4801 25.6446 38.375 25.6446 38.2399 25.6446ZM24.6225 25.6896H21.6948C21.5447 25.6896 21.3645 25.6896 21.1994 25.6746C20.9141 25.6596 20.6739 25.4044 20.6589 25.1041C20.6288 24.9239 20.6288 24.7438 20.6288 24.5636V9.23462C20.6288 8.19867 20.7489 8.07856 21.7849 8.07856H23.9469C24.5324 8.07856 24.8026 8.28875 24.9678 8.84426C25.1179 9.41478 25.2531 9.97029 25.3882 10.5858C25.5383 10.5408 25.6734 10.4507 25.7635 10.3156C26.1689 9.91023 26.6043 9.53489 27.0547 9.15955C28.2258 8.25872 29.6971 7.80831 31.1534 7.91341C31.739 7.94344 31.9492 8.1236 31.9942 8.67911C32.0393 9.44481 32.0092 10.2405 32.0092 11.0062C32.0393 11.3215 32.0092 11.6218 31.9642 11.9221C31.8741 12.3274 31.709 12.4926 31.3036 12.5376C30.9883 12.5526 30.688 12.5376 30.3727 12.5226C28.8563 12.3875 27.4 12.6728 25.9737 13.1532C25.6734 13.2733 25.6734 13.4985 25.6734 13.7387V24.5636C25.6734 24.7738 25.6734 24.954 25.6584 25.1491C25.6284 25.4344 25.4032 25.6596 25.1179 25.6596C24.9528 25.6896 24.7726 25.6896 24.6225 25.6896ZM47.4433 25.7197H44.4256C43.6298 25.7197 43.4347 25.4945 43.4347 24.7288V9.06946C43.4347 8.8893 43.4497 8.70914 43.4947 8.52897C43.5848 8.25872 43.855 8.10859 44.1253 8.10859H46.9479C47.3532 8.10859 47.6085 8.36382 47.7436 8.73916C47.8487 9.05445 47.9238 9.35472 48.0289 9.68503C48.2541 9.68503 48.3892 9.53489 48.5393 9.42979C49.7855 8.66409 51.0916 8.00349 52.548 7.73324C53.674 7.50804 54.8 7.50804 55.9261 7.73324C56.992 7.95845 57.9379 8.58903 58.5384 9.48985C58.5835 9.56492 58.6285 9.60996 58.6736 9.63999C58.6586 9.67001 58.6736 9.67001 58.6886 9.71505C59.2591 9.38475 59.8446 9.00941 60.4452 8.69412C62.0216 7.88338 63.7782 7.47801 65.5649 7.56809C66.856 7.64316 68.0271 8.00349 68.9279 8.94936C69.7837 9.83516 70.099 10.9162 70.1891 12.0872C70.2041 12.3274 70.2041 12.5827 70.2041 12.8529V24.5336C70.2041 25.5545 70.069 25.6896 69.048 25.6896H66.3005C66.1204 25.6896 65.9402 25.6896 65.76 25.6746C65.4898 25.6596 65.2646 25.4194 65.2195 25.1642C65.1745 24.9089 65.1745 24.6687 65.1745 24.4135V13.9639C65.1895 13.5436 65.1595 13.1382 65.0394 12.7178C64.8592 12.0122 64.2286 11.5167 63.508 11.4717C62.1718 11.3816 60.8506 11.6518 59.6344 12.2223C59.4543 12.2674 59.3492 12.4475 59.3642 12.6277V24.4885C59.3642 24.7137 59.3642 24.9089 59.3192 25.1491C59.3192 25.4644 59.0639 25.6896 58.7486 25.6896C58.4033 25.7197 58.073 25.7197 57.7127 25.7197H55.3255C54.4847 25.7197 54.3046 25.5095 54.3046 24.6837V14.024C54.3046 13.6486 54.2896 13.2433 54.1845 12.8529C54.0343 12.0872 53.3737 11.5467 52.608 11.5017C51.2568 11.4116 49.8755 11.6819 48.6594 12.2674C48.4793 12.3124 48.3742 12.5076 48.4042 12.6878V24.6987C48.4492 25.5395 48.2691 25.7197 47.4433 25.7197ZM78.4616 18.3179C80.1582 18.6332 81.8848 18.6632 83.5813 18.393C84.5722 18.2579 85.5181 17.9576 86.4039 17.4922C87.4098 16.9066 88.1605 16.0959 88.4758 14.9699C89.2715 12.1323 88.0554 9.26464 85.0977 8.19867C83.6564 7.71823 82.125 7.56809 80.6086 7.76327C77.0503 8.16864 74.7232 10.1354 73.6572 13.5285C72.9216 15.8557 72.9966 18.2128 73.6122 20.57C74.4079 23.5727 76.3897 25.3443 79.3775 25.9749C81.089 26.3502 82.8306 26.2902 84.5422 26.0199C85.443 25.8698 86.3438 25.6446 87.1996 25.2993C87.7251 25.0891 87.9953 24.7738 87.9653 24.1883C87.9503 23.6478 87.9653 23.0773 87.9653 22.5217C87.9653 21.8461 87.6951 21.6359 87.0345 21.8011C86.3739 21.9662 85.7433 22.1014 85.0977 22.2365C83.7014 22.5368 82.2601 22.5368 80.8638 22.2815C78.9421 21.9062 77.711 20.2547 77.816 18.2278C78.0262 18.2579 78.2514 18.2729 78.4616 18.3179ZM17.2958 14.9999C17.2057 13.8288 16.8904 12.6728 16.41 11.6218C15.4791 9.68503 14.0678 8.25872 11.9059 7.76327C9.42861 7.22278 7.19157 7.76327 5.16472 9.27966C5.02959 9.41478 4.86444 9.51988 4.68428 9.60996C4.63924 9.59494 4.59419 9.56492 4.59419 9.5499C4.53414 9.3247 4.4891 9.09949 4.41403 8.87429C4.23387 8.30377 4.00866 8.10859 3.40811 8.10859C2.73249 8.10859 2.02685 8.1236 1.35123 8.10859C0.840768 8.07856 0.360329 8.15363 0 8.559C0 16.4562 0 24.3684 0.0150137 32.2356C0.315288 32.7161 0.765699 32.8061 1.27617 32.7761C2.08691 32.7461 2.89765 32.7761 3.70839 32.7761C5.13469 32.7761 5.13469 32.7761 5.13469 31.3798V24.954C5.13469 24.7888 5.05962 24.6087 5.22477 24.4735C6.3508 25.3593 7.73206 25.8998 9.14335 26.035C11.1252 26.2451 12.9268 25.7497 14.4432 24.3834C15.5542 23.3625 16.3649 22.0563 16.7853 20.615C17.4009 18.7683 17.4459 16.8916 17.2958 14.9999Z" fill="#818181"/>
</g>
</svg>
