<svg width="215" height="58" viewBox="0 0 215 58" fill="none" xmlns="http://www.w3.org/2000/svg">
<mask id="mask0_4_598" style="mask-type:luminance" maskUnits="userSpaceOnUse" x="0" y="2" width="215" height="56">
<path d="M214.063 2H0V57.0744H214.063V2Z" fill="white"/>
</mask>
<g mask="url(#mask0_4_598)">
<path d="M170.816 30.3731C170.673 30.8719 170.157 31.1747 169.658 31.0322L166.773 30.2128C166.274 30.0703 165.989 29.536 166.131 29.0372L170.531 13.4518C170.673 12.9531 171.19 12.6681 171.689 12.8106L174.556 13.63C175.055 13.7724 175.34 14.3068 175.198 14.8055L170.816 30.3731Z" fill="#4B4848"/>
</g>
<mask id="mask1_4_598" style="mask-type:luminance" maskUnits="userSpaceOnUse" x="0" y="2" width="215" height="56">
<path d="M214.063 2H0V57.0744H214.063V2Z" fill="white"/>
</mask>
<g mask="url(#mask1_4_598)">
<path d="M52.2602 56.5415C52.4917 57.0046 53.0261 57.2006 53.4892 56.9868L56.6597 55.4194C57.0872 55.2056 57.2653 54.7069 57.105 54.2438C50.4255 41.2055 38.2778 32.6201 34.3592 30.0909C33.7358 29.6812 33.6646 29.2003 33.8249 28.7015C34.4127 26.6888 37.2982 16.9101 38.6519 10.9609C40.3262 3.6224 36.7638 0.22033 29.3897 2.90992C23.583 5.02954 9.88569 12.2434 0.409766 18.5844C-0.0177189 18.8872 -0.12459 19.4572 0.1604 19.9025L2.11971 22.8236C2.42251 23.2333 2.99249 23.3402 3.41998 23.0552C12.5931 16.9101 25.7026 9.99905 31.2421 7.98631C33.3083 7.23821 34.0208 7.25602 33.4508 9.7675C32.0615 15.8592 28.98 26.2435 28.6416 27.4191C27.466 31.3377 27.7154 32.353 30.5653 34.0629C31.1531 34.437 45.2245 42.9867 52.2602 56.5415Z" fill="#4B4848"/>
</g>
<mask id="mask2_4_598" style="mask-type:luminance" maskUnits="userSpaceOnUse" x="0" y="2" width="215" height="56">
<path d="M214.063 2H0V57.0744H214.063V2Z" fill="white"/>
</mask>
<g mask="url(#mask2_4_598)">
<path d="M25.0614 45.9051C25.0614 46.4217 24.634 46.8491 24.1174 46.8491H20.6263C20.1097 46.8491 19.6823 46.4217 19.6823 45.9051V22.2687C19.6823 21.7522 20.1097 21.3247 20.6263 21.3247H24.1174C24.634 21.3247 25.0614 21.7522 25.0614 22.2687V45.9051Z" fill="#4B4848"/>
</g>
<mask id="mask3_4_598" style="mask-type:luminance" maskUnits="userSpaceOnUse" x="0" y="2" width="215" height="56">
<path d="M214.063 2H0V57.0744H214.063V2Z" fill="white"/>
</mask>
<g mask="url(#mask3_4_598)">
<path d="M179.401 56.5415C179.633 57.0046 180.167 57.2006 180.63 56.9868L183.801 55.4194C184.228 55.2056 184.407 54.7069 184.246 54.2438C177.567 41.2055 165.401 32.6201 161.501 30.0909C160.877 29.6812 160.806 29.2003 160.966 28.7015C161.554 26.6888 164.439 16.9101 165.793 10.9609C167.467 3.6224 163.923 0.22033 156.531 2.90992C152.221 4.47737 143.564 8.85909 135.513 13.6149C135.068 13.882 134.925 14.452 135.175 14.9151H135.157L136.938 17.9432C137.205 18.3706 137.757 18.5131 138.185 18.2638C145.933 13.6861 154.233 9.48251 158.348 7.98631C160.414 7.23821 161.126 7.25602 160.556 9.7675C159.167 15.8592 156.086 26.2435 155.729 27.4191C154.554 31.3377 154.785 32.353 157.653 34.0629C158.294 34.437 172.384 42.9867 179.401 56.5415Z" fill="#4B4848"/>
</g>
<mask id="mask4_4_598" style="mask-type:luminance" maskUnits="userSpaceOnUse" x="0" y="2" width="215" height="56">
<path d="M214.063 2H0V57.0744H214.063V2Z" fill="white"/>
</mask>
<g mask="url(#mask4_4_598)">
<path d="M152.22 45.9051C152.22 46.4217 151.793 46.8491 151.276 46.8491H147.785C147.269 46.8491 146.841 46.4217 146.841 45.9051V22.2687C146.841 21.7522 147.269 21.3247 147.785 21.3247H151.276C151.793 21.3247 152.22 21.7522 152.22 22.2687V45.9051Z" fill="#4B4848"/>
</g>
<mask id="mask5_4_598" style="mask-type:luminance" maskUnits="userSpaceOnUse" x="0" y="2" width="215" height="56">
<path d="M214.063 2H0V57.0744H214.063V2Z" fill="white"/>
</mask>
<g mask="url(#mask5_4_598)">
<path d="M115.831 19.418C115.688 19.9167 115.172 20.2195 114.673 20.077L111.787 19.2577C111.289 19.1152 111.004 18.5808 111.146 18.0821L112.286 14.021C112.429 13.5223 112.945 13.2195 113.444 13.362L116.329 14.1813C116.828 14.3238 117.113 14.8582 116.971 15.3569L115.831 19.418Z" fill="#4B4848"/>
</g>
<mask id="mask6_4_598" style="mask-type:luminance" maskUnits="userSpaceOnUse" x="0" y="2" width="215" height="56">
<path d="M214.063 2H0V57.0744H214.063V2Z" fill="white"/>
</mask>
<g mask="url(#mask6_4_598)">
<path d="M176.498 10.211C176.356 10.7097 175.839 11.0125 175.34 10.87L172.455 10.0507C171.956 9.90816 171.671 9.37381 171.814 8.87507L172.953 4.81396C173.096 4.31523 173.613 4.01243 174.111 4.15492L176.997 4.97427C177.496 5.11677 177.781 5.65112 177.638 6.14986L176.498 10.211Z" fill="#4B4848"/>
</g>
<mask id="mask7_4_598" style="mask-type:luminance" maskUnits="userSpaceOnUse" x="0" y="2" width="215" height="56">
<path d="M214.063 2H0V57.0744H214.063V2Z" fill="white"/>
</mask>
<g mask="url(#mask7_4_598)">
<path d="M136.564 23.4473C134.462 21.7552 131.63 23.1623 130.704 23.6254C130.454 23.7501 129.581 24.1776 128.548 24.6763C128.192 24.8544 127.978 24.7832 127.889 24.516C127.658 23.9282 127.266 23.3939 126.66 23.002C124.38 21.488 121.726 23.6076 120.533 24.5694C118.485 26.315 115.955 28.4346 113.675 30.3583C112.464 31.3914 112.874 30.0377 112.91 29.913L114.566 23.9995C114.709 23.5007 114.424 22.9664 113.925 22.8239L111.039 22.0045C110.541 21.862 110.024 22.1648 109.882 22.6636L106.088 36.254C105.535 38.249 106.319 39.2464 107.067 39.763C107.673 40.1727 108.955 40.6536 110.647 39.3355L121.548 30.1624C122.76 29.1293 122.35 30.483 122.314 30.5899L119.856 39.2821C119.714 39.7808 119.999 40.3152 120.497 40.4576L123.383 41.277C123.882 41.4195 124.398 41.1167 124.541 40.618L127.07 31.6051C127.195 31.142 127.497 30.6433 128.103 30.3405C129.688 29.5568 132.022 28.4346 132.485 28.2209C132.877 28.025 133.055 28.1318 132.948 28.5771L130.49 39.6027C130.383 40.1192 130.704 40.618 131.202 40.7248L134.124 41.3839C134.622 41.4907 135.139 41.1701 135.246 40.6714L137.686 29.7527C137.935 28.6127 138.755 25.2107 136.564 23.4473Z" fill="#4B4848"/>
</g>
<mask id="mask8_4_598" style="mask-type:luminance" maskUnits="userSpaceOnUse" x="0" y="2" width="215" height="56">
<path d="M214.063 2H0V57.0744H214.063V2Z" fill="white"/>
</mask>
<g mask="url(#mask8_4_598)">
<path d="M78.2476 13.8796L77.1789 10.9585C76.983 10.5132 76.4843 10.2816 76.0033 10.4419C72.3697 11.7956 58.6189 16.9077 57.2296 17.442C53.7029 18.8491 53.026 20.2919 52.4026 22.3225C52.4026 22.3225 52.0998 23.3199 52.0107 23.6227C51.5832 25.0833 51.0133 27.0782 49.4993 28.4676C46.7918 30.9256 45.2422 29.5897 45.2066 27.5592C45.1532 24.638 46.7562 22.3581 50.0692 20.5769V20.5591C50.5145 20.3275 50.6926 19.7754 50.4967 19.3123L49.1074 16.6049C48.8758 16.1417 48.3415 15.9636 47.8784 16.1774C41.5551 19.5438 40.2549 24.2461 40.3083 27.6482C40.4152 33.8824 46.9343 37.4091 52.7588 32.1012C55.3237 29.7678 56.1787 26.7754 56.6953 24.9942C56.7665 24.7449 57.0693 23.783 57.0693 23.783C57.4077 22.6787 57.4077 22.6609 59.0286 22.0197C60.3467 21.5031 74.0618 16.4089 77.6777 15.0552C78.1408 14.8771 78.3723 14.3606 78.2476 13.8796Z" fill="#4B4848"/>
</g>
<mask id="mask9_4_598" style="mask-type:luminance" maskUnits="userSpaceOnUse" x="0" y="2" width="215" height="56">
<path d="M214.063 2H0V57.0744H214.063V2Z" fill="white"/>
</mask>
<g mask="url(#mask9_4_598)">
<path d="M103.897 45.2127C100.869 42.2025 94.1715 35.5052 90.146 31.4797C89.6116 30.9454 89.6294 30.7494 90.4488 30.411C93.6905 29.0217 97.3598 27.2761 103.149 24.159C103.612 23.9097 103.772 23.3397 103.541 22.8588L102.116 20.2226C101.866 19.7773 101.332 19.5992 100.869 19.8307C94.1715 23.4466 90.3954 25.1743 86.7439 26.6527C84.9984 27.3652 84.9271 27.098 85.5505 25.5662C88.2401 18.8867 91.7847 12.3319 96.6295 6.77464L96.6117 6.75683C96.9501 6.36496 96.9145 5.77717 96.5583 5.43875L94.3318 3.39038C93.9577 3.06976 93.4056 3.08758 93.0493 3.426C86.5658 10.8179 82.3266 19.7061 79.2807 28.3626C78.9423 29.3245 78.2476 30.0013 77.268 30.3754C72.6013 32.1744 67.3468 34.0624 62.5376 35.0243C61.647 35.2024 60.5248 35.0777 61.9676 33.439C63.3569 31.8538 65.0668 30.0726 67.5427 28.3805C67.9346 28.1133 68.8073 27.472 68.6292 28.0955C68.5936 28.2201 68.558 28.3448 68.5224 28.4873C68.4333 28.9682 68.7005 29.4492 69.1814 29.5917L72.0847 30.411V30.3932C72.5835 30.5357 73.0822 30.2507 73.2425 29.7698C73.6522 28.327 74.1509 26.5458 74.2578 26.154C74.6853 24.5865 74.2756 23.1259 73.1713 22.2532C71.8354 21.2023 69.9829 21.3091 67.6496 22.5738C63.1075 25.0674 60.2755 27.9708 58.3162 30.2151C54.2194 34.8996 54.9319 40.1363 60.8632 40.1363C61.647 40.1363 62.5376 40.0294 63.4994 39.8513C67.418 39.0676 71.4969 37.7495 75.3621 36.3424C76.7158 35.8436 76.8583 35.9683 76.5021 37.2151C75.5581 40.5638 74.7387 43.7699 73.9728 46.7267C73.7591 47.5817 73.5453 48.401 73.3316 49.2204C73.2069 49.7191 73.5097 50.2356 74.0084 50.3603L76.9652 51.144C77.4461 51.2509 77.9092 50.9659 78.0695 50.5028C78.2833 49.6657 78.497 48.8285 78.7286 47.9557C79.726 44.0371 80.8482 39.6554 82.2375 35.1312C82.5225 34.2228 82.7184 33.5637 83.4309 33.2609C83.5022 33.2253 83.5734 33.2075 83.6446 33.1719C84.4462 32.8512 84.6955 32.9047 85.3724 33.5993C89.0238 37.233 97.0392 45.2305 100.459 48.6504C100.815 49.0066 101.385 49.0066 101.759 48.6682L103.95 46.4595C104.217 46.1033 104.217 45.5867 103.897 45.2127Z" fill="#4B4848"/>
</g>
<mask id="mask10_4_598" style="mask-type:luminance" maskUnits="userSpaceOnUse" x="0" y="0" width="215" height="56">
<path d="M214.063 0H0V55.0744H214.063V0Z" fill="white"/>
</mask>
<g mask="url(#mask10_4_598)">
<path d="M214.028 11.8796L212.959 8.95849C212.763 8.51319 212.264 8.28163 211.801 8.44194C208.168 9.79564 194.417 14.9077 193.027 15.442C189.501 16.8491 188.824 18.2919 188.2 20.3225C188.2 20.3225 187.898 21.3199 187.809 21.6227C187.381 23.0833 186.811 25.0782 185.279 26.4676C182.572 28.9256 181.022 27.5897 180.987 25.5592C180.933 22.638 182.536 20.3581 185.849 18.5769V18.5591C186.295 18.3275 186.473 17.7754 186.277 17.3123L184.887 14.6049C184.656 14.1596 184.122 13.9636 183.658 14.1774C177.335 17.5438 176.035 22.2461 176.088 25.6482C176.195 31.8824 182.714 35.4091 188.539 30.1012C191.104 27.7678 191.959 24.7754 192.475 22.9942C192.547 22.7449 192.849 21.783 192.849 21.783C193.188 20.6787 193.188 20.6609 194.809 20.0197C196.127 19.5031 209.842 14.4089 213.458 13.0552C213.921 12.8771 214.17 12.3606 214.028 11.8796Z" fill="#4B4848"/>
</g>
</svg>
