<svg width="145" height="73" viewBox="0 0 145 73" fill="none" xmlns="http://www.w3.org/2000/svg">
<mask id="mask0_8087_3809" style="mask-type:luminance" maskUnits="userSpaceOnUse" x="0" y="0" width="145" height="73">
<path d="M144.977 9.15527e-05H0V72.4436H144.977V9.15527e-05Z" fill="white"/>
</mask>
<g mask="url(#mask0_8087_3809)">
<path d="M28.3357 36.5732C37.9251 24.3881 64.3862 -9.15527e-05 100.473 -9.15527e-05C125.744 -9.15527e-05 144.887 14.366 144.977 14.4201C130.701 7.49842 74.3182 -3.7854 29.9399 37.2762L28.3357 36.5732Z" fill="#4B4848"/>
</g>
<mask id="mask1_8087_3809" style="mask-type:luminance" maskUnits="userSpaceOnUse" x="0" y="0" width="145" height="73">
<path d="M144.977 9.15527e-05H0V72.4436H144.977V9.15527e-05Z" fill="white"/>
</mask>
<g mask="url(#mask1_8087_3809)">
<path d="M54.5985 49.3171C55.5539 44.5944 58.8344 41.5301 63.8635 41.5301C68.9646 41.5301 72.1731 44.6665 72.8941 49.3171H54.5985ZM142.021 40.8632C142.994 40.8632 143.95 40.9353 144.869 41.0795V33.2385C143.157 33.0042 141.318 32.896 139.317 32.896C125.528 32.896 115.127 41.1516 115.127 52.1831C115.127 52.9401 115.181 53.6792 115.272 54.4002C113.253 50.9934 108.764 49.263 102.383 47.9471C94.2541 46.2888 93.1365 45.5678 93.2988 43.7833C93.461 42.0889 96.1828 40.5027 100.257 40.5027C102.87 40.5027 106.349 41.1156 109.449 42.5756V34.3561C106.457 33.4368 103.177 32.8239 99.6617 32.8239C89.4053 32.8239 82.5196 37.7448 81.9789 44.4863C81.9789 44.5223 81.9789 44.5764 81.9789 44.6125C79.4914 37.9611 73.7053 32.9681 63.7373 32.9681C51.7505 32.9681 43.549 41.7464 43.549 52.3633C43.549 52.6337 43.549 52.9041 43.5671 53.1745C41.3139 48.2716 35.4377 46.0184 27.4885 44.288C18.1154 42.2692 16.7815 41.3499 16.7815 39.2229C16.7815 37.168 19.1789 35.4196 22.9101 35.4917C25.8122 35.5458 27.5426 36.2487 28.3357 36.5371C30.6429 33.6711 33.1484 30.9133 35.7801 28.2996C31.8506 26.8576 27.5606 26.1366 22.9461 26.1366C11.7885 26.1366 4.00159 31.7244 4.00159 40.1061C4.00159 46.5412 7.37231 49.4613 13.2666 51.4801C13.591 51.5702 14.5103 51.8586 15.0331 52.0389C17.0699 52.6337 19.3411 53.1564 21.8466 53.6792C31.0395 55.662 31.8146 57.3203 31.8146 59.1408C31.8146 61.2858 29.255 62.5656 24.965 62.5656C20.0621 62.5656 15.5378 61.1236 10.7791 58.0593C8.34568 61.3579 5.84016 64.963 4.50629 67.1801C10.4366 70.4066 17.3763 72.4074 24.6585 72.4255H24.8027C36.6814 72.4074 44.1799 67.2702 44.5765 58.8885C47.1 66.5492 54.1479 71.5242 63.6652 71.5242C65.5038 71.5242 68.1355 71.4701 72.4615 70.3886V62.2232C68.4239 63.3948 66.7115 63.521 64.3321 63.3948C59.5915 63.1424 55.7341 60.4747 54.6165 55.8062H83.2587C83.3308 54.8508 83.4029 54.238 83.4029 53.2105V53.0663C83.4029 52.0569 83.3488 51.0655 83.2407 50.0741C85.4217 53.0843 90.1984 54.3101 96.7416 55.6259C104.709 57.2482 105.159 58.4739 105.159 60.3305C105.159 61.9888 103.032 63.8815 98.3278 63.7192C93.479 63.557 87.8191 62.115 83.4389 59.6455V69.0728C87.9993 71.1096 93.8035 72.3894 98.2918 72.3894C109.089 72.3894 116.497 66.0625 116.497 59.231C116.497 59.0868 116.497 58.9245 116.479 58.7803C118.39 63.2506 122.139 66.6574 126.411 68.7303C130.665 70.8032 135.208 71.4521 138.939 71.4701C141.138 71.4881 143.049 71.3259 144.869 71.0375V63.0884C143.95 63.2326 142.994 63.3227 142.021 63.3227C134.036 63.3227 127.565 58.2936 127.565 52.111C127.547 45.8923 134.036 40.8632 142.021 40.8632Z" fill="#4B4848"/>
</g>
<mask id="mask2_8087_3809" style="mask-type:luminance" maskUnits="userSpaceOnUse" x="0" y="0" width="145" height="73">
<path d="M144.977 9.15527e-05H0V72.4436H144.977V9.15527e-05Z" fill="white"/>
</mask>
<g mask="url(#mask2_8087_3809)">
<path d="M15.3755 52.1641C12.4734 55.5348 6.75943 63.4119 4.47023 67.1972C2.21707 65.8813 1.04542 65.0341 -0.0180664 64.223C3.46081 60.4197 8.76024 54.8138 13.1224 51.4431C13.1404 51.4611 15.1232 52.074 15.3755 52.1641Z" fill="#4B4848"/>
</g>
</svg>
