<svg width="111" height="103" viewBox="0 0 111 103" fill="none" xmlns="http://www.w3.org/2000/svg">
<mask id="mask0_4_656" style="mask-type:luminance" maskUnits="userSpaceOnUse" x="0" y="0" width="111" height="103">
<path d="M110.05 0.719727H0V102.517H110.05V0.719727Z" fill="white"/>
</mask>
<g mask="url(#mask0_4_656)">
<path d="M99.6845 61.5724L82.963 73.7286L80.9041 90.1278H60.6199L57.6122 92.312C56.8603 92.867 55.9472 93.1535 55.0162 93.1535C54.0853 93.1535 53.1722 92.867 52.4203 92.312L49.4126 90.1278H29.1284L27.0874 73.7286L10.3659 61.5724C9.88251 59.6747 9.63187 57.7053 9.63187 55.736C9.63187 52.4418 10.3301 49.2013 11.6728 46.1936L41.2667 76.1276L12.4785 40.6078C13.6064 36.0067 16.1128 31.8532 19.6576 28.7023L45.4739 73.2273L22.6116 24.495C25.5656 20.5564 29.6833 17.6561 34.3919 16.2059L50.1645 71.4728L38.6349 13.9143C42.1439 11.945 46.1005 10.8887 50.1287 10.8887C50.988 10.8887 51.8295 10.9424 52.6709 11.0319L55.0162 70.8641L57.3615 11.0319C58.203 10.9424 59.0623 10.8887 59.9038 10.8887C63.932 10.8887 67.8886 11.9271 71.3976 13.9143L59.868 71.4549L75.6406 16.188C80.3491 17.6382 84.4669 20.5385 87.4209 24.4771L64.5944 73.2273L90.3928 28.7023C93.9376 31.8532 96.444 36.0067 97.5898 40.6078L68.7837 76.1455L98.3776 46.2115C99.7203 49.2192 100.401 52.4597 100.401 55.7539C100.419 57.7053 100.168 59.6747 99.6845 61.5724ZM55.0341 0.719727C24.6526 0.719727 0 25.3723 0 55.7539C0 59.4419 0.375965 63.1299 1.10999 66.7643L18.0463 79.0816L20.6423 99.7776H48.5711L50.1824 100.959C51.5967 101.98 53.2975 102.535 55.0341 102.535C56.7707 102.535 58.4715 101.98 59.8859 100.959L61.4972 99.7776H89.426L92.0041 79.0816L108.94 66.7643C109.674 63.1479 110.05 59.4598 110.05 55.7539C110.05 25.3723 85.3978 0.719727 55.0341 0.719727Z" fill="#4B4848"/>
</g>
</svg>
