<svg width="88" height="59" viewBox="0 0 88 59" fill="none" xmlns="http://www.w3.org/2000/svg">
<g clip-path="url(#clip0_8048_1078)">
<path d="M62.9354 19.1071C63.5361 19.0556 64.1425 19.0456 64.7343 18.9471C67.7491 18.4437 70.7607 17.9123 73.7744 17.4022C74.4255 17.2926 75.0822 17.221 75.7389 17.1483C76.3597 17.08 76.57 17.3586 76.3318 17.9347C75.9727 18.8006 75.5945 19.6597 75.2254 20.5211C75.1169 20.7751 75.0005 21.0257 74.8998 21.283C74.5687 22.1354 74.7991 22.4386 75.6997 22.2719C77.2155 21.9911 78.7224 21.6622 80.2371 21.3747C82.4275 20.9585 84.6224 20.558 86.8162 20.1587C86.9124 20.1408 87.0209 20.19 87.1238 20.2079C87.1551 20.2918 87.1865 20.3757 87.2178 20.4607C81.0583 23.3033 74.8987 26.1459 68.7392 28.9874C68.6564 28.927 68.5736 28.8655 68.4897 28.8051C68.7045 27.8542 68.9036 26.8988 69.1374 25.9524C69.4507 24.6871 69.2448 24.4433 67.9662 24.7006C61.6489 25.9736 55.3238 27.2064 49.0222 28.5556C45.3249 29.3465 42.8414 27.3854 41.6925 24.6614C40.5447 21.9407 39.4585 19.1944 38.3476 16.4591C38.0668 15.7689 37.8252 15.0597 37.5008 14.3907C37.333 14.045 37.0242 13.7664 36.7792 13.4588C36.5376 13.7586 36.2064 14.0215 36.0666 14.3627C34.7275 17.6606 33.4242 20.972 32.0997 24.2755C31.8737 24.8393 31.6187 25.393 31.3379 25.93C30.2628 27.9906 28.5411 29.0254 26.2277 28.9516C25.166 28.918 24.0686 28.8285 23.0618 28.5209C21.6041 28.0757 20.6868 26.9156 20.1106 25.5508C18.9092 22.7048 17.7692 19.832 16.608 16.9693C16.2758 16.1504 15.9827 15.317 15.6258 14.5104C15.4457 14.1021 15.1627 13.7385 14.8282 13.1948C14.5787 13.6367 14.4087 13.8783 14.299 14.1446C12.8716 17.5868 11.4855 21.0458 10.02 24.4724C9.03222 26.7825 7.39781 28.4873 4.82369 28.8822C3.41749 29.0982 1.95536 28.9751 0.518953 28.9561C-0.144432 28.9471 -0.0381564 28.4404 0.111749 28.0477C0.602856 26.759 1.13312 25.4848 1.64212 24.2016C3.97348 18.3274 6.27352 12.4408 8.64851 6.58443C9.59492 4.2486 11.2864 2.67907 13.8471 2.17007C16.9526 1.55255 19.5759 2.91176 20.7897 5.88413C22.1567 9.23014 23.4634 12.6008 24.7991 15.9602C24.9311 16.2936 25.0497 16.6393 25.2354 16.9413C25.3674 17.1561 25.6348 17.476 25.7869 17.4481C26.0252 17.4044 26.3093 17.1471 26.4123 16.91C26.9906 15.5675 27.5075 14.1994 28.0679 12.8491C29.1475 10.2493 30.1476 7.61251 31.3558 5.07308C32.5293 2.60636 35.4759 1.44515 38.1026 2.21481C40.2953 2.85694 41.9218 4.16917 42.7944 6.32154C44.5552 10.6699 46.3228 15.016 48.0523 19.3778C48.6508 20.8881 49.0457 21.114 50.3948 20.1452C53.8494 17.664 57.2681 15.1313 60.6589 12.5639C61.4196 11.9877 62.0651 11.2304 62.6624 10.4753C63.4075 9.53443 63.3583 8.64954 62.6647 7.66062C61.4565 5.93783 59.3869 5.34156 57.032 6.00719C55.3618 6.48039 53.9858 7.40779 52.7788 8.62829C51.9095 9.50758 51.716 9.47626 51.103 8.36987C50.4989 7.27802 49.8981 6.15597 50.0469 4.86388C50.2304 3.27422 51.1623 2.13203 52.621 1.56709C54.0004 1.03347 55.4345 0.571451 56.8855 0.311914C59.7147 -0.194854 62.5439 -0.135563 65.2902 0.873499C68.8421 2.17678 70.8815 5.04287 70.7595 8.72114C70.6935 10.6945 69.9686 12.4565 68.4875 13.809C66.8754 15.2823 65.2108 16.6974 63.5507 18.1171C63.2867 18.343 62.9287 18.4583 62.6143 18.6249C62.7217 18.786 62.828 18.9471 62.9354 19.1082" fill="#4B4848"/>
<path d="M69.1162 58.0917C75.171 58.0917 80.0794 53.1833 80.0794 47.1285C80.0794 41.0737 75.171 36.1653 69.1162 36.1653C63.0613 36.1653 58.153 41.0737 58.153 47.1285C58.153 53.1833 63.0613 58.0917 69.1162 58.0917Z" fill="#2E4998"/>
<path d="M41.9315 58.0939C47.9863 58.0939 52.8947 53.1855 52.8947 47.1307C52.8947 41.0759 47.9863 36.1675 41.9315 36.1675C35.8767 36.1675 30.9683 41.0759 30.9683 47.1307C30.9683 53.1855 35.8767 58.0939 41.9315 58.0939Z" fill="#63B760"/>
<path d="M15.0831 58.0917C21.1379 58.0917 26.0463 53.1833 26.0463 47.1285C26.0463 41.0737 21.1379 36.1653 15.0831 36.1653C9.02827 36.1653 4.11987 41.0737 4.11987 47.1285C4.11987 53.1833 9.02827 58.0917 15.0831 58.0917Z" fill="#E3253E"/>
</g>
<defs>
<clipPath id="clip0_8048_1078">
<rect width="87.219" height="58.0927" fill="white"/>
</clipPath>
</defs>
</svg>
